<?xml version="1.0" encoding="UTF-8"?>
<svg id="Layer_1" data-name="Layer 1" xmlns="http://www.w3.org/2000/svg" viewBox="0 0 24 24">
  <defs>
    <style>
      .cls-1 {
        fill: #333;
        fill-rule: evenodd;
      }
    </style>
  </defs>
  <path class="cls-1" d="M3,3h1.85c.37,0,.72.22.88.56l3.89,8.03c.14.28.14.61,0,.89l-1.7,3.51c-.17.34-.51.56-.88.56h-1.85l2.08-4.3c.07-.14.07-.3,0-.44L3,3ZM6.76,21h1.85c.37,0,.72-.22.88-.56l3.89-8.03c.14-.28.14-.61,0-.89l-1.7-3.51c-.17-.34-.51-.56-.88-.56h-1.85l2.08,4.3c.07.14.07.3,0,.44l-4.27,8.81ZM12.37,3h-1.85l4.26,8.81c.07.14.07.3,0,.44l-2.08,4.3h1.85c.37,0,.72-.22.88-.56l1.7-3.51c.14-.28.14-.61,0-.89l-3.89-8.03c-.17-.34-.51-.56-.88-.56ZM14.28,21h1.85c.38,0,.72-.22.88-.56l3.89-8.03c.14-.28.14-.61,0-.89l-1.7-3.51c-.17-.34-.51-.56-.88-.56h-1.85l2.08,4.3c.07.14.07.3,0,.44l-4.26,8.81Z"/>
</svg>