<?xml version="1.0" encoding="UTF-8"?>
<svg id="Layer_1" data-name="Layer 1" xmlns="http://www.w3.org/2000/svg" viewBox="0 0 24 24">
  <defs>
    <style>
      .cls-1 {
        fill: #333;
      }
    </style>
  </defs>
  <path class="cls-1" d="M12.27,19c.2-.02.37-.1.51-.24.14-.14.21-.31.21-.51,0-.23-.08-.42-.23-.56s-.34-.21-.57-.19c-.68.05-1.41-.14-2.18-.56-.77-.43-1.25-1.2-1.45-2.32-.03-.18-.12-.33-.26-.44-.14-.12-.3-.18-.49-.18-.23,0-.43.09-.58.26-.15.18-.2.38-.15.62.28,1.51.95,2.6,2,3.24,1.05.65,2.11.95,3.17.88ZM12,22c-2.28,0-4.19-.78-5.71-2.35-1.52-1.57-2.29-3.52-2.29-5.85,0-1.67.66-3.48,1.99-5.44,1.32-1.96,3.33-4.08,6.01-6.36,2.68,2.28,4.69,4.4,6.01,6.36,1.33,1.96,1.99,3.77,1.99,5.44,0,2.33-.76,4.28-2.29,5.85-1.53,1.57-3.43,2.35-5.71,2.35Z"/>
</svg>