<?xml version="1.0" encoding="UTF-8"?>
<svg id="Layer_1" data-name="Layer 1" xmlns="http://www.w3.org/2000/svg" viewBox="0 0 24 24">
  <defs>
    <style>
      .cls-1 {
        fill: #333;
      }
    </style>
  </defs>
  <path class="cls-1" d="M8.52,21.48v-2h-3v-2.65h2V7.17h-2v-2.65h3v-2h2.65v2h1.66v-2h2.65v2.21c.91.29,1.65.82,2.22,1.59.57.77.85,1.64.85,2.61,0,.46-.07.92-.22,1.37-.15.44-.36.84-.63,1.2.57.39,1.01.9,1.35,1.53.33.63.5,1.31.5,2.04,0,1.17-.39,2.17-1.17,3.02-.78.84-1.75,1.3-2.9,1.36v2.03h-2.65v-2h-1.66v2h-2.65ZM10.17,10.68h3.99c.48,0,.89-.18,1.23-.52.34-.34.51-.75.51-1.23s-.17-.9-.51-1.24c-.34-.35-.75-.52-1.23-.52h-3.99v3.51ZM10.17,16.83h4.99c.48,0,.89-.17,1.23-.52.34-.34.51-.76.51-1.24s-.17-.9-.51-1.24c-.34-.34-.75-.5-1.23-.5h-4.99v3.5Z"/>
</svg>