<?xml version="1.0" encoding="UTF-8"?>
<svg id="Layer_1" data-name="Layer 1" xmlns="http://www.w3.org/2000/svg" viewBox="0 0 24 24">
  <defs>
    <style>
      .cls-1 {
        fill: #333;
      }
    </style>
  </defs>
  <path class="cls-1" d="M7.5,22c-.97,0-1.79-.34-2.48-1.02-.68-.68-1.02-1.51-1.02-2.48V5.5c0-.97.34-1.79,1.02-2.48.68-.68,1.51-1.02,2.48-1.02h12.5v15c-.42,0-.77.15-1.06.44-.29.29-.44.64-.44,1.06s.15.77.44,1.06c.29.29.65.44,1.06.44v2H7.5ZM8,15h2V4h-2v11ZM7.5,20h9.33c-.1-.23-.18-.47-.24-.71-.06-.24-.09-.5-.09-.79,0-.27.02-.52.08-.77.05-.25.13-.49.25-.73H7.5c-.43,0-.79.15-1.08.44-.28.29-.42.64-.42,1.06s.14.79.42,1.07c.28.28.64.43,1.08.43Z"/>
</svg>