<?xml version="1.0" encoding="UTF-8"?>
<svg id="Layer_1" data-name="Layer 1" xmlns="http://www.w3.org/2000/svg" viewBox="0 0 24 24">
  <defs>
    <style>
      .cls-1 {
        fill: #333;
      }
    </style>
  </defs>
  <path class="cls-1" d="M12,14c-.28,0-.52-.1-.71-.29-.19-.19-.29-.43-.29-.71s.1-.52.29-.71c.19-.19.43-.29.71-.29s.52.1.71.29c.19.19.29.43.29.71s-.1.52-.29.71c-.19.19-.43.29-.71.29ZM8,14c-.28,0-.52-.1-.71-.29-.19-.19-.29-.43-.29-.71s.1-.52.29-.71c.19-.19.43-.29.71-.29s.52.1.71.29c.19.19.29.43.29.71s-.1.52-.29.71c-.19.19-.43.29-.71.29ZM16,14c-.28,0-.52-.1-.71-.29-.19-.19-.29-.43-.29-.71s.1-.52.29-.71c.19-.19.43-.29.71-.29s.52.1.71.29c.19.19.29.43.29.71s-.1.52-.29.71c-.19.19-.43.29-.71.29ZM12,18c-.28,0-.52-.1-.71-.29-.19-.19-.29-.43-.29-.71s.1-.52.29-.71c.19-.19.43-.29.71-.29s.52.1.71.29c.19.19.29.43.29.71s-.1.52-.29.71c-.19.19-.43.29-.71.29ZM8,18c-.28,0-.52-.1-.71-.29-.19-.19-.29-.43-.29-.71s.1-.52.29-.71c.19-.19.43-.29.71-.29s.52.1.71.29c.19.19.29.43.29.71s-.1.52-.29.71c-.19.19-.43.29-.71.29ZM16,18c-.28,0-.52-.1-.71-.29-.19-.19-.29-.43-.29-.71s.1-.52.29-.71c.19-.19.43-.29.71-.29s.52.1.71.29c.19.19.29.43.29.71s-.1.52-.29.71c-.19.19-.43.29-.71.29ZM5,22c-.55,0-1.02-.2-1.41-.59-.39-.39-.59-.86-.59-1.41V6c0-.55.2-1.02.59-1.41.39-.39.86-.59,1.41-.59h1v-2h2v2h8v-2h2v2h1c.55,0,1.02.2,1.41.59.39.39.59.86.59,1.41v14c0,.55-.2,1.02-.59,1.41-.39.39-.86.59-1.41.59H5ZM5,20h14v-10H5v10Z"/>
</svg>