<?xml version="1.0" encoding="UTF-8"?>
<svg id="Layer_1" data-name="Layer 1" xmlns="http://www.w3.org/2000/svg" viewBox="0 0 24 24">
  <defs>
    <style>
      .cls-1 {
        fill: #333;
      }
    </style>
  </defs>
  <path class="cls-1" d="M5,22c-.55,0-1.02-.2-1.41-.59-.39-.39-.59-.86-.59-1.41V6c0-.55.2-1.02.59-1.41.39-.39.86-.59,1.41-.59h1v-2h2v2h8v-2h2v2h1c.55,0,1.02.2,1.41.59.39.39.59.86.59,1.41v4.68c0,.28-.1.52-.29.71-.19.19-.43.29-.71.29s-.52-.1-.71-.29c-.19-.19-.29-.43-.29-.71v-.68H5v10h5.8c.28,0,.52.1.71.29.19.19.29.43.29.71s-.1.52-.29.71c-.19.19-.43.29-.71.29h-5.8ZM18,23c-1.38,0-2.56-.49-3.54-1.46-.98-.98-1.46-2.16-1.46-3.54s.49-2.56,1.46-3.54c.97-.97,2.15-1.46,3.54-1.46s2.56.49,3.54,1.46c.98.98,1.46,2.16,1.46,3.54s-.49,2.56-1.46,3.54c-.98.97-2.15,1.46-3.54,1.46ZM19.67,20.38l.7-.7-1.88-1.88v-2.8h-1v3.2l2.17,2.18Z"/>
</svg>