<?xml version="1.0" encoding="UTF-8"?>
<svg id="Layer_1" data-name="Layer 1" xmlns="http://www.w3.org/2000/svg" viewBox="0 0 24 24">
  <defs>
    <style>
      .cls-1 {
        fill: #333;
      }
    </style>
  </defs>
  <path class="cls-1" d="M15.5,20.19l-4.46-4.46,1.78-1.79,2.68,2.68,5.48-5.48,1.78,1.79-7.26,7.26ZM21.48,10h-2.65v-4.83h-1.9v3.23H7.07v-3.23h-1.9v13.66h5.83v2.65h-5.83c-.73,0-1.35-.26-1.87-.78-.52-.52-.78-1.14-.78-1.87V5.17c0-.73.26-1.35.78-1.87.52-.52,1.14-.78,1.87-.78h3.64c.24-.61.66-1.11,1.25-1.49.59-.39,1.24-.58,1.94-.58s1.37.19,1.96.58c.59.38,1.01.88,1.26,1.49h3.61c.73,0,1.35.26,1.87.78.52.52.78,1.14.78,1.87v4.83ZM12,4.96c.28,0,.52-.1.71-.29.19-.19.29-.43.29-.71s-.1-.52-.29-.72c-.19-.19-.43-.28-.71-.28s-.52.09-.71.28c-.19.2-.29.43-.29.72s.1.52.29.71c.19.19.43.29.71.29Z"/>
</svg>