<?xml version="1.0" encoding="UTF-8"?>
<svg id="Layer_1" data-name="Layer 1" xmlns="http://www.w3.org/2000/svg" viewBox="0 0 24 24">
  <defs>
    <style>
      .cls-1 {
        fill: #333;
      }
    </style>
  </defs>
  <path class="cls-1" d="M12,2c.83,0,1.54.29,2.12.88.58.58.88,1.29.88,2.12s-.29,1.54-.88,2.12c-.58.59-1.29.88-2.12.88s-1.54-.29-2.12-.88c-.58-.58-.88-1.29-.88-2.12s.29-1.54.88-2.12c.58-.59,1.29-.88,2.12-.88ZM12,9c.78,0,1.56.09,2.33.28.77.18,1.46.44,2.07.77.63.32,1.14.69,1.52,1.13.38.43.58.9.58,1.42v5.8c0,.28-.07.56-.2.84-.13.27-.32.53-.55.76s-.5.45-.81.65c-.31.2-.65.38-1.04.55v-2.25c0-.63-.44-1.15-1.31-1.55-.88-.4-1.74-.6-2.59-.6s-1.64.17-2.41.51c-.78.34-1.26.79-1.44,1.34.63.25,1.28.43,1.95.53.67.1,1.35.15,2.05.17h.85v2.6c-.12.03-.24.05-.36.05h-.39c-.6,0-1.29-.07-2.06-.2-.78-.13-1.51-.34-2.21-.62-.7-.29-1.29-.66-1.76-1.12-.48-.46-.71-1.01-.71-1.66v-5.8c0-.52.19-.99.58-1.42.38-.44.88-.81,1.5-1.13.63-.33,1.33-.59,2.1-.77.77-.19,1.54-.28,2.33-.28ZM12,15c.55,0,1.02-.2,1.41-.59.39-.39.59-.86.59-1.41s-.2-1.02-.59-1.41c-.39-.39-.86-.59-1.41-.59s-1.02.2-1.41.59c-.39.39-.59.86-.59,1.41s.2,1.02.59,1.41c.39.39.86.59,1.41.59Z"/>
</svg>