<?xml version="1.0" encoding="UTF-8"?>
<svg id="Layer_1" data-name="Layer 1" xmlns="http://www.w3.org/2000/svg" viewBox="0 0 24 24">
  <defs>
    <style>
      .cls-1 {
        fill: #333;
      }
    </style>
  </defs>
  <path class="cls-1" d="M2,22v-8l4-1.77v-3.23l5-2.5v-1.5h-2v-2h2V1h2v2h2v2h-2v1.5l5,2.5v3.23l4,1.77v8h-8v-3c0-.55-.2-1.02-.59-1.41-.39-.39-.86-.59-1.41-.59s-1.02.2-1.41.59c-.39.39-.59.86-.59,1.41v3H2ZM12,13.5c.42,0,.77-.15,1.06-.44.29-.29.44-.64.44-1.06s-.15-.77-.44-1.06c-.29-.29-.65-.44-1.06-.44s-.77.15-1.06.44c-.29.29-.44.64-.44,1.06s.15.77.44,1.06c.29.29.65.44,1.06.44Z"/>
</svg>