<?xml version="1.0" encoding="UTF-8"?>
<svg id="Layer_1" data-name="Layer 1" xmlns="http://www.w3.org/2000/svg" viewBox="0 0 24 24">
  <defs>
    <style>
      .cls-1 {
        fill: #333;
      }
    </style>
  </defs>
  <path class="cls-1" d="M11,17h2v-6h-2v6ZM12,9c.28,0,.52-.1.71-.29.19-.19.29-.43.29-.71s-.1-.52-.29-.71c-.19-.19-.43-.29-.71-.29s-.52.1-.71.29c-.19.19-.29.43-.29.71s.1.52.29.71c.19.19.43.29.71.29ZM12,22c-1.38,0-2.68-.26-3.9-.79-1.22-.52-2.27-1.23-3.18-2.13-.9-.9-1.61-1.96-2.14-3.18-.53-1.22-.79-2.52-.79-3.9s.26-2.68.79-3.9c.52-1.22,1.24-2.27,2.14-3.18.9-.9,1.96-1.61,3.18-2.13,1.22-.53,2.52-.79,3.9-.79s2.68.26,3.9.79c1.22.52,2.27,1.23,3.18,2.13.9.91,1.61,1.96,2.14,3.18.52,1.22.79,2.52.79,3.9s-.26,2.68-.79,3.9c-.52,1.22-1.24,2.28-2.14,3.18-.9.9-1.96,1.61-3.18,2.13-1.22.53-2.52.79-3.9.79Z"/>
</svg>