<?xml version="1.0" encoding="UTF-8"?>
<svg id="Layer_1" data-name="Layer 1" xmlns="http://www.w3.org/2000/svg" viewBox="0 0 24 24">
  <defs>
    <style>
      .cls-1 {
        fill: #333;
      }
    </style>
  </defs>
  <path class="cls-1" d="M11.97,21.48c-2.43,0-4.55-.81-6.35-2.42-1.8-1.62-2.82-3.64-3.07-6.06h2.69c.24,1.69,1,3.08,2.27,4.18,1.27,1.1,2.76,1.65,4.46,1.65,1.9,0,3.52-.66,4.84-1.99,1.33-1.32,1.99-2.94,1.99-4.84s-.66-3.52-1.99-4.84c-1.32-1.33-2.94-1.99-4.84-1.99-1.04,0-2.02.23-2.94.68-.92.45-1.71,1.09-2.37,1.91h2.35v2.24H2.63V3.65h2.21v2.13c.9-1.04,1.96-1.85,3.2-2.41,1.23-.57,2.54-.85,3.93-.85,1.31,0,2.54.25,3.69.75,1.15.5,2.16,1.17,3.01,2.03.86.85,1.53,1.86,2.03,3.01.5,1.15.75,2.38.75,3.69s-.25,2.54-.75,3.69c-.5,1.15-1.18,2.16-2.03,3.01-.86.86-1.86,1.53-3.01,2.03-1.15.5-2.38.75-3.69.75ZM14.7,16.31l-3.8-3.8v-5.51h2.21v4.6l3.16,3.14-1.57,1.57Z"/>
</svg>