<?xml version="1.0" encoding="UTF-8"?>
<svg id="Layer_1" data-name="Layer 1" xmlns="http://www.w3.org/2000/svg" viewBox="0 0 24 24">
  <defs>
    <style>
      .cls-1 {
        fill: #333;
      }
    </style>
  </defs>
  <path class="cls-1" d="M.95,13.3c-.3-.6-.53-1.21-.7-1.82-.17-.62-.25-1.25-.25-1.88,0-1.87.63-3.43,1.9-4.7s2.83-1.9,4.7-1.9c1.05,0,2.05.22,3,.66.95.44,1.75,1.06,2.4,1.84.65-.78,1.45-1.4,2.4-1.84.95-.44,1.95-.66,3-.66,1.87,0,3.43.63,4.7,1.9s1.9,2.83,1.9,4.7c0,.63-.08,1.26-.25,1.88-.17.61-.4,1.22-.7,1.82-.18-.32-.4-.6-.65-.85s-.54-.45-.88-.6c.15-.38.27-.76.35-1.13.08-.36.12-.74.12-1.12,0-1.3-.44-2.39-1.33-3.27-.88-.89-1.97-1.33-3.27-1.33s-2.39.37-3.11,1.11c-.73.74-1.49,1.57-2.29,2.49-.8-.93-1.56-1.77-2.29-2.5-.73-.73-1.76-1.1-3.11-1.1s-2.39.44-3.27,1.33c-.88.88-1.33,1.97-1.33,3.27,0,.38.04.76.12,1.12.08.37.2.75.35,1.13-.33.15-.62.35-.88.6s-.47.53-.65.85ZM0,22v-1.57c0-.74.37-1.33,1.11-1.77.74-.44,1.7-.66,2.89-.66.22,0,.42,0,.62,0,.2.01.39.03.58.06-.23.34-.41.7-.53,1.08-.12.38-.17.79-.17,1.23v1.62H0ZM6,22v-1.62c0-1.09.55-1.96,1.66-2.63,1.11-.67,2.56-1,4.34-1s3.25.33,4.35,1,1.65,1.54,1.65,2.63v1.62H6ZM19.5,22v-1.62c0-.44-.05-.85-.16-1.23-.11-.38-.27-.74-.49-1.08.18-.03.37-.05.56-.06.19,0,.39,0,.59,0,1.2,0,2.17.22,2.9.66s1.1,1.03,1.1,1.77v1.57h-4.5ZM4,17c-.55,0-1.02-.2-1.41-.59-.39-.39-.59-.86-.59-1.41s.2-1.04.59-1.43c.39-.38.86-.57,1.41-.57s1.04.19,1.42.57c.38.39.58.86.58,1.43s-.19,1.02-.58,1.41c-.38.39-.86.59-1.42.59ZM20,17c-.55,0-1.02-.2-1.41-.59-.39-.39-.59-.86-.59-1.41s.2-1.04.59-1.43c.39-.38.86-.57,1.41-.57s1.04.19,1.42.57c.38.39.58.86.58,1.43s-.19,1.02-.58,1.41c-.38.39-.86.59-1.42.59ZM12,16c-.83,0-1.54-.29-2.12-.88-.58-.58-.88-1.29-.88-2.12s.29-1.56.88-2.14c.58-.57,1.29-.86,2.12-.86s1.56.29,2.14.86c.58.58.86,1.29.86,2.14s-.29,1.54-.86,2.12c-.57.59-1.29.88-2.14.88Z"/>
</svg>