<?xml version="1.0" encoding="UTF-8"?>
<svg id="Layer_1" data-name="Layer 1" xmlns="http://www.w3.org/2000/svg" viewBox="0 0 24 24">
  <defs>
    <style>
      .cls-1 {
        fill: #333;
      }
    </style>
  </defs>
  <path class="cls-1" d="M8.89,22.65c-.75,0-1.43-.19-2.03-.58-.6-.38-1.07-.92-1.41-1.58-.26.41-.61.73-1.05.95-.44.23-.89.33-1.37.33-.86,0-1.58-.3-2.16-.89-.59-.59-.88-1.31-.88-2.15,0-.76.26-1.44.78-2.03.52-.6,1.16-.92,1.94-.95-.22-.32-.39-.68-.51-1.04-.12-.36-.17-.74-.17-1.15,0-.7.18-1.34.54-1.94.36-.59.87-1.07,1.53-1.43.08.33.2.69.37,1.07.17.39.35.73.55,1-.22.16-.4.35-.52.59-.13.23-.19.48-.19.74,0,.84.37,1.36,1.1,1.54.74.18,1.4.32,2,.45l.53.91c-.15.41-.29.8-.44,1.17-.15.37-.22.73-.22,1.07,0,.44.15.82.45,1.16.3.33.68.5,1.14.5.56,0,1.03-.26,1.4-.76.37-.51.67-1.11.91-1.8.24-.69.42-1.38.55-2.09.13-.7.24-1.24.31-1.63l2.2.59c-.15.73-.34,1.57-.55,2.48-.22.92-.52,1.78-.9,2.6-.39.81-.89,1.5-1.51,2.05-.62.55-1.42.83-2.4.83ZM9.6,15.42c-.46-.43-.96-.88-1.48-1.36-.52-.48-1.01-.98-1.45-1.52-.44-.54-.81-1.11-1.1-1.7s-.43-1.21-.43-1.86c0-1.09.37-1.99,1.12-2.74.74-.74,1.66-1.12,2.73-1.12.05,0,.09,0,.13,0h.13c-.1-.19-.17-.39-.22-.59-.05-.2-.08-.41-.08-.63,0-.84.3-1.56.89-2.15.59-.59,1.31-.89,2.15-.89s1.56.3,2.15.89c.59.59.89,1.31.89,2.15,0,.22-.02.43-.07.63-.05.19-.13.39-.22.58h.27c1.03,0,1.9.34,2.61,1.01.71.68,1.11,1.51,1.21,2.5-.34-.08-.72-.11-1.14-.11s-.81.02-1.15.06c-.09-.34-.27-.63-.54-.86-.27-.22-.59-.33-.98-.33-.56,0-1.01.2-1.35.59-.35.4-.73.84-1.14,1.32h-1.05c-.42-.5-.8-.94-1.15-1.33-.34-.39-.78-.58-1.33-.58-.46,0-.83.15-1.14.45-.3.31-.45.69-.45,1.15,0,.4.14.82.41,1.26.27.45.61.89,1.01,1.31.4.43.81.84,1.25,1.23.44.39.82.73,1.14,1.02l-1.6,1.62ZM15.07,22.65c-.39,0-.77-.06-1.15-.17-.38-.11-.75-.29-1.09-.53.21-.27.42-.58.63-.94.21-.35.39-.69.55-.99.17.13.34.24.52.3.18.06.37.1.55.1.47,0,.86-.17,1.16-.51.3-.33.45-.73.45-1.18,0-.34-.07-.71-.21-1.07-.14-.37-.29-.75-.43-1.16l.52-.91c.61-.11,1.29-.27,2.02-.45.73-.18,1.1-.7,1.1-1.55,0-.59-.22-1.01-.67-1.26-.45-.26-.93-.38-1.44-.38-.79,0-1.66.15-2.61.46-.95.31-1.8.58-2.53.82l-.6-2.2c.92-.3,1.87-.59,2.87-.9.99-.3,1.95-.44,2.88-.44,1.15,0,2.17.33,3.04,1.01.88.69,1.32,1.64,1.32,2.88,0,.4-.06.77-.17,1.14-.11.36-.28.72-.51,1.04.77.03,1.42.33,1.94.93.52.59.78,1.28.78,2.05,0,.84-.29,1.56-.88,2.15-.58.59-1.3.89-2.16.89-.48,0-.93-.11-1.37-.33-.44-.23-.79-.54-1.05-.95-.34.68-.82,1.21-1.42,1.59-.6.39-1.28.58-2.05.58Z"/>
</svg>