<?xml version="1.0" encoding="UTF-8"?>
<svg id="Layer_1" data-name="Layer 1" xmlns="http://www.w3.org/2000/svg" viewBox="0 0 24 24">
  <defs>
    <style>
      .cls-1 {
        fill: #333;
      }
    </style>
  </defs>
  <path class="cls-1" d="M4,23v-2h16v2H4ZM4,3V1h16v2H4ZM12,13c.83,0,1.54-.29,2.12-.88.58-.58.88-1.29.88-2.12s-.29-1.54-.88-2.12c-.58-.59-1.29-.88-2.12-.88s-1.54.29-2.12.88c-.58.58-.88,1.29-.88,2.12s.29,1.54.88,2.12c.58.59,1.29.88,2.12.88ZM4,20c-.55,0-1.02-.2-1.41-.59-.39-.39-.59-.86-.59-1.41V6c0-.55.2-1.02.59-1.41.39-.39.86-.59,1.41-.59h16c.55,0,1.02.2,1.41.59.39.39.59.86.59,1.41v12c0,.55-.2,1.02-.59,1.41-.39.39-.86.59-1.41.59H4ZM5.75,18h12.5c-.75-.93-1.66-1.67-2.73-2.2-1.07-.53-2.24-.8-3.52-.8s-2.46.27-3.52.8c-1.07.53-1.98,1.27-2.73,2.2Z"/>
</svg>