<?xml version="1.0" encoding="UTF-8"?>
<svg id="Layer_1" data-name="Layer 1" xmlns="http://www.w3.org/2000/svg" viewBox="0 0 24 24">
  <defs>
    <style>
      .cls-1 {
        fill: #333;
      }
    </style>
  </defs>
  <path class="cls-1" d="M2,20v-3h2V6c0-.55.2-1.02.59-1.41.39-.39.86-.59,1.41-.59h15v2H6v11h6v3H2ZM15,20c-.28,0-.52-.1-.71-.29-.19-.19-.29-.43-.29-.71v-10c0-.28.1-.52.29-.71.19-.19.43-.29.71-.29h6c.28,0,.52.1.71.29.19.19.29.43.29.71v10c0,.28-.1.52-.29.71-.19.19-.43.29-.71.29h-6Z"/>
</svg>