<?xml version="1.0" encoding="UTF-8"?>
<svg id="Layer_1" data-name="Layer 1" xmlns="http://www.w3.org/2000/svg" viewBox="0 0 24 24">
  <defs>
    <style>
      .cls-1 {
        fill: #333;
        fill-rule: evenodd;
      }
    </style>
  </defs>
  <path class="cls-1" d="M5.59,22.41c.39.39.86.59,1.41.59h10c.55,0,1.02-.2,1.41-.59.39-.39.59-.86.59-1.41V3c0-.55-.2-1.02-.59-1.41-.39-.39-.86-.59-1.41-.59H7c-.55,0-1.02.2-1.41.59-.39.39-.59.86-.59,1.41v18c0,.55.2,1.02.59,1.41ZM17,18H7V6h10v12ZM13.86,8.76c.28,0-.05.82-.24.88-.16,0-.92.39-1.18.96-.19.41.14.99.14.99,0,0,1.54-.88,3.12-1.13-.6-1.44-2.03-2.46-3.7-2.46-2.21,0-4.01,1.79-4.01,4,0,.2.02.4.04.59.53-.12,1.29-.45,2.33-1.2.58-.41,1.04-.89,1.46-1.33.68-.71,1.25-1.3,2.03-1.3h0ZM13.41,14.07c.26-.78-.63-2.1-.63-2.1h0c1.23-.74,2.26-1.08,3.03-1.22.12.39.18.79.18,1.22,0,2.22-1.8,4.03-4.01,4.03-1.72,0-3.18-1.09-3.76-2.61,1.38-.39,3.74-2.52,3.74-2.52l.21.87-.83.58s-3.32,2.43-.86,2.88c1.18.18,2.74-.41,2.91-1.12h0ZM12.35,12.33s.29.69.05,1.3c-.24.6-1.3,1.11-1.66.92h0c-.51-.27.8-1.72,1.61-2.22Z"/>
</svg>