<?xml version="1.0" encoding="UTF-8"?>
<svg id="Layer_1" data-name="Layer 1" xmlns="http://www.w3.org/2000/svg" viewBox="0 0 24 24">
  <defs>
    <style>
      .cls-1 {
        fill: #333;
      }
    </style>
  </defs>
  <path class="cls-1" d="M5,22c-.55,0-1.02-.2-1.41-.59-.39-.39-.59-.86-.59-1.41V6c0-.55.2-1.02.59-1.41.39-.39.86-.59,1.41-.59h1v-2h2v2h8v-2h2v2h1c.55,0,1.02.2,1.41.59.39.39.59.86.59,1.41v5h-2v-1H5v10h7v2h-7ZM14,22v-3.07l5.52-5.5c.15-.15.32-.26.5-.33.18-.07.37-.1.55-.1.2,0,.39.04.57.11.18.08.35.19.5.34l.93.93c.13.14.24.31.31.5.08.18.11.36.11.55,0,.18-.03.37-.1.56-.07.19-.17.36-.32.51l-5.5,5.5h-3.08ZM20.58,16.4l.92-.97-.92-.93-.95.95.95.95Z"/>
</svg>