<?xml version="1.0" encoding="UTF-8"?>
<svg id="Layer_1" data-name="Layer 1" xmlns="http://www.w3.org/2000/svg" viewBox="0 0 24 24">
  <defs>
    <style>
      .cls-1 {
        fill: #333;
        fill-rule: evenodd;
      }
    </style>
  </defs>
  <path class="cls-1" d="M12,3.8c2.67,0,2.99.01,4.04.06.63.01,1.26.12,1.86.35.43.16.83.41,1.15.75.33.32.59.71.75,1.15.22.59.34,1.22.35,1.85.05,1.06.06,1.38.06,4.04s-.01,2.99-.06,4.04c0,.64-.12,1.27-.35,1.86-.17.43-.42.82-.75,1.15-.33.33-.72.58-1.15.75-.59.22-1.22.33-1.86.34-1.05.05-1.38.06-4.04.06s-2.99-.01-4.04-.06c-.63-.01-1.26-.12-1.86-.34-.43-.16-.83-.42-1.15-.75-.33-.32-.59-.72-.75-1.15-.22-.6-.34-1.22-.35-1.86-.05-1.05-.06-1.37-.06-4.04s.01-2.99.06-4.04c0-.64.12-1.26.35-1.86.16-.43.42-.83.75-1.15.32-.33.72-.59,1.15-.75.6-.22,1.22-.33,1.86-.34,1.05-.05,1.37-.06,4.04-.06h0ZM12,2c-2.72,0-3.06,0-4.12.06-.83.02-1.65.17-2.42.46-.67.26-1.27.65-1.77,1.16-.51.5-.9,1.1-1.15,1.77-.29.78-.45,1.6-.46,2.43-.05,1.06-.06,1.4-.06,4.12s.01,3.06.06,4.12c.02.83.17,1.65.46,2.43.25.67.64,1.27,1.15,1.77.5.51,1.1.9,1.77,1.16.78.29,1.6.44,2.43.46,1.07.05,1.41.06,4.12.06s3.06,0,4.12-.06c.83-.02,1.65-.17,2.43-.46.67-.26,1.27-.66,1.77-1.16.5-.5.9-1.11,1.15-1.77.29-.78.45-1.6.46-2.43.05-1.06.06-1.4.06-4.12s-.01-3.06-.06-4.13c-.02-.83-.18-1.64-.47-2.42-.25-.67-.64-1.27-1.15-1.77-.5-.51-1.1-.9-1.77-1.16-.78-.29-1.6-.44-2.43-.46-1.07-.05-1.41-.06-4.12-.06ZM12,6.87c-1.02,0-2.01.3-2.85.86-.84.56-1.5,1.37-1.89,2.31-.39.93-.49,1.97-.29,2.96.2,1,.69,1.91,1.4,2.63.72.72,1.63,1.21,2.63,1.41,1,.19,2.03.09,2.97-.3.94-.38,1.74-1.04,2.3-1.89.56-.84.86-1.83.86-2.85,0-.67-.13-1.34-.39-1.96-.26-.63-.64-1.19-1.11-1.67-.48-.48-1.04-.86-1.67-1.11-.62-.26-1.29-.39-1.96-.39ZM12,15.33c-.66,0-1.3-.19-1.85-.56-.55-.36-.98-.88-1.23-1.49-.25-.61-.32-1.28-.19-1.93.13-.65.45-1.24.91-1.71.47-.46,1.06-.78,1.71-.91.65-.13,1.32-.06,1.93.19.61.25,1.13.68,1.5,1.23.37.55.56,1.19.56,1.85,0,.88-.35,1.73-.98,2.36-.62.62-1.47.97-2.36.97ZM18.54,6.66c0,.67-.54,1.2-1.2,1.2s-1.2-.53-1.2-1.2.54-1.2,1.2-1.2,1.2.54,1.2,1.2Z"/>
</svg>