<?xml version="1.0" encoding="UTF-8"?>
<svg id="Layer_1" data-name="Layer 1" xmlns="http://www.w3.org/2000/svg" viewBox="0 0 24 24">
  <defs>
    <style>
      .cls-1 {
        fill: #333;
      }
    </style>
  </defs>
  <path class="cls-1" d="M2,23v-2h20v2H2ZM4,20v-6c-.55-.9-.98-1.85-1.27-2.86-.3-1.01-.45-2.04-.45-3.09s.13-2.02.39-3c.26-.98.56-1.95.91-2.9.13-.35.35-.63.65-.84.3-.21.63-.31,1-.31.52,0,.96.18,1.32.53.37.35.52.76.45,1.24l-.27,2.28c-.1.8-.03,1.56.21,2.28.24.71.6,1.34,1.09,1.88s1.07.98,1.75,1.3c.68.33,1.43.49,2.23.49,1,0,2,.1,3.01.31,1.01.21,1.89.51,2.64.89.75.38,1.33.87,1.74,1.46.41.59.61,1.32.61,2.19v4.15h-10v-.92c0-.57.19-1.06.58-1.47.38-.41.86-.61,1.42-.61h4v-2h-4c-1.12,0-2.06.4-2.84,1.2-.77.8-1.16,1.76-1.16,2.88v.92h-4ZM12,10c-1.1,0-2.04-.39-2.83-1.17-.78-.79-1.17-1.73-1.17-2.83s.39-2.04,1.17-2.83c.78-.78,1.73-1.17,2.83-1.17s2.04.39,2.83,1.17c.78.79,1.17,1.73,1.17,2.83s-.39,2.04-1.17,2.83c-.78.78-1.73,1.17-2.83,1.17Z"/>
</svg>