<?xml version="1.0" encoding="UTF-8"?>
<svg id="Layer_1" data-name="Layer 1" xmlns="http://www.w3.org/2000/svg" viewBox="0 0 24 24">
  <defs>
    <style>
      .cls-1 {
        fill: #333;
      }
    </style>
  </defs>
  <path class="cls-1" d="M19.95,21c-2.08,0-4.14-.45-6.18-1.36-2.03-.91-3.88-2.2-5.55-3.86-1.67-1.67-2.95-3.52-3.86-5.56-.91-2.03-1.36-4.09-1.36-6.17,0-.3.1-.55.3-.75.2-.2.45-.3.75-.3h4.05c.23,0,.44.08.62.24.18.16.29.34.32.56l.65,3.5c.03.27.02.49-.03.67-.05.19-.14.35-.27.48l-2.42,2.45c.33.62.73,1.21,1.19,1.79.46.57.96,1.13,1.51,1.66.52.52,1.06,1,1.62,1.44.57.44,1.17.84,1.8,1.21l2.35-2.35c.15-.15.35-.26.59-.34.24-.07.48-.09.71-.06l3.45.7c.23.07.42.19.57.36.15.18.23.37.23.59v4.05c0,.3-.1.55-.3.75-.2.2-.45.3-.75.3Z"/>
</svg>