<?xml version="1.0" encoding="UTF-8"?>
<svg id="Layer_1" data-name="Layer 1" xmlns="http://www.w3.org/2000/svg" viewBox="0 0 24 24">
  <defs>
    <style>
      .cls-1 {
        fill: #333;
      }
    </style>
  </defs>
  <path class="cls-1" d="M9.11,19.32v-2.65h12.38v2.65h-12.38ZM9.11,13.32v-2.65h12.38v2.65h-12.38ZM9.11,7.32v-2.65h12.38v2.65h-12.38ZM4.81,20.3c-.63,0-1.17-.23-1.62-.68-.45-.45-.67-.99-.67-1.62s.22-1.18.67-1.62c.45-.45.99-.68,1.62-.68s1.17.23,1.62.68c.45.45.67.99.67,1.62s-.23,1.18-.68,1.62c-.45.45-.99.68-1.62.68ZM4.81,14.3c-.63,0-1.17-.23-1.62-.68-.45-.45-.67-.99-.67-1.62s.22-1.18.67-1.62c.45-.45.99-.68,1.62-.68s1.17.23,1.62.68c.45.45.67.99.67,1.62s-.23,1.18-.68,1.62c-.45.45-.99.68-1.62.68ZM4.81,8.3c-.63,0-1.17-.23-1.62-.68-.45-.45-.67-.99-.67-1.62s.22-1.18.67-1.62c.45-.45.99-.68,1.62-.68s1.17.23,1.62.68c.45.45.67.99.67,1.62s-.23,1.18-.68,1.62c-.45.45-.99.68-1.62.68Z"/>
</svg>