<?xml version="1.0" encoding="UTF-8"?>
<svg id="Layer_1" data-name="Layer 1" xmlns="http://www.w3.org/2000/svg" viewBox="0 0 24 24">
  <defs>
    <style>
      .cls-1 {
        fill: #333;
      }
    </style>
  </defs>
  <path class="cls-1" d="M10.79,23.4v-2c-2.11-.24-3.95-1.15-5.5-2.71-1.56-1.57-2.45-3.39-2.69-5.48H.6v-2.42h2c.24-2.11,1.15-3.95,2.71-5.51,1.57-1.55,3.39-2.45,5.48-2.68V.6h2.42v2c2.08.23,3.91,1.13,5.48,2.68,1.57,1.56,2.47,3.4,2.71,5.51h2v2.42h-2c-.23,2.09-1.13,3.91-2.69,5.48-1.56,1.56-3.39,2.47-5.5,2.71v2h-2.42ZM12,18.83c1.9,0,3.51-.66,4.84-1.99,1.33-1.33,1.99-2.94,1.99-4.84s-.66-3.51-1.99-4.84c-1.33-1.33-2.94-1.99-4.84-1.99s-3.51.66-4.84,1.99c-1.33,1.33-1.99,2.94-1.99,4.84s.67,3.51,1.99,4.84c1.33,1.33,2.94,1.99,4.84,1.99ZM12,16c-1.1,0-2.04-.39-2.83-1.18-.78-.78-1.17-1.72-1.17-2.82s.39-2.04,1.17-2.83c.78-.78,1.73-1.17,2.83-1.17s2.04.39,2.83,1.17c.78.79,1.17,1.73,1.17,2.83s-.39,2.04-1.17,2.82c-.78.79-1.73,1.18-2.83,1.18Z"/>
</svg>