<?xml version="1.0" encoding="UTF-8"?>
<svg id="Layer_1" data-name="Layer 1" xmlns="http://www.w3.org/2000/svg" viewBox="0 0 24 24">
  <defs>
    <style>
      .cls-1 {
        fill: #333;
      }
    </style>
  </defs>
  <path class="cls-1" d="M12,12c.55,0,1.02-.2,1.41-.59.39-.39.59-.86.59-1.41s-.2-1.02-.59-1.41c-.39-.39-.86-.59-1.41-.59s-1.02.2-1.41.59c-.39.39-.59.86-.59,1.41s.2,1.02.59,1.41c.39.39.86.59,1.41.59ZM12,22c-2.68-2.28-4.69-4.4-6.01-6.36-1.33-1.96-1.99-3.77-1.99-5.44,0-2.5.8-4.49,2.41-5.97,1.61-1.49,3.47-2.23,5.59-2.23s3.98.74,5.59,2.23c1.61,1.48,2.41,3.47,2.41,5.97,0,1.67-.66,3.48-1.99,5.44-1.32,1.96-3.33,4.08-6.01,6.36Z"/>
</svg>