<?xml version="1.0" encoding="UTF-8"?>
<svg id="Layer_1" data-name="Layer 1" xmlns="http://www.w3.org/2000/svg" viewBox="0 0 24 24">
  <defs>
    <style>
      .cls-1 {
        fill: #333;
      }
    </style>
  </defs>
  <path class="cls-1" d="M15,21l-6-2.1-4.65,1.8c-.33.13-.64.1-.93-.11-.28-.21-.42-.49-.42-.84V5.75c0-.22.06-.41.19-.58.12-.16.3-.29.51-.37l5.3-1.8,6,2.1,4.65-1.8c.33-.13.64-.1.93.11.28.21.42.49.42.84v14c0,.22-.06.41-.19.57-.12.17-.3.3-.51.38l-5.3,1.8ZM14,18.55V6.85l-4-1.4v11.7l4,1.4Z"/>
</svg>