<?xml version="1.0" encoding="UTF-8"?>
<svg id="Layer_1" data-name="Layer 1" xmlns="http://www.w3.org/2000/svg" viewBox="0 0 24 24">
  <defs>
    <style>
      .cls-1 {
        fill: #333;
      }
    </style>
  </defs>
  <path class="cls-1" d="M12.04,22c-.95,0-1.79-.3-2.52-.9s-1.19-1.37-1.38-2.3c-.88.28-1.77.27-2.67-.05s-1.59-.87-2.08-1.65c-.5-.8-.68-1.69-.55-2.66.13-.98.57-1.79,1.3-2.44-.7-.63-1.12-1.42-1.26-2.35-.14-.93.01-1.8.46-2.6.45-.8,1.13-1.38,2.04-1.74.91-.36,1.81-.39,2.71-.11.18-.93.64-1.7,1.38-2.3s1.57-.9,2.52-.9,1.79.3,2.52.9,1.19,1.37,1.38,2.3c.93-.28,1.84-.26,2.71.08.88.33,1.55.92,2.04,1.77.45.83.61,1.7.49,2.61-.12.91-.55,1.69-1.29,2.34.73.65,1.17,1.45,1.31,2.41.14.96-.01,1.86-.46,2.69-.48.85-1.16,1.42-2.04,1.7-.88.28-1.78.28-2.71,0-.18.93-.64,1.7-1.38,2.3s-1.58.9-2.53.9ZM11.99,16c1.1,0,2.04-.39,2.83-1.18.78-.78,1.17-1.72,1.17-2.82s-.39-2.04-1.17-2.82c-.78-.79-1.73-1.18-2.83-1.18s-2.04.39-2.83,1.18c-.78.78-1.17,1.72-1.17,2.82s.39,2.04,1.17,2.82c.78.79,1.73,1.18,2.83,1.18Z"/>
</svg>