<?xml version="1.0" encoding="UTF-8"?>
<svg id="Layer_1" data-name="Layer 1" xmlns="http://www.w3.org/2000/svg" viewBox="0 0 24 24">
  <defs>
    <style>
      .cls-1 {
        fill: #333;
      }
    </style>
  </defs>
  <path class="cls-1" d="M11.1,19h1.75v-1.25c.83-.15,1.55-.47,2.15-.97s.9-1.25.9-2.23c0-.7-.2-1.34-.6-1.93-.4-.58-1.2-1.09-2.4-1.52-1-.33-1.69-.62-2.07-.87-.38-.25-.58-.6-.58-1.03s.15-.77.46-1.02c.31-.25.75-.38,1.34-.38.53,0,.95.13,1.25.39.3.26.52.58.65.96l1.6-.65c-.18-.58-.52-1.09-1.01-1.53-.49-.43-1.04-.67-1.64-.72v-1.25h-1.75v1.25c-.83.18-1.48.55-1.95,1.1-.47.55-.7,1.17-.7,1.85,0,.78.23,1.42.69,1.9.46.48,1.18.9,2.16,1.25,1.05.38,1.78.72,2.19,1.03.41.3.61.69.61,1.17,0,.55-.2.95-.59,1.21-.39.26-.86.39-1.41.39s-1.04-.17-1.46-.51c-.43-.34-.74-.86-.94-1.54l-1.65.65c.23.8.6,1.45,1.09,1.94.49.49,1.13.83,1.91,1.01v1.3ZM12,22c-1.38,0-2.68-.26-3.9-.79-1.22-.52-2.27-1.23-3.18-2.13-.9-.9-1.61-1.96-2.14-3.18-.53-1.22-.79-2.52-.79-3.9s.26-2.68.79-3.9c.52-1.22,1.24-2.27,2.14-3.18.9-.9,1.96-1.61,3.18-2.13,1.22-.53,2.52-.79,3.9-.79s2.68.26,3.9.79c1.22.52,2.27,1.23,3.18,2.13.9.91,1.61,1.96,2.14,3.18.52,1.22.79,2.52.79,3.9s-.26,2.68-.79,3.9c-.52,1.22-1.24,2.28-2.14,3.18-.9.9-1.96,1.61-3.18,2.13-1.22.53-2.52.79-3.9.79Z"/>
</svg>