<?xml version="1.0" encoding="UTF-8"?>
<svg id="Layer_1" data-name="Layer 1" xmlns="http://www.w3.org/2000/svg" viewBox="0 0 24 24">
  <defs>
    <style>
      .cls-1 {
        fill: #333;
      }
    </style>
  </defs>
  <path class="cls-1" d="M12,2.52c1.31,0,2.54.25,3.68.75,1.15.5,2.15,1.18,3.01,2.04.86.85,1.54,1.86,2.04,3.01.5,1.14.75,2.37.75,3.68s-.25,2.54-.75,3.68c-.5,1.15-1.18,2.16-2.04,3.01-.86.86-1.86,1.54-3.01,2.04-1.15.5-2.38.75-3.68.75-.75,0-1.47-.08-2.17-.25-.69-.17-1.38-.43-2.05-.77l1.99-1.99c.35.12.72.21,1.09.27.37.06.75.09,1.13.09,1.9,0,3.51-.66,4.84-1.99,1.33-1.33,1.99-2.94,1.99-4.84s-.67-3.51-1.99-4.84c-1.33-1.33-2.94-1.99-4.84-1.99s-3.51.66-4.84,1.99c-1.33,1.33-1.99,2.94-1.99,4.84,0,.38.03.76.09,1.13.06.37.15.74.26,1.09l-1.98,1.98c-.37-.64-.63-1.32-.79-2.02-.16-.71-.24-1.43-.24-2.18,0-1.31.25-2.54.75-3.68.5-1.15,1.18-2.16,2.04-3.01.86-.86,1.86-1.54,3.01-2.04,1.15-.5,2.38-.75,3.68-.75ZM12.89,16.11v-3.46l-8.49,8.51-1.55-1.56,8.5-8.49h-3.46v-2.22h7.23v7.22h-2.23Z"/>
</svg>