<?xml version="1.0" encoding="UTF-8"?>
<svg id="Layer_1" data-name="Layer 1" xmlns="http://www.w3.org/2000/svg" viewBox="0 0 24 24">
  <defs>
    <style>
      .cls-1 {
        fill: #333;
      }
    </style>
  </defs>
  <path class="cls-1" d="M0,18v-1.57c0-.72.37-1.31,1.1-1.75.73-.45,1.7-.68,2.9-.68.22,0,.42,0,.62.01s.39.03.58.06c-.23.36-.41.72-.53,1.11-.12.38-.17.78-.17,1.2v1.62H0ZM6,18v-1.62c0-.54.15-1.03.44-1.47.29-.44.7-.83,1.24-1.16.53-.33,1.17-.58,1.91-.75.74-.17,1.54-.25,2.41-.25s1.7.08,2.44.25c.74.17,1.38.42,1.91.75.53.33.94.72,1.23,1.16.28.44.42.93.42,1.47v1.62H6ZM19.5,18v-1.62c0-.44-.05-.85-.16-1.23-.11-.38-.27-.74-.49-1.08.18-.03.37-.05.56-.06.19-.01.39-.01.59-.01,1.2,0,2.17.22,2.9.66.73.44,1.1,1.03,1.1,1.77v1.57h-4.5ZM4,13c-.55,0-1.02-.2-1.41-.59-.39-.39-.59-.86-.59-1.41s.2-1.04.59-1.42c.39-.39.86-.58,1.41-.58s1.04.19,1.42.58c.38.38.58.85.58,1.42s-.19,1.02-.58,1.41c-.38.39-.86.59-1.42.59ZM20,13c-.55,0-1.02-.2-1.41-.59-.39-.39-.59-.86-.59-1.41s.2-1.04.59-1.42c.39-.39.86-.58,1.41-.58s1.04.19,1.42.58c.38.38.58.85.58,1.42s-.19,1.02-.58,1.41c-.38.39-.86.59-1.42.59ZM12,12c-.83,0-1.54-.29-2.12-.88-.58-.58-.88-1.29-.88-2.12s.29-1.56.88-2.14c.58-.57,1.29-.86,2.12-.86s1.56.29,2.14.86c.58.58.86,1.29.86,2.14s-.29,1.54-.86,2.12c-.57.59-1.29.88-2.14.88Z"/>
</svg>