<?xml version="1.0" encoding="UTF-8"?>
<svg id="Layer_1" data-name="Layer 1" xmlns="http://www.w3.org/2000/svg" viewBox="0 0 24 24">
  <defs>
    <style>
      .cls-1 {
        fill: #333;
      }
    </style>
  </defs>
  <path class="cls-1" d="M5.07,21.2c-.63,0-1.17-.22-1.61-.66-.44-.44-.67-.98-.67-1.61V5.07c0-.63.22-1.17.67-1.61.44-.44.98-.66,1.61-.66h6.93v2.28h-6.93v13.86h13.86v-6.93h2.27v6.93c0,.63-.22,1.17-.67,1.61-.44.44-.98.66-1.61.66H5.07ZM9.89,15.7l-1.59-1.59,9.04-9.04h-3.34v-2.28h7.2v7.2h-2.27v-3.34l-9.04,9.04Z"/>
</svg>