<?xml version="1.0" encoding="UTF-8"?>
<svg id="Layer_1" data-name="Layer 1" xmlns="http://www.w3.org/2000/svg" viewBox="0 0 24 24">
  <defs>
    <style>
      .cls-1 {
        fill: #333;
      }
    </style>
  </defs>
  <path class="cls-1" d="M15.75,16v-2.8l-1.9-3.47c-.33.16-.6.4-.8.72-.2.32-.3.67-.3,1.05v8l1.42,2.5h7.83l-1-12.5L14,1.5l-.33.33c-.48.48-.77,1.05-.86,1.7-.09.65.03,1.26.36,1.85l4.08,7.42v3.2h-1.5ZM6.75,16v-3.2l4.08-7.42c.33-.59.45-1.2.34-1.85-.11-.65-.4-1.22-.86-1.7l-.3-.33L3,9.5l-1,12.5h7.83l1.42-2.5v-8c0-.38-.1-.73-.31-1.05-.21-.32-.47-.56-.79-.72l-1.9,3.47v2.8h-1.5Z"/>
</svg>