<?xml version="1.0" encoding="UTF-8"?>
<svg id="Layer_1" data-name="Layer 1" xmlns="http://www.w3.org/2000/svg" viewBox="0 0 24 24">
  <defs>
    <style>
      .cls-1 {
        fill: #333;
      }
    </style>
  </defs>
  <path class="cls-1" d="M12,23l-3-3h-4c-.55,0-1.02-.2-1.41-.59-.39-.39-.59-.86-.59-1.41V4c0-.55.2-1.02.59-1.41.39-.39.86-.59,1.41-.59h14c.55,0,1.02.2,1.41.59.39.39.59.86.59,1.41v14c0,.55-.2,1.02-.59,1.41-.39.39-.86.59-1.41.59h-4l-3,3ZM11.9,17c.35,0,.65-.12.89-.36.24-.24.36-.54.36-.89s-.12-.65-.36-.89c-.24-.24-.54-.36-.89-.36s-.65.12-.89.36c-.24.24-.36.54-.36.89s.12.65.36.89c.24.24.54.36.89.36ZM11,13.15h1.85c0-.28.01-.53.04-.72.02-.2.08-.4.16-.58.08-.18.19-.35.31-.51.12-.16.3-.36.54-.59.58-.58,1-1.07,1.24-1.46.24-.39.36-.84.36-1.34,0-.88-.3-1.6-.9-2.14-.6-.54-1.41-.81-2.43-.81-.92,0-1.7.22-2.34.67-.64.45-1.09,1.08-1.34,1.88l1.65.65c.12-.45.35-.81.7-1.09.35-.27.76-.41,1.23-.41s.82.12,1.12.36c.3.24.45.56.45.97,0,.28-.09.58-.27.9-.18.31-.49.66-.92,1.04-.28.24-.51.47-.69.69-.17.23-.32.46-.44.72-.12.24-.2.51-.25.78-.05.28-.08.61-.08.99Z"/>
</svg>