<?xml version="1.0" encoding="UTF-8"?>
<svg id="Layer_1" data-name="Layer 1" xmlns="http://www.w3.org/2000/svg" viewBox="0 0 24 24">
  <defs>
    <style>
      .cls-1 {
        fill: #333;
      }
    </style>
  </defs>
  <path class="cls-1" d="M12,22c-1.57-.2-2.97-.6-4.2-1.2-1.23-.6-2.28-1.38-3.14-2.35-.86-.97-1.51-2.09-1.96-3.36-.45-1.28-.68-2.69-.68-4.24,1.83.18,3.38.52,4.65,1s2.3,1.17,3.09,2.05c.79.88,1.36,1.99,1.71,3.31.35,1.33.52,2.92.52,4.79ZM12,13.57c-.38-.58-.9-1.15-1.56-1.72-.66-.57-1.42-1.08-2.29-1.55.1-.7.27-1.42.5-2.18.23-.74.52-1.48.85-2.21.33-.72.71-1.42,1.14-2.08.43-.67.88-1.28,1.36-1.83.48.55.94,1.16,1.36,1.83.42.66.8,1.36,1.14,2.08.33.73.62,1.47.85,2.21.23.76.4,1.48.5,2.18-.87.45-1.63.96-2.29,1.52-.66.57-1.18,1.15-1.56,1.75ZM14,21.6c-.03-1.17-.12-2.25-.26-3.24-.14-.99-.36-1.93-.66-2.81.78-1.35,1.86-2.45,3.24-3.3s3.26-1.32,5.66-1.4c.02,2.63-.69,4.9-2.11,6.81-1.42,1.91-3.38,3.22-5.86,3.94Z"/>
</svg>