<?xml version="1.0" encoding="UTF-8"?>
<svg id="Layer_1" data-name="Layer 1" xmlns="http://www.w3.org/2000/svg" viewBox="0 0 24 24">
  <defs>
    <style>
      .cls-1 {
        fill: #333;
      }
    </style>
  </defs>
  <path class="cls-1" d="M19.57,21.43l-6.4-6.4c-.49.36-1.06.65-1.7.86-.64.22-1.34.32-2.08.32-1.9,0-3.51-.66-4.84-1.98-1.32-1.33-1.99-2.94-1.99-4.84s.66-3.51,1.99-4.84c1.32-1.32,2.94-1.99,4.84-1.99s3.51.67,4.84,1.99c1.32,1.33,1.99,2.94,1.99,4.84,0,.75-.11,1.45-.32,2.08-.21.64-.5,1.2-.87,1.68l6.41,6.42-1.87,1.86ZM9.39,13.57c1.17,0,2.15-.4,2.96-1.21.81-.81,1.21-1.79,1.21-2.96s-.4-2.15-1.21-2.96c-.81-.81-1.8-1.22-2.96-1.22s-2.15.41-2.96,1.22c-.81.81-1.21,1.79-1.21,2.96s.4,2.15,1.21,2.96c.81.81,1.8,1.21,2.96,1.21Z"/>
</svg>