<?xml version="1.0" encoding="UTF-8"?>
<svg id="Layer_1" data-name="Layer 1" xmlns="http://www.w3.org/2000/svg" viewBox="0 0 24 24">
  <defs>
    <style>
      .cls-1 {
        fill: #333;
      }
    </style>
  </defs>
  <path class="cls-1" d="M7.91,7.64c-1.05-1.03-1.05-2.79,0-3.86,1.09-1.04,2.79-1.04,3.88,0l.65.64.62-.64c1.09-1.04,2.79-1.04,3.88,0,1.05,1.07,1.05,2.83,0,3.86l-3.7,3.72c-.22.22-.51.33-.8.33-.33,0-.62-.11-.83-.33l-3.7-3.72ZM22.59,14.8c.47.64.33,1.54-.33,2l-4.57,3.33c-.87.61-1.89.93-2.94.93H3.16c-.65,0-1.16-.5-1.16-1.14v-2.29c0-.61.51-1.15,1.16-1.15h1.3l1.63-1.29c.83-.64,1.85-1,2.9-1h5.76c.62,0,1.16.54,1.16,1.15,0,.64-.54,1.14-1.16,1.14h-2.9c-.33,0-.58.29-.58.57,0,.33.25.58.58.58h4.35l4.35-3.15c.65-.47,1.56-.32,2.03.32ZM9,16.48h-.04.04Z"/>
</svg>