<?xml version="1.0" encoding="UTF-8"?>
<svg id="Layer_1" data-name="Layer 1" xmlns="http://www.w3.org/2000/svg" viewBox="0 0 24 24">
  <defs>
    <style>
      .cls-1 {
        fill: #333;
      }
    </style>
  </defs>
  <path class="cls-1" d="M6.07,23.24c-.63,0-1.17-.22-1.61-.67-.44-.44-.67-.98-.67-1.61v-10.59c0-.63.22-1.17.67-1.61.44-.44.98-.66,1.61-.66h2.79v2.27h-2.79v10.59h11.86v-10.59h-2.79v-2.27h2.79c.63,0,1.17.22,1.61.66.44.44.67.98.67,1.61v10.59c0,.63-.22,1.17-.67,1.61-.44.44-.98.67-1.61.67H6.07ZM10.86,16.21V5.11l-1.6,1.6-1.59-1.61L12,.76l4.33,4.34-1.59,1.61-1.6-1.6v11.1h-2.27Z"/>
</svg>