<?xml version="1.0" encoding="UTF-8"?>
<svg id="Layer_1" data-name="Layer 1" xmlns="http://www.w3.org/2000/svg" viewBox="0 0 24 24">
  <defs>
    <style>
      .cls-1 {
        fill: #333;
        fill-rule: evenodd;
      }
    </style>
  </defs>
  <path class="cls-1" d="M6.29,17.71c.19.19.43.29.71.29h11l4,4V7c0-.28-.1-.52-.29-.71-.19-.19-.43-.29-.71-.29h-2v9H6v2c0,.28.1.52.29.71ZM2,3v14l4-4h10c.28,0,.52-.1.71-.29.19-.19.29-.43.29-.71V3c0-.28-.1-.52-.29-.71-.19-.19-.43-.29-.71-.29H3c-.28,0-.52.1-.71.29-.19.19-.29.43-.29.71ZM7.45,5.45c-.6.62-.6,1.63,0,2.22l2.09,2.14c.12.13.29.19.47.19.16,0,.33-.06.45-.19l2.09-2.14c.6-.59.6-1.6,0-2.22-.62-.6-1.58-.6-2.19,0l-.35.37-.37-.37c-.61-.6-1.58-.6-2.19,0Z"/>
</svg>