<?xml version="1.0" encoding="UTF-8"?>
<svg id="Layer_1" data-name="Layer 1" xmlns="http://www.w3.org/2000/svg" viewBox="0 0 24 24">
  <defs>
    <style>
      .cls-1 {
        fill: #333;
      }
    </style>
  </defs>
  <path class="cls-1" d="M12,16c-1.15,0-2.23.18-3.23.53-1,.35-1.92.84-2.77,1.47v2h12v-2c-.85-.63-1.77-1.12-2.77-1.47-1-.35-2.08-.53-3.23-.53ZM6,22c-.55,0-1.02-.2-1.41-.59-.39-.39-.59-.86-.59-1.41V4c0-.55.2-1.02.59-1.41.39-.39.86-.59,1.41-.59h12c.55,0,1.02.2,1.41.59.39.39.59.86.59,1.41v16c0,.55-.2,1.02-.59,1.41-.39.39-.86.59-1.41.59H6ZM12,14c.97,0,1.79-.34,2.48-1.02.68-.69,1.02-1.51,1.02-2.48s-.34-1.79-1.02-2.47c-.68-.69-1.51-1.03-2.48-1.03s-1.79.34-2.48,1.03c-.68.68-1.02,1.5-1.02,2.47s.34,1.79,1.02,2.48c.68.68,1.51,1.02,2.48,1.02Z"/>
</svg>