<?xml version="1.0" encoding="UTF-8"?>
<svg id="Layer_1" data-name="Layer 1" xmlns="http://www.w3.org/2000/svg" viewBox="0 0 24 24">
  <defs>
    <style>
      .cls-1 {
        fill: #333;
      }
    </style>
  </defs>
  <path class="cls-1" d="M6.47.77c1.41,0,2.55.63,3.43,1.87.88,1.24,1.32,2.69,1.32,4.33,0,.54-.05,1.08-.16,1.61-.1.52-.23,1.04-.39,1.54l-7.89,1.61c-.27-.61-.51-1.32-.71-2.15-.2-.82-.31-1.7-.31-2.62,0-1.77.45-3.24,1.34-4.42.89-1.18,2.01-1.77,3.36-1.77ZM7.8,18.23c-1.14,0-2.06-.4-2.78-1.18-.72-.79-1.13-1.77-1.24-2.95l6.94-1.43c.14.32.26.66.35,1.03.09.36.14.72.14,1.07,0,.97-.32,1.79-.97,2.46-.64.66-1.46,1-2.46,1ZM17.53,5.77c1.35,0,2.47.59,3.36,1.77.89,1.18,1.34,2.65,1.34,4.42,0,.87-.1,1.7-.29,2.48-.19.78-.41,1.46-.65,2.03l-7.89-1.04c-.19-.57-.35-1.14-.46-1.71-.11-.58-.17-1.16-.17-1.75,0-1.64.44-3.09,1.32-4.33.88-1.24,2.02-1.87,3.43-1.87ZM16.2,23.23c-1,0-1.81-.34-2.46-1-.64-.67-.97-1.49-.97-2.46,0-.31.04-.63.12-.95.08-.31.18-.61.28-.89l7.03.94c-.07,1.24-.47,2.27-1.19,3.1-.72.84-1.66,1.26-2.83,1.26Z"/>
</svg>