<?xml version="1.0" encoding="UTF-8"?>
<svg id="Layer_1" data-name="Layer 1" xmlns="http://www.w3.org/2000/svg" viewBox="0 0 24 24">
  <defs>
    <style>
      .cls-1 {
        fill: #333;
      }
    </style>
  </defs>
  <path class="cls-1" d="M6,22c-.83,0-1.54-.29-2.12-.88-.58-.58-.88-1.29-.88-2.12v-3h3V2h15v17c0,.83-.29,1.54-.88,2.12-.58.59-1.29.88-2.12.88H6ZM18,20c.28,0,.52-.1.71-.29.19-.19.29-.43.29-.71V4h-11v12h9v3c0,.28.1.52.29.71.19.19.43.29.71.29ZM9,9v-2h9v2h-9ZM9,12v-2h9v2h-9Z"/>
</svg>