<?xml version="1.0" encoding="UTF-8"?>
<svg id="Layer_1" data-name="Layer 1" xmlns="http://www.w3.org/2000/svg" viewBox="0 0 24 24">
  <defs>
    <style>
      .cls-1 {
        fill: #333;
      }
    </style>
  </defs>
  <path class="cls-1" d="M9,3V1h6v2h-6ZM11,14h2v-6h-2v6ZM12,22c-1.23,0-2.4-.24-3.49-.71-1.09-.48-2.05-1.12-2.86-1.94-.82-.82-1.46-1.77-1.94-2.86-.48-1.09-.71-2.26-.71-3.49s.24-2.4.71-3.49c.47-1.09,1.12-2.04,1.94-2.86.82-.82,1.77-1.46,2.86-1.94,1.09-.47,2.25-.71,3.49-.71,1.03,0,2.02.17,2.98.5.95.33,1.84.82,2.67,1.45l1.4-1.4,1.4,1.4-1.4,1.4c.63.83,1.12,1.73,1.45,2.68s.5,1.94.5,2.97c0,1.23-.24,2.4-.71,3.49-.48,1.09-1.12,2.04-1.94,2.86-.82.82-1.77,1.46-2.86,1.94-1.09.47-2.26.71-3.49.71Z"/>
</svg>