<?xml version="1.0" encoding="UTF-8"?>
<svg id="Layer_1" data-name="Layer 1" xmlns="http://www.w3.org/2000/svg" viewBox="0 0 24 24">
  <defs>
    <style>
      .cls-1 {
        fill: #333;
      }
    </style>
  </defs>
  <path class="cls-1" d="M18.85,21.98c-.13,0-.26-.03-.38-.07-.12-.04-.23-.11-.33-.21l-5.1-5.1c-.1-.1-.17-.21-.21-.32-.04-.12-.06-.25-.06-.38s.02-.26.06-.37c.04-.12.11-.23.21-.33l2.12-2.13c.1-.1.21-.17.33-.21.12-.04.24-.06.38-.06s.26.02.38.06c.12.04.23.11.33.21l5.1,5.11c.1.1.17.2.21.32.04.12.06.24.06.38,0,.13-.02.25-.06.37-.04.12-.11.23-.21.33l-2.12,2.12c-.1.1-.21.17-.32.21-.12.04-.24.07-.38.07ZM5.12,22c-.13,0-.26-.02-.39-.07s-.24-.13-.34-.23l-2.1-2.1c-.1-.1-.17-.21-.22-.34-.05-.12-.08-.25-.08-.38,0-.14.02-.26.08-.38.05-.12.12-.22.22-.32l5.3-5.3h2.12l.85-.85-4.12-4.13h-1.43l-3.02-3.02,2.83-2.83,3.02,3.03v1.42l4.12,4.12,2.9-2.9-1.08-1.07,1.4-1.4h-2.83l-.7-.7,3.55-3.55.7.7v2.83l1.4-1.41,3.55,3.56c.28.28.5.6.65.96.15.36.23.74.23,1.14s-.08.78-.23,1.15c-.15.36-.37.69-.65.97l-2.12-2.12-1.4,1.4-1.05-1.06-5.17,5.18v2.1l-5.3,5.3c-.1.1-.21.18-.33.23s-.24.07-.38.07Z"/>
</svg>