<?xml version="1.0" encoding="UTF-8"?>
<svg id="Layer_1" data-name="Layer 1" xmlns="http://www.w3.org/2000/svg" viewBox="0 0 24 24">
  <defs>
    <style>
      .cls-1 {
        fill: #333;
      }
    </style>
  </defs>
  <path class="cls-1" d="M12,12c-1.1,0-2.04-.39-2.83-1.17-.78-.79-1.17-1.73-1.17-2.83s.39-2.04,1.17-2.82c.78-.79,1.73-1.18,2.83-1.18s2.04.39,2.83,1.18c.78.78,1.17,1.72,1.17,2.82s-.39,2.04-1.17,2.83c-.78.78-1.73,1.17-2.83,1.17ZM4,20v-2.8c0-.57.15-1.09.44-1.56.29-.48.68-.84,1.16-1.09,1.03-.52,2.08-.9,3.15-1.16s2.15-.39,3.25-.39,2.18.13,3.25.39,2.12.64,3.15,1.16c.48.25.87.61,1.16,1.09.29.47.44.99.44,1.56v2.8H4Z"/>
</svg>