<?xml version="1.0" encoding="UTF-8"?>
<svg id="Layer_1" data-name="Layer 1" xmlns="http://www.w3.org/2000/svg" viewBox="0 0 24 24">
  <defs>
    <style>
      .cls-1 {
        fill: #333;
      }
    </style>
  </defs>
  <path class="cls-1" d="M21.06,23l-2.62-2.63v1.76h-2.65v-6.3h6.3v2.65h-1.78l2.61,2.63-1.85,1.89ZM12,22.48c-1.45,0-2.81-.27-4.08-.82-1.27-.55-2.38-1.3-3.33-2.25-.95-.94-1.7-2.05-2.24-3.33-.55-1.27-.82-2.63-.82-4.08s.27-2.81.82-4.08c.55-1.28,1.3-2.39,2.24-3.33.95-.95,2.06-1.7,3.33-2.25,1.27-.55,2.64-.82,4.08-.82s2.81.27,4.08.82c1.27.55,2.38,1.3,3.33,2.25.95.94,1.7,2.05,2.24,3.33.55,1.27.82,2.63.82,4.08,0,.31-.02.61-.05.92-.03.3-.07.61-.12.91h-2.71c.07-.3.12-.61.15-.91.04-.31.05-.61.05-.92,0-.33-.02-.66-.06-.99-.04-.32-.1-.64-.19-.97h-3.29c.04.34.07.66.09.98.02.32.03.65.03.98,0,.31,0,.61-.03.92-.02.3-.04.61-.08.91h-2c.04-.3.06-.61.08-.91.02-.31.03-.61.03-.92,0-.33,0-.66-.02-.99-.02-.32-.05-.64-.1-.97h-4.55c-.05.33-.09.65-.11.97-.02.33-.04.66-.04.99s.01.66.04.99c.02.32.06.64.11.97h3.65v1.97h-3.2c.2.7.45,1.37.74,2.01.3.65.65,1.27,1.06,1.85.3,0,.61-.01.91-.05s.6-.08.91-.11v2.69c-.3.03-.6.07-.89.11-.29.03-.59.05-.89.05ZM4.41,13.96h3.31c-.05-.33-.09-.65-.11-.97-.02-.33-.04-.66-.04-.99s.01-.66.04-.99c.02-.32.06-.64.11-.97h-3.3c-.08.33-.15.65-.19.97-.04.33-.06.66-.06.99s.02.66.06.99c.04.32.1.64.18.97ZM5.26,8.08h2.87c.15-.6.32-1.2.53-1.78.21-.58.47-1.15.79-1.69-.91.29-1.72.73-2.42,1.33-.71.59-1.3,1.31-1.76,2.14ZM9.44,19.39c-.32-.53-.58-1.1-.79-1.68-.21-.59-.38-1.18-.53-1.78h-2.87c.46.82,1.05,1.53,1.77,2.13.72.6,1.52,1.04,2.42,1.33ZM10.17,8.08h3.64c-.2-.7-.46-1.38-.77-2.02-.31-.63-.67-1.25-1.08-1.85-.4.59-.76,1.21-1.06,1.85-.3.65-.55,1.33-.74,2.02ZM15.86,8.08h2.87c-.46-.83-1.06-1.54-1.78-2.14-.72-.6-1.53-1.04-2.44-1.33.32.54.59,1.11.8,1.69.22.58.4,1.18.54,1.78Z"/>
</svg>