<?xml version="1.0" encoding="UTF-8"?>
<svg id="Layer_1" data-name="Layer 1" xmlns="http://www.w3.org/2000/svg" viewBox="0 0 24 24">
  <defs>
    <style>
      .cls-1 {
        fill: #333;
      }
    </style>
  </defs>
  <path class="cls-1" d="M12,16c1.25,0,2.31-.44,3.19-1.31.87-.88,1.31-1.94,1.31-3.19s-.44-2.31-1.31-3.19c-.88-.87-1.94-1.31-3.19-1.31s-2.31.44-3.19,1.31c-.87.88-1.31,1.94-1.31,3.19s.44,2.31,1.31,3.19c.88.87,1.94,1.31,3.19,1.31ZM12,14.2c-.75,0-1.39-.26-1.91-.79-.53-.52-.79-1.16-.79-1.91s.26-1.39.79-1.91c.52-.53,1.16-.79,1.91-.79s1.39.26,1.91.79c.52.52.79,1.16.79,1.91s-.26,1.39-.79,1.91c-.52.53-1.16.79-1.91.79ZM12,19c-2.43,0-4.65-.68-6.65-2.04s-3.45-3.18-4.35-5.46c.9-2.28,2.35-4.1,4.35-5.46s4.22-2.04,6.65-2.04,4.65.68,6.65,2.04,3.45,3.18,4.35,5.46c-.9,2.28-2.35,4.1-4.35,5.46s-4.22,2.04-6.65,2.04Z"/>
</svg>