<?xml version="1.0" encoding="UTF-8"?>
<svg id="Layer_1" data-name="Layer 1" xmlns="http://www.w3.org/2000/svg" viewBox="0 0 24 24">
  <defs>
    <style>
      .cls-1 {
        fill: #333;
      }
    </style>
  </defs>
  <path class="cls-1" d="M6,19c-.83,0-1.54-.29-2.12-.88-.58-.58-.88-1.29-.88-2.12H1V7c0-.55.2-1.02.59-1.41.39-.39.86-.59,1.41-.59h14l6,6v5h-2c0,.83-.29,1.54-.88,2.12-.58.59-1.29.88-2.12.88s-1.54-.29-2.12-.88c-.58-.58-.88-1.29-.88-2.12h-6c0,.83-.29,1.54-.88,2.12-.58.59-1.29.88-2.12.88ZM15,10h4l-3-3h-1v3ZM9,10h4v-3h-4v3ZM3,10h4v-3H3v3ZM6,17.25c.35,0,.65-.12.89-.36.24-.24.36-.54.36-.89s-.12-.65-.36-.89c-.24-.24-.54-.36-.89-.36s-.65.12-.89.36c-.24.24-.36.54-.36.89s.12.65.36.89c.24.24.54.36.89.36ZM18,17.25c.35,0,.65-.12.89-.36.24-.24.36-.54.36-.89s-.12-.65-.36-.89c-.24-.24-.54-.36-.89-.36s-.65.12-.89.36c-.24.24-.36.54-.36.89s.12.65.36.89c.24.24.54.36.89.36Z"/>
</svg>