<?xml version="1.0" encoding="UTF-8"?>
<svg id="Layer_1" data-name="Layer 1" xmlns="http://www.w3.org/2000/svg" viewBox="0 0 24 24">
  <defs>
    <style>
      .cls-1 {
        fill: #333;
      }
    </style>
  </defs>
  <path class="cls-1" d="M14,20.75v-2.05c1.5-.43,2.71-1.27,3.62-2.5.92-1.23,1.38-2.63,1.38-4.2s-.46-2.97-1.38-4.2c-.92-1.23-2.12-2.07-3.62-2.5v-2.05c2.07.47,3.75,1.51,5.05,3.14,1.3,1.62,1.95,3.5,1.95,5.61s-.65,3.99-1.95,5.61c-1.3,1.62-2.98,2.67-5.05,3.14ZM3,15.03v-6h4l5-5v16l-5-5H3ZM14,16.03V7.98c.78.37,1.4.92,1.84,1.65.44.73.66,1.53.66,2.4s-.22,1.64-.66,2.36c-.44.72-1.06,1.27-1.84,1.64Z"/>
</svg>