<?xml version="1.0" encoding="UTF-8"?>
<svg id="Layer_1" data-name="Layer 1" xmlns="http://www.w3.org/2000/svg" viewBox="0 0 24 24">
  <defs>
    <style>
      .cls-1 {
        fill: #333;
      }
    </style>
  </defs>
  <path class="cls-1" d="M7,20.02v-9.02h1.6c.12,0,.23,0,.35.04.12.02.23.05.35.08l6.93,2.58c.23.08.42.23.56.45.14.22.21.44.21.67,0,.36-.12.64-.36.86-.24.21-.52.32-.84.32h-2.62c-.08,0-.15,0-.19,0-.04-.01-.1-.03-.16-.06l-1.6-.63-.33.98,1.93.67s.08.03.15.04c.07,0,.12,0,.17,0h6.85c.53,0,1,.19,1.4.57.4.39.6.86.6,1.43l-7.98,3-7.02-1.98ZM1,22v-11h4v11H1ZM16,13l-4.15-4.05c-.52-.5-.95-1.05-1.31-1.66-.36-.61-.54-1.27-.54-1.99,0-.92.32-1.7.96-2.34.64-.64,1.42-.96,2.34-.96.53,0,1.03.11,1.5.34.47.22.87.53,1.2.91.33-.38.73-.69,1.2-.91.47-.23.97-.34,1.5-.34.92,0,1.7.32,2.34.96.64.64.96,1.42.96,2.34,0,.72-.17,1.38-.52,1.99s-.78,1.16-1.3,1.66l-4.17,4.05Z"/>
</svg>