<?xml version="1.0" encoding="UTF-8"?>
<svg id="Layer_1" data-name="Layer 1" xmlns="http://www.w3.org/2000/svg" viewBox="0 0 24 24">
  <defs>
    <style>
      .cls-1 {
        fill: #333;
      }
    </style>
  </defs>
  <path class="cls-1" d="M19.8,22.6l-3.02-3.02c-.42.26-.86.49-1.32.68-.47.19-.95.35-1.45.47v-2.05c.23-.09.46-.17.69-.25.22-.09.44-.19.64-.3l-3.33-3.33v5.2l-5-5H3v-6h3.2L1.4,4.2l1.4-1.4,18.4,18.4-1.4,1.4ZM19.6,16.8l-1.45-1.45c.28-.52.5-1.06.64-1.62.14-.57.21-1.15.21-1.75,0-1.57-.46-2.97-1.38-4.2-.92-1.24-2.12-2.07-3.62-2.5v-2.05c2.07.46,3.75,1.51,5.05,3.13,1.3,1.63,1.95,3.5,1.95,5.62,0,.88-.12,1.73-.36,2.55-.24.81-.59,1.57-1.04,2.27ZM16.25,13.45l-2.25-2.25v-3.25c.78.37,1.4.92,1.84,1.65.44.73.66,1.53.66,2.4,0,.25-.02.5-.06.74-.04.24-.1.48-.19.71ZM12,9.2l-2.6-2.6,2.6-2.6v5.2Z"/>
</svg>