<?xml version="1.0" encoding="UTF-8"?>
<svg id="Layer_1" data-name="Layer 1" xmlns="http://www.w3.org/2000/svg" viewBox="0 0 24 24">
  <defs>
    <style>
      .cls-1 {
        fill: #333;
      }
    </style>
  </defs>
  <path class="cls-1" d="M6,15h4v-2h-4v2ZM19,13c-.83,0-1.54-.29-2.12-.88-.58-.58-.88-1.29-.88-2.12s.29-1.54.88-2.12c.58-.59,1.29-.88,2.12-.88.18,0,.35.02.51.05.16.03.32.07.49.13V2h4v2h-2v6c0,.83-.29,1.54-.88,2.12-.58.59-1.29.88-2.12.88ZM6,12h7v-2h-7v2ZM6,9h7v-2h-7v2ZM6,19l-4,4V5c0-.55.2-1.02.59-1.41.39-.39.86-.59,1.41-.59h11c.55,0,1.02.2,1.41.59.39.39.59.86.59,1.41v.42c-.92.41-1.65,1.02-2.19,1.84-.54.83-.81,1.74-.81,2.74s.27,1.91.81,2.74c.54.82,1.27,1.44,2.19,1.83v2.43c0,.55-.2,1.02-.59,1.41-.39.39-.86.59-1.41.59H6Z"/>
</svg>