<?xml version="1.0" encoding="UTF-8"?>
<svg width="24px" height="24px" viewBox="0 0 24 24" version="1.1" xmlns="http://www.w3.org/2000/svg" xmlns:xlink="http://www.w3.org/1999/xlink">
    <title>Add</title>
    <defs>
        <path d="M12,0 C13.2426407,-2.28269391e-16 14.25,1.00735931 14.25,2.25 L14.25,9.75 L21.75,9.75 C22.9926407,9.75 24,10.7573593 24,12 C24,13.2426407 22.9926407,14.25 21.75,14.25 L14.25,14.25 L14.25,21.75 C14.25,22.9926407 13.2426407,24 12,24 C10.7573593,24 9.75,22.9926407 9.75,21.75 L9.75,14.25 L2.25,14.25 C1.00735931,14.25 1.52179594e-16,13.2426407 0,12 C-1.52179594e-16,10.7573593 1.00735931,9.75 2.25,9.75 L9.75,9.75 L9.75,2.25 C9.75,1.00735931 10.7573593,2.28269391e-16 12,0 Z" id="path-1"></path>
    </defs>
    <g id="Icons---In-Use-(ME)" stroke="none" stroke-width="1" fill="none" fill-rule="evenodd">
        <g id="Icons" transform="translate(-430.000000, -199.000000)">
            <g id="Add" transform="translate(430.000000, 199.000000)">
                <mask id="mask-2" fill="white">
                    <use xlink:href="#path-1"></use>
                </mask>
                <use id="Rectangle-480-Copy-9" fill="#1C2530" xlink:href="#path-1"></use>
                <g id="Group" mask="url(#mask-2)" fill="#1C2530">
                    <g id="💟-Icon-Style">
                        <rect id="Rectangle-2" x="0" y="0" width="24" height="24"></rect>
                    </g>
                </g>
            </g>
        </g>
    </g>
</svg>