<?xml version="1.0" encoding="UTF-8"?>
<svg id="Layer_1" data-name="Layer 1" xmlns="http://www.w3.org/2000/svg" viewBox="0 0 24 24">
  <defs>
    <style>
      .cls-1 {
        fill: #333;
      }
    </style>
  </defs>
  <path class="cls-1" d="M3.73,15.47l-1.03-7.43h3.2c0-.84.23-1.61.67-2.3.45-.7,1.06-1.22,1.84-1.58.07-.53.3-.97.7-1.32.4-.35.87-.52,1.4-.52.58,0,1.08.21,1.49.62.41.41.62.91.62,1.49s-.21,1.08-.62,1.49c-.41.41-.91.62-1.49.62-.21,0-.41-.03-.59-.09-.18-.06-.37-.14-.55-.27-.37.16-.67.4-.89.74-.22.34-.33.72-.33,1.12h13.18l-1.03,7.43h-2.79l.16-1.64c.1-.92-.16-1.71-.77-2.38-.61-.67-1.37-1.01-2.29-1.01h-5.18c-.92,0-1.68.34-2.29,1.01-.61.67-.87,1.46-.77,2.38l.16,1.64h-2.79ZM8.63,20.66l-.67-6.99c-.04-.43.08-.8.36-1.12.28-.33.64-.49,1.09-.49h5.18c.45,0,.81.16,1.09.48s.4.7.36,1.13l-.67,6.99h-6.73Z"/>
</svg>