<svg id="Layer_1" data-name="Layer 1" xmlns="http://www.w3.org/2000/svg" viewBox="0 0 24 24"><defs><style>.cls-1{fill:#1d2631;fill-rule:evenodd;}</style></defs><g id="Data-Display_Icons_Submit-Anonymous" data-name="Data-Display/Icons/Submit-Anonymous"><path id="Icon_Anonymous" data-name="Icon/Anonymous" class="cls-1" d="M11.48,15,6.33,11.25H3.52c-1.95,0-3.52-1-3.52-2.93V3.52A3.51,3.51,0,0,1,3.52,0h8A3.51,3.51,0,0,1,15,3.52V7.73a3.51,3.51,0,0,1-3.52,3.52ZM4.68,4.69h5.64a.94.94,0,0,0,0-1.88H4.68a.94.94,0,0,0,0,1.88Zm4.7,1.64H5.62a1.06,1.06,0,0,0,0,2.11H9.38a1.06,1.06,0,0,0,0-2.11ZM20.39,24a1.88,1.88,0,1,1,1.88-1.88A1.88,1.88,0,0,1,20.39,24Zm-.14-9.55a1.26,1.26,0,0,0,1.25-1.36,1.26,1.26,0,0,0-1.25-1.36c-1.17,0-1.17.71-1.25,1H16.5S16.82,9,20.25,9C24,9,24,13.09,24,13.09s0,3.12-2.5,3.91v2H19V15.82A1.32,1.32,0,0,1,20.25,14.45Z"/></g></svg>