<?xml version="1.0" encoding="utf-8"?>
<!-- Generator: Adobe Illustrator 26.0.2, SVG Export Plug-In . SVG Version: 6.00 Build 0)  -->
<svg version="1.1" id="Layer_1" xmlns="http://www.w3.org/2000/svg" xmlns:xlink="http://www.w3.org/1999/xlink" x="0px" y="0px"
	 viewBox="0 0 24 24" style="enable-background:new 0 0 24 24;" xml:space="preserve">
<style type="text/css">
	.st0{fill-rule:evenodd;clip-rule:evenodd;fill:#000;}
</style>
<path id="Attendance" class="st0" d="M18.5,24h-0.1c-0.3,0-0.6-0.2-0.6-0.6l-0.3-1.7H6.5l-0.3,1.7c0,0.3-0.3,0.6-0.6,0.6H5.5
	c-0.3,0-0.5-0.2-0.5-0.6L6.3,16c0,0,1.2,0,1.2,0l-0.7,4.6h10.5L16.5,16c0,0,1.2,0,1.2,0l1.2,7.4C19,23.8,18.8,24,18.5,24z
	 M18.2,15.3H5.8c-0.2,0-0.4-0.1-0.5-0.2c-0.1-0.1-0.2-0.3-0.2-0.5v-1.4c0-0.4,0.3-0.7,0.7-0.7h12.4c0.4,0,0.7,0.3,0.7,0.7v1.4
	c0,0.2-0.1,0.4-0.2,0.5C18.6,15.2,18.4,15.3,18.2,15.3L18.2,15.3z M16.8,10.9H6.5c-0.4,0-0.7-0.3-0.7-0.7l1.1-9.4
	C6.9,0.3,7.2,0,7.6,0h8.1c0.4,0,0.7,0.3,0.7,0.7l1.1,9.4C17.5,10.6,17.2,10.9,16.8,10.9z"/>
</svg>
