<svg xmlns="http://www.w3.org/2000/svg" width="24" height="24" viewBox="0 0 24 24">
  <path fill="#1C2530" d="M1079.33333,955.333333 L1079.33333,954.205333 L1077.62933,954.205333 L1077.62933,949.189333 L1079.03333,949.189333 L1079.03333,948.325333 C1078.64933,948.253333 1078.31933,948.167334 1078.04333,948.067333 C1077.76733,947.967333 1077.50933,947.845334 1077.26933,947.701333 L1076.23733,947.701333 L1076.23733,954.205333 L1074.73733,954.205333 L1074.73733,955.333333 L1079.33333,955.333333 Z M1074,940 C1076.89251,940 1079.62665,941.028358 1081.77858,942.862271 L1081.843,942.919 L1083.89359,940.869709 L1083.89359,945.816505 L1078.9468,945.816505 L1080.61079,944.152615 C1078.77648,942.605157 1076.45684,941.739417 1074,941.739417 C1068.33329,941.739417 1063.73942,946.333289 1063.73942,952 C1063.73942,957.666711 1068.33329,962.260583 1074,962.260583 C1079.57227,962.260583 1084.10716,957.818564 1084.25677,952.282425 L1084.26058,952 L1086,952 C1086,958.627364 1080.62736,964 1074,964 C1067.37264,964 1062,958.627364 1062,952 C1062,945.372636 1067.37264,940 1074,940 Z M1073.41733,947.701333 L1073.64533,951.469333 L1072.98533,951.889333 C1072.75333,951.737333 1072.55333,951.627334 1072.38533,951.559333 C1072.21733,951.491333 1072.00933,951.457333 1071.76133,951.457333 C1071.33733,951.457333 1070.99733,951.581332 1070.74133,951.829333 C1070.48533,952.077335 1070.35733,952.429331 1070.35733,952.885333 C1070.35733,953.349336 1070.49533,953.709332 1070.77133,953.965333 C1071.04733,954.221335 1071.40133,954.349333 1071.83333,954.349333 C1072.21734,954.349333 1072.55333,954.267334 1072.84133,954.103333 C1073.12933,953.939333 1073.38933,953.749334 1073.62133,953.533333 L1073.62133,953.533333 L1074.25733,954.421333 C1073.97733,954.701333 1073.62734,954.947332 1073.20733,955.159333 C1072.78733,955.371334 1072.26934,955.477333 1071.65333,955.477333 C1071.30133,955.477333 1070.96333,955.419334 1070.63933,955.303333 C1070.31533,955.187333 1070.02933,955.017334 1069.78133,954.793333 C1069.53333,954.569332 1069.33533,954.293335 1069.18733,953.965333 C1069.03933,953.637332 1068.96533,953.265335 1068.96533,952.849333 C1068.96533,952.441331 1069.02933,952.087335 1069.15733,951.787333 C1069.28533,951.487332 1069.45733,951.239334 1069.67333,951.043333 C1069.88933,950.847332 1070.14333,950.701333 1070.43533,950.605333 C1070.72733,950.509333 1071.03733,950.461333 1071.36533,950.461333 C1071.56533,950.461333 1071.74333,950.483333 1071.89933,950.527333 C1072.05533,950.571334 1072.21333,950.633333 1072.37333,950.713333 L1072.37333,950.713333 L1072.21733,948.865333 L1069.33733,948.865333 L1069.33733,947.701333 L1073.41733,947.701333 Z" transform="matrix(-1 0 0 1 1086 -940)"/>
</svg>
