<?xml version="1.0" encoding="UTF-8"?>
<svg width="24px" height="24px" viewBox="0 0 24 24" version="1.1" xmlns="http://www.w3.org/2000/svg" xmlns:xlink="http://www.w3.org/1999/xlink">
    <title>Back To Source</title>
    <g id="Icons---In-Use-(ME)" stroke="none" stroke-width="1" fill="none" fill-rule="evenodd">
        <g id="Icons" transform="translate(-1062.000000, -274.000000)" fill="#1C2530">
            <path d="M1078.726,278.8137 C1077.932,278.605707 1077.103,278.482712 1076.243,278.482712 L1076.242,278.482712 L1076.24,278.482712 L1067.056,278.483712 L1069.05,276.489784 C1069.619,275.919805 1069.619,274.996839 1069.05,274.42586 C1068.478,273.85788 1067.556,273.85788 1066.984,274.42686 L1062.638,278.773701 L1062.426,278.910696 L1062.396,278.985693 C1062.174,279.232684 1062.036,279.548673 1062.017,279.90066 L1062,279.978657 L1062.028,280.078653 C1062.05,280.374643 1062.17,280.627633 1062.345,280.847625 L1062.426,281.047618 L1062.641,281.189613 L1066.895,285.442458 L1066.984,285.531455 C1067.555,286.101434 1068.478,286.102434 1069.049,285.531455 C1069.619,284.961475 1069.619,284.037509 1069.048,283.46653 L1068.242,282.661559 L1067.057,281.474603 L1069.22,281.474603 L1076.191,281.472603 C1076.193,281.476602 1076.195,281.480602 1076.197,281.484602 C1076.212,281.484602 1076.226,281.482602 1076.242,281.482602 C1079.969,281.482602 1083,284.513492 1083,288.241356 C1083,291.96722 1079.969,295.000109 1076.242,295.000109 C1076.212,295.000109 1076.183,294.99611 1076.153,294.99511 C1076.149,295.000109 1076.145,295.004109 1076.141,295.009109 L1076.144,295.009109 L1069.222,295.010109 L1067.226,295.010109 L1067.164,295.007109 L1063.496,295.007109 C1062.67,295.007109 1062,295.677085 1062,296.502055 C1062,297.329024 1062.67,297.999 1063.496,297.999 L1066.294,297.998 L1066.338,298 L1076.144,298 L1076.144,297.995 C1076.177,297.995 1076.209,298 1076.242,298 C1081.631,298 1086,293.630159 1086,288.241356 C1086,283.711521 1082.91,279.914659 1078.726,278.8137" id="Back-To-Source"></path>
        </g>
    </g>
</svg>