<?xml version="1.0" encoding="UTF-8"?>
<svg width="33px" height="24px" viewBox="0 0 33 24" version="1.1" xmlns="http://www.w3.org/2000/svg" xmlns:xlink="http://www.w3.org/1999/xlink">
    <title>bank</title>
    <g id="Giving-v1.5" stroke="none" stroke-width="1" fill="none" fill-rule="evenodd">
        <g id="Summary" transform="translate(-601.000000, -689.000000)" fill="#1C2530">
            <g id="Group" transform="translate(563.000000, 193.000000)">
                <g id="Giving-Content" transform="translate(22.000000, 437.000000)">
                    <g id="Group-5" transform="translate(0.000000, 37.000000)">
                        <path d="M32.5,22 L49,28.72 L49,31.6 L45,31.6 L45,40.24 L47,40.24 L47,43.12 L49,43.12 L49,46 L16,46 L16,43.12 L18,43.12 L18,40.24 L20,40.24 L20,31.6 L16,31.6 L16,28.72 L32.5,22 Z M42,31.6 L38,31.6 L38,40.24 L42,40.24 L42,31.6 Z M35,31.6 L30,31.6 L30,40.24 L35,40.24 L35,31.6 Z M27,31.6 L23,31.6 L23,40.24 L27,40.24 L27,31.6 Z" id="bank"></path>
                    </g>
                </g>
            </g>
        </g>
    </g>
</svg>