<?xml version="1.0" encoding="utf-8"?>
<!-- Generator: Adobe Illustrator 26.0.2, SVG Export Plug-In . SVG Version: 6.00 Build 0)  -->
<svg version="1.1" id="Layer_1" xmlns="http://www.w3.org/2000/svg" xmlns:xlink="http://www.w3.org/1999/xlink" x="0px" y="0px"
	 viewBox="0 0 24 24" style="enable-background:new 0 0 24 24;" xml:space="preserve">
<style type="text/css">
	.st0{fill-rule:evenodd;clip-rule:evenodd;}
</style>
<g id="Path-679-Copy-5">
	<path fill="#000" id="path-1_00000126324461541053188570000012141559515778319746_" class="st0" d="M9.6,10.8l7.5,7.2c0.4,0.4,0.4,1,0,1.4
		l-4.8,4.4c-0.4,0.4-1.1,0.4-1.5,0l-7.5-7.2c-0.4-0.4-0.4-1,0-1.4l4.8-4.4C8.5,10.4,9.2,10.4,9.6,10.8z M13.2,0.3l7.5,7.2
		c0.4,0.4,0.4,1,0,1.4l-4.8,4.4c-0.4,0.4-1.1,0.4-1.5,0L6.9,6c-0.4-0.4-0.4-1,0-1.4l4.8-4.4C12.1-0.1,12.8-0.1,13.2,0.3z"/>
</g>
</svg>
