<?xml version="1.0" encoding="UTF-8"?>
<svg id="Layer_1" data-name="Layer 1" xmlns="http://www.w3.org/2000/svg" viewBox="0 0 24 24">
  <defs>
    <style>
      .cls-1 {
        fill: #333;
      }
    </style>
  </defs>
  <path class="cls-1" d="M13,17.05c.73-.35,1.47-.61,2.21-.79.74-.18,1.5-.26,2.29-.26.6,0,1.19.05,1.76.15.58.1,1.15.25,1.74.45V6.7c-.55-.23-1.12-.41-1.71-.53-.59-.12-1.19-.17-1.79-.17-.78,0-1.56.1-2.33.3s-1.49.5-2.17.9v9.85ZM12,20c-.8-.63-1.67-1.12-2.6-1.47-.93-.35-1.9-.53-2.9-.53-.7,0-1.39.09-2.06.28-.67.18-1.32.44-1.94.77-.35.18-.69.17-1.01-.02-.33-.2-.49-.49-.49-.88V6.1c0-.18.05-.36.14-.52.09-.17.23-.29.41-.38.78-.38,1.59-.68,2.41-.89.82-.21,1.67-.31,2.54-.31.97,0,1.91.12,2.84.38.92.25,1.81.62,2.66,1.12.85-.5,1.74-.88,2.66-1.12.93-.25,1.87-.38,2.84-.38.87,0,1.71.1,2.54.31.83.21,1.63.51,2.41.89.18.08.32.21.41.38.09.17.14.34.14.52v12.05c0,.38-.16.67-.49.88-.33.2-.66.21-1.01.02-.62-.33-1.26-.59-1.94-.77-.67-.18-1.36-.28-2.06-.28-1,0-1.97.17-2.9.53-.93.35-1.8.84-2.6,1.47Z"/>
</svg>