<svg xmlns="http://www.w3.org/2000/svg" width="24" height="20" viewBox="0 0 24 20">
  <path fill="#1C2530" fill-rule="evenodd" d="M1069.63243,737.04227 L1067.4614,737.04227 C1067.4227,735.597756 1066.91232,734.337517 1065.85551,733.308681 C1064.79752,732.278742 1063.50287,731.77547 1062,731.738572 L1062,729.656233 C1065.52751,729.466566 1069.61879,732.453717 1069.63243,737.04227 Z M1083.75572,718.043684 C1085.04964,718.044064 1085.99762,718.963776 1085.99823,720.218963 C1086.00059,725.101952 1086.00059,729.984982 1085.99819,734.868013 C1085.99754,736.12147 1085.04759,737.039112 1083.75276,737.040716 L1080.07692,737.042231 L1080.07692,737.042231 L1076.19518,737.041561 L1076.19518,734.935775 L1083.80163,734.935775 L1083.80163,720.163487 L1064.18845,720.163487 L1064.18845,723.304538 L1062.01078,723.304538 C1062.00747,723.238084 1062.00114,723.170195 1062.00114,723.102306 C1062.00048,722.1454 1061.99896,721.188493 1062.0011,720.231629 C1062.00393,718.963227 1062.94677,718.043811 1064.25299,718.043516 C1070.75388,718.041911 1077.25483,718.041742 1083.75572,718.043684 Z M1062,725.395818 C1064.89721,725.429062 1067.48516,726.303823 1069.69854,728.123352 C1072.5266,730.448232 1073.92579,733.444215 1074.02108,737.04227 L1071.8293,737.04227 C1071.77309,734.413831 1070.83423,732.15213 1068.92404,730.305251 C1067.02081,728.465157 1064.69347,727.561817 1062,727.512757 L1062,725.395818 Z M1065.2435,737.04227 L1062,737.04227 L1062,733.902341 C1063.62449,733.829167 1065.26875,735.217444 1065.2435,737.04227 Z" transform="translate(-1062 -718)"/>
</svg>
