<?xml version="1.0" encoding="utf-8"?>
<!-- Generator: Adobe Illustrator 27.8.1, SVG Export Plug-In . SVG Version: 6.00 Build 0)  -->
<svg version="1.1" id="Layer_1" xmlns="http://www.w3.org/2000/svg" xmlns:xlink="http://www.w3.org/1999/xlink" x="0px" y="0px"
	 viewBox="0 0 24 24" style="enable-background:new 0 0 24 24;" xml:space="preserve">
<style type="text/css">
	.st0{fill-rule:evenodd;clip-rule:evenodd;fill:#000;}
</style>
<g id="Page-1">
	<g id="_x30_3---Icons_x2F_Mobile-Apps_x2F_chat-direct">
		<path id="shape" class="st0" d="M12,0c6.6,0,12,5.4,12,12c0,2.2-0.6,4.2-1.6,5.9l1.5,4c0.4,1.2-0.7,2.4-1.9,1.9l-4-1.5
			c-1.8,1-3.8,1.6-5.9,1.6C5.4,24,0,18.6,0,12S5.4,0,12,0z M12,5C9,5,8.5,6.9,8.5,9.4c0,0.4,0.2,1.3,0.4,1.9
			c0.1,0.4,0.2,0.6,0.2,0.6c0.3,1.1-0.3,2.4-1.4,2.6c-1.3,0.3-2,0.5-2.2,0.7C5,15.9,4.7,18,5.4,19h13.3c0.6-1,0.4-3.1-0.3-3.8
			c-0.1-0.1-0.8-0.4-2.2-0.7c-0.1,0-0.3-0.1-0.4-0.1c-1-0.5-1.4-1.7-0.9-2.7l0.1-0.3c0.3-0.8,0.5-1.4,0.5-2C15.5,6.9,15,5,12,5z"/>
	</g>
</g>
</svg>
