<?xml version="1.0" encoding="utf-8"?>
<!-- Generator: Adobe Illustrator 27.8.1, SVG Export Plug-In . SVG Version: 6.00 Build 0)  -->
<svg version="1.1" id="Layer_1" xmlns="http://www.w3.org/2000/svg" xmlns:xlink="http://www.w3.org/1999/xlink" x="0px" y="0px"
	 viewBox="0 0 24 24" style="enable-background:new 0 0 24 24;" xml:space="preserve">
<style type="text/css">
	.st0{fill:none;}
	.st1{fill:#000;}
</style>
<g>
	<path class="st0" d="M10.1,6c-4.4,0-8,3.6-8,8c0,1.4,0.4,2.7,1.1,4l0.4,0.7l-1,2.7l2.7-1l0.8,0.5c1.3,0.7,2.6,1.1,4,1.1
		c4.4,0,8-3.6,8-8S14.4,6,10.1,6z M11,16.9h-5c-0.6,0-1-0.4-1-1c0-0.6,0.4-1,1-1h5c0.6,0,1,0.4,1,1C12,16.5,11.6,16.9,11,16.9z
		 M14,13h-8c-0.6,0-1-0.4-1-1s0.4-1,1-1h8c0.6,0,1,0.4,1,1S14.6,13,14,13z"/>
	<path class="st1" d="M22.7,14.1c0.8-1.4,1.3-3,1.3-4.7C24,4.3,19.7,0,14.5,0C11,0,8.1,1.9,6.4,4.7c-3.7,1.5-6.3,5.1-6.3,9.3
		c0,1.8,0.5,3.5,1.3,5l-1.3,3.4c-0.4,1,0.6,2,1.6,1.6l3.4-1.3c1.5,0.8,3.1,1.3,5,1.3c4.2,0,7.8-2.6,9.3-6.2l3.1,1.2
		c1,0.4,1.9-0.6,1.5-1.5L22.7,14.1z M10.1,21.9c-1.4,0-2.7-0.4-4-1.1l-0.8-0.5l-2.7,1l1-2.7l-0.4-0.7c-0.7-1.3-1.1-2.6-1.1-4
		c0-4.4,3.6-8,8-8s8,3.6,8,8S14.4,21.9,10.1,21.9z"/>
	<path class="st1" d="M14,11h-8c-0.6,0-1,0.4-1,1s0.4,1,1,1h8c0.6,0,1-0.4,1-1S14.6,11,14,11z"/>
	<path class="st1" d="M11,14.9h-5c-0.6,0-1,0.4-1,1c0,0.6,0.4,1,1,1h5c0.6,0,1-0.4,1-1C12,15.3,11.6,14.9,11,14.9z"/>
</g>
</svg>
