<?xml version="1.0" encoding="UTF-8"?>
<svg width="24px" height="24px" viewBox="0 0 24 24" version="1.1" xmlns="http://www.w3.org/2000/svg" xmlns:xlink="http://www.w3.org/1999/xlink">
    <title>Chat</title>
    <g id="Icons---In-Use-(ME)" stroke="none" stroke-width="1" fill="none" fill-rule="evenodd">
        <g id="Icons" transform="translate(-893.000000, -792.000000)" fill="#1C2530">
            <path d="M904.484375,807 L899.327539,803.25 L896.515625,803.25 C894.573828,803.25 893,802.262695 893,800.320312 L893,795.515625 C893,793.574414 894.573828,792 896.515625,792 L904.484375,792 C906.425586,792 908,793.574414 908,795.515625 L908,799.734961 C908,801.676172 906.425586,803.25 904.484375,803.25 L904.484375,807 Z M897.684716,796.6875 L903.315284,796.6875 C903.825278,796.6875 904.25,796.267767 904.25,795.75 C904.25,795.228623 903.831514,794.8125 903.315284,794.8125 L897.684716,794.8125 C897.174722,794.8125 896.75,795.232233 896.75,795.75 C896.75,796.271377 897.168486,796.6875 897.684716,796.6875 Z M902.382149,798.328125 L898.617851,798.328125 C898.04981,798.328125 897.570312,798.800325 897.570312,799.382812 C897.570312,799.969361 898.039312,800.4375 898.617851,800.4375 L902.382149,800.4375 C902.95019,800.4375 903.429688,799.9653 903.429688,799.382812 C903.429688,798.796264 902.960688,798.328125 902.382149,798.328125 Z M903.855428,816 C903.239787,814.988702 903.48935,812.963998 904.104992,812.289377 C904.398248,811.967889 907.312031,811.394467 907.312031,811.394467 C908.119164,811.223237 908.407429,810.521816 907.984843,809.808117 C907.984843,809.808117 906.875,808.355305 906.875,806.71875 C906.875,804.34007 907.349714,802.5 910.25,802.5 C913.15068,802.5 913.625,804.34007 913.625,806.71875 C913.625,808.350243 912.519289,809.801769 912.519289,809.801769 C912.085361,810.505734 912.384552,811.213531 913.197533,811.391173 C913.197533,811.391173 916.117873,811.975483 916.40247,812.289377 C917.013388,812.963998 917.256653,814.988702 916.645735,816 L903.855428,816 Z" id="Chat"></path>
        </g>
    </g>
</svg>