<?xml version="1.0" encoding="utf-8"?>
<!-- Generator: Adobe Illustrator 27.4.1, SVG Export Plug-In . SVG Version: 6.00 Build 0)  -->
<svg version="1.1" id="Layer_1" xmlns="http://www.w3.org/2000/svg" xmlns:xlink="http://www.w3.org/1999/xlink" x="0px" y="0px"
	 viewBox="0 0 24 24" style="enable-background:new 0 0 24 24;" xml:space="preserve">
<style type="text/css">
	.st0{fill:#000;}
</style>
<g>
	<g>
		<path class="st0" d="M20,0c2.2,0,4,1.8,4,4v8.5c0,1.8-1.1,3.3-3,3.8V24l-10.5-7.5H4c-2.2,0-4-1.8-4-4V4c0-2.2,1.8-4,4-4H20z M20,2
			H4C2.9,2,2,2.9,2,4v8.5c0,1.1,0.9,2,2,2h7.2l0.5,0.4l7.3,5.2v-5.3l1.5-0.4c1-0.3,1.5-1,1.5-1.9V4C22,2.9,21.1,2,20,2z M7.5,7
			C8.3,7,9,7.7,9,8.5C9,9.3,8.3,10,7.5,10C6.7,10,6,9.3,6,8.5C6,7.7,6.7,7,7.5,7z M12,7c0.8,0,1.5,0.7,1.5,1.5
			c0,0.8-0.7,1.5-1.5,1.5c-0.8,0-1.5-0.7-1.5-1.5C10.5,7.7,11.2,7,12,7z M16.5,7C17.3,7,18,7.7,18,8.5c0,0.8-0.7,1.5-1.5,1.5
			C15.7,10,15,9.3,15,8.5C15,7.7,15.7,7,16.5,7z"/>
	</g>
</g>
</svg>
