<?xml version="1.0" encoding="utf-8"?>
<!-- Generator: Adobe Illustrator 27.4.1, SVG Export Plug-In . SVG Version: 6.00 Build 0)  -->
<svg version="1.1" id="Layer_1" xmlns="http://www.w3.org/2000/svg" xmlns:xlink="http://www.w3.org/1999/xlink" x="0px" y="0px"
	 viewBox="0 0 24 24" style="enable-background:new 0 0 24 24;" xml:space="preserve">
<g>
	<g>
		<path fill="#000" d="M20,2c1.1,0,2,0.9,2,2v8.5c0,0.9-0.5,1.6-1.5,1.9L19,14.8v1.5v3.8l-7.3-5.2l-0.5-0.4h-0.6H4c-1.1,0-2-0.9-2-2
			V4c0-1.1,0.9-2,2-2H20z M20,0H4C1.8,0,0,1.8,0,4v8.5c0,2.2,1.8,4,4,4h6.5L21,24v-7.7c1.9-0.5,3-2,3-3.8V4C24,1.8,22.2,0,20,0z"/>
	</g>
</g>
</svg>
