<?xml version="1.0" encoding="utf-8"?>
<!-- Generator: Adobe Illustrator 27.8.1, SVG Export Plug-In . SVG Version: 6.00 Build 0)  -->
<svg version="1.1" id="Layer_1" xmlns="http://www.w3.org/2000/svg" xmlns:xlink="http://www.w3.org/1999/xlink" x="0px" y="0px"
	 viewBox="0 0 24 24" style="enable-background:new 0 0 24 24;" xml:space="preserve">
<style type="text/css">
	.st0{fill-rule:evenodd;clip-rule:evenodd;fill:#54CC86;}
</style>
<g id="Page-1">
	<g id="Icon_x2F_Sendbird_x2F_chat-received" transform="translate(0, 5)">
		<path id="Shape_00000152959652567217307270000006168021642082871189_" class="st0" d="M2.6,6.8l4.8,4.6c0.4,0.4,0.4,0.9,0,1.3
			c-0.4,0.4-1,0.4-1.4,0L1.3,8.1c-0.4-0.4-0.4-0.9,0-1.3C1.7,6.4,2.3,6.4,2.6,6.8z M21.4,1.3c0.4-0.4,1-0.4,1.4,0
			c0.4,0.4,0.4,0.9,0,1.3L12.2,12.7c-0.4,0.4-1,0.4-1.4,0L6.1,8.1c-0.4-0.4-0.4-0.9,0-1.3c0.4-0.4,1-0.4,1.4,0l4.1,4L21.4,1.3z
			 M17.9,1.3c0.4,0.4,0.4,0.9,0,1.3l-5.7,5.5c-0.4,0.4-1,0.4-1.4,0c-0.4-0.4-0.4-0.9,0-1.3l5.7-5.5C17,0.9,17.6,0.9,17.9,1.3z"/>
	</g>
</g>
</svg>
