<?xml version="1.0" encoding="utf-8"?>
<!-- Generator: Adobe Illustrator 27.4.1, SVG Export Plug-In . SVG Version: 6.00 Build 0)  -->
<svg version="1.1" id="Layer_1" xmlns="http://www.w3.org/2000/svg" xmlns:xlink="http://www.w3.org/1999/xlink" x="0px" y="0px"
	 viewBox="0 0 24 24" style="enable-background:new 0 0 24 24;" xml:space="preserve">
<style type="text/css">
	.st0{fill:#000;}
</style>
<g>
	<g>
		<path class="st0" d="M23.7,0.3c0.4,0.4,0.4,1,0,1.4l-22,22c-0.4,0.4-1,0.4-1.4,0c-0.4-0.4-0.4-1,0-1.4l6.5-6.5l-1.5,0
			c-1.8,0-3.2-1.4-3.3-3.2l0-0.2V5.3C2,3.5,3.5,2,5.3,2h13.3c0.6,0,1.1,0.1,1.5,0.4l2.1-2.1C22.7-0.1,23.3-0.1,23.7,0.3z M22,5.6
			l0,6.8c0,1.5-0.9,2.8-2.5,3.2V22l-8.1-5.8l1.2-1.2l5.3,3.7v-4.4l1.2-0.3c0.8-0.2,1.2-0.8,1.2-1.6l0-5.2L22,5.6z M18.8,3.7l-0.1,0
			H5.3c-0.9,0-1.7,0.8-1.7,1.7v7.1c0,0.9,0.8,1.7,1.7,1.7l3.2,0L18.8,3.7C18.9,3.7,18.8,3.7,18.8,3.7z"/>
	</g>
</g>
</svg>
