<?xml version="1.0" encoding="UTF-8"?>
<svg width="17px" height="16px" viewBox="0 0 17 16" version="1.1" xmlns="http://www.w3.org/2000/svg" xmlns:xlink="http://www.w3.org/1999/xlink">
    <title>Class Copy</title>
    <g id="CL" stroke="none" stroke-width="1" fill="none" fill-rule="evenodd">
        <g id="CLASS" transform="translate(0.500000, 0.000000)" fill="#000000">
            <path d="M8,9.05460391 L11.6911137,12.7457176 L8.74571757,15.6911137 C8.33386913,16.1029621 7.66613087,16.1029621 7.25428243,15.6911137 L4.30888633,12.7457176 L8,9.05460391 Z" id="401---Solid"></path>
            <path d="M3.25428243,4.30888633 L6.94539609,8 L3.25428243,11.6911137 L0.308886332,8.74571757 C-0.102962111,8.33386913 -0.102962111,7.66613087 0.308886332,7.25428243 L3.25428243,4.30888633 Z" id="301---Solid"></path>
            <path d="M8.74571757,0.308886332 L11.6911137,3.25428243 L8,6.94539609 L4.30888633,3.25428243 L7.25428243,0.308886332 C7.66613087,-0.102962111 8.33386913,-0.102962111 8.74571757,0.308886332 Z" id="201---Solid"></path>
            <path d="M12.7457176,4.30888633 L15.6911137,7.25428243 C16.1029621,7.66613087 16.1029621,8.33386913 15.6911137,8.74571757 L12.7457176,11.6911137 L9.05460391,8 L12.7457176,4.30888633 Z" id="101---Solid"></path>
        </g>
    </g>
</svg>