<?xml version="1.0" encoding="UTF-8"?>
<svg id="Layer_1" data-name="Layer 1" xmlns="http://www.w3.org/2000/svg" xmlns:xlink="http://www.w3.org/1999/xlink" viewBox="0 0 25 24">
  <defs>
    <mask id="mask" x=".5" y="0" width="24" height="24" maskUnits="userSpaceOnUse">
      <g id="mask0_2274_36698" data-name="mask0 2274 36698">
        <rect fill="currentColor" x=".5" width="24" height="24"/>
      </g>
    </mask>
  </defs>
  <g>
    <path fill="currentColor" d="M7,17.5l7.5-3.5,3.5-7.5-7.5,3.5-3.5,7.5ZM12.5,13c-.28,0-.52-.1-.71-.29s-.29-.43-.29-.71.1-.52.29-.71.43-.29.71-.29.52.1.71.29.29.43.29.71-.1.52-.29.71-.43.29-.71.29ZM12.5,22c-1.38,0-2.68-.26-3.9-.79-1.22-.52-2.28-1.24-3.18-2.14-.9-.9-1.61-1.96-2.14-3.18-.52-1.22-.79-2.52-.79-3.9s.26-2.68.79-3.9c.53-1.22,1.24-2.28,2.14-3.18.9-.9,1.96-1.61,3.18-2.14,1.22-.52,2.52-.79,3.9-.79s2.68.26,3.9.79c1.22.53,2.27,1.24,3.18,2.14.9.9,1.61,1.96,2.14,3.18.52,1.22.79,2.52.79,3.9s-.26,2.68-.79,3.9-1.24,2.27-2.14,3.18c-.9.9-1.96,1.61-3.18,2.14s-2.52.79-3.9.79Z"/>
  </g>
</svg>