<?xml version="1.0" encoding="utf-8"?>
<!-- Generator: Adobe Illustrator 26.0.2, SVG Export Plug-In . SVG Version: 6.00 Build 0)  -->
<svg version="1.1" id="Layer_1" xmlns="http://www.w3.org/2000/svg" xmlns:xlink="http://www.w3.org/1999/xlink" x="0px" y="0px"
	 viewBox="0 0 24 24" style="enable-background:new 0 0 24 24;" xml:space="preserve">
<style type="text/css">
	.st0{fill-rule:evenodd;clip-rule:evenodd;fill:#000;}
</style>
<g id="Shape">
	<path id="path-1_00000150813210696049153440000003610633572872224130_" class="st0" d="M20,0c1.1,0,2,0.9,2,2v15.5c0,1.1-0.9,2-2,2
		h-1L19,5c0-1.1-0.8-1.9-1.8-2L17,3H8.7l0-1c0-1.1,0.9-2,2-2H20z M13.1,5.2c1.7,0,3,1.3,3,3V21c0,1.7-1.3,3-3,3H5c-1.7,0-3-1.3-3-3
		V8.2c0-1.7,1.3-3,3-3H13.1z M7.2,18H4.3c-0.4,0-0.7,0.3-0.7,0.8c0,0.4,0.3,0.7,0.6,0.7l0.1,0h2.9c0.4,0,0.7-0.3,0.7-0.6l0-0.1
		l0-0.1c0-0.3-0.3-0.6-0.6-0.6L7.2,18z M12.4,15H4.3c-0.4,0-0.8,0.3-0.8,0.8c0,0.4,0.3,0.7,0.7,0.7l0.1,0h8.1c0.4,0,0.7-0.3,0.7-0.6
		l0-0.1l0-0.1C13.1,15.3,12.7,15,12.4,15z M13.1,12H4.3c-0.4,0-0.7,0.3-0.7,0.8c0,0.4,0.3,0.7,0.6,0.7l0.1,0h8.8
		c0.4,0,0.7-0.3,0.7-0.6l0-0.1l0-0.1C13.8,12.3,13.5,12,13.1,12z M11.1,9H4.3C3.9,9,3.5,9.4,3.5,9.8c0,0.4,0.3,0.7,0.6,0.7l0.1,0
		h6.9c0.4,0,0.7-0.3,0.7-0.6l0-0.1l0-0.1C11.8,9.3,11.5,9,11.1,9z"/>
</g>
</svg>
