<?xml version="1.0" encoding="UTF-8"?>
<svg width="69px" height="100px" viewBox="0 0 69 100" version="1.1" xmlns="http://www.w3.org/2000/svg" xmlns:xlink="http://www.w3.org/1999/xlink">
    <title>Group</title>
    <g id="ME-Read-&amp;-Respond" stroke="none" stroke-width="1" fill="none" fill-rule="evenodd">
        <g id="Connection-Form---No-Form-Attached" transform="translate(-153.000000, -308.000000)">
            <g id="background-image" transform="translate(0.000000, 63.000000)">
                <g id="Group-Copy" transform="translate(24.000000, 245.000000)">
                    <g id="Group" transform="translate(129.000000, 0.000000)">
                        <path d="M58.9127198,100 L9.46858911,100 C4.23919255,100 0,95.7608074 0,90.5314109 L0,14.9647053 C0,9.73530875 4.23919255,5.4961162 9.46858911,5.4961162 L58.9127198,5.4961162 C64.1421164,5.4961162 68.3813089,9.73530875 68.3813089,14.9647053 L68.3813089,90.5314109 C68.3813089,95.7608074 64.1421164,100 58.9127198,100" id="Fill" fill="#DBE0E3"></path>
                        <path d="M56.7849595,92.5883672 L11.5962232,92.5883672 C8.11009907,92.5883672 5.28383043,89.762309 5.28383043,86.2759744 L5.28383043,17.0923604 C5.28383043,13.6060259 8.11009907,10.7799677 11.5962232,10.7799677 L56.7849595,10.7799677 C60.2710836,10.7799677 63.0973522,13.6060259 63.0973522,17.0923604 L63.0973522,86.2759744 C63.0973522,89.762309 60.2710836,92.5883672 56.7849595,92.5883672" id="Fill" fill-opacity="0.204784473" fill="#97A4AB"></path>
                        <path d="M63.0973522,17.0922973 C63.0973522,13.6061732 60.271294,10.7799045 56.7849595,10.7799045 L11.5962232,10.7799045 C8.11009907,10.7799045 5.28383043,13.6061732 5.28383043,17.0922973 L5.28383043,83.1197149 C5.28383043,86.6060495 8.11009907,89.4321077 11.5962232,89.4321077 L47.5103713,89.4321077 L63.0973522,73.8453371 L63.0973522,17.0922973 Z" id="Fill" fill="#FFFFFF"></path>
                        <path d="M49.3397448,4.08306604 L38.5777464,4.08306604 C38.4121513,4.08306604 38.2749619,3.95534529 38.2631788,3.79017102 C38.1133647,1.67194242 36.3471572,0 34.1906334,0 C32.0341096,0 30.2679022,1.67194242 30.1178776,3.79017102 C30.1063049,3.95534529 29.9691156,4.08306604 29.8035205,4.08306604 L19.0417325,4.08306604 C17.7308589,4.08306604 16.6682728,5.14565215 16.6682728,6.4563153 L16.6682728,10.1530629 C16.6682728,12.7745996 18.793445,14.8997718 21.4149817,14.8997718 L46.9664955,14.8997718 C49.5880322,14.8997718 51.712994,12.7745996 51.712994,10.1530629 L51.712994,6.4563153 C51.712994,5.14565215 50.6504079,4.08306604 49.3397448,4.08306604" id="Fill" fill="#38424D"></path>
                        <path d="M27.1360295,42.4684528 L14.1949932,42.4684528 C13.5776412,42.4684528 13.0774892,41.9680904 13.0774892,41.3507384 C13.0774892,40.7333864 13.5776412,40.2330241 14.1949932,40.2330241 L27.1360295,40.2330241 C27.7533815,40.2330241 28.2537439,40.7333864 28.2537439,41.3507384 C28.2537439,41.9680904 27.7533815,42.4684528 27.1360295,42.4684528" id="Fill" fill="#97A4AB"></path>
                        <path d="M35.1894644,46.6522646 L14.1950773,46.6522646 C13.5777253,46.6522646 13.077363,46.1519023 13.077363,45.5345503 C13.077363,44.9171982 13.5777253,44.4168359 14.1950773,44.4168359 L35.1894644,44.4168359 C35.8068164,44.4168359 36.3071787,44.9171982 36.3071787,45.5345503 C36.3071787,46.1519023 35.8068164,46.6522646 35.1894644,46.6522646" id="Fill" fill="#97A4AB"></path>
                        <path d="M26.0399877,34.0610821 L15.6024463,34.0610821 C14.2080388,34.0610821 13.0774892,32.9305325 13.0774892,31.536125 L13.0774892,21.0983732 C13.0774892,19.7039656 14.2080388,18.5734161 15.6024463,18.5734161 L26.0399877,18.5734161 C27.4346057,18.5734161 28.5649448,19.7039656 28.5649448,21.0983732 L28.5649448,31.536125 C28.5649448,32.9305325 27.4346057,34.0610821 26.0399877,34.0610821" id="Fill" fill-opacity="0.504729158" fill="#97A4AB"></path>
                        <path d="M53.620536,65.3461422 L14.7606046,65.3461422 C13.8309996,65.3461422 13.0772999,64.5924425 13.0772999,63.6628374 L13.0772999,54.5075534 C13.0772999,53.5779484 13.8309996,52.8242487 14.7606046,52.8242487 L53.620536,52.8242487 C54.5503514,52.8242487 55.3038407,53.5779484 55.3038407,54.5075534 L55.3038407,63.6628374 C55.3038407,64.5924425 54.5503514,65.3461422 53.620536,65.3461422" id="Fill" fill-opacity="0.504729158" fill="#97A4AB"></path>
                        <path d="M53.620536,81.6387855 L14.7606046,81.6387855 C13.8309996,81.6387855 13.0772999,80.8850858 13.0772999,79.9554808 L13.0772999,70.8001968 C13.0772999,69.8703813 13.8309996,69.116892 14.7606046,69.116892 L53.620536,69.116892 C54.5503514,69.116892 55.3038407,69.8703813 55.3038407,70.8001968 L55.3038407,79.9554808 C55.3038407,80.8850858 54.5503514,81.6387855 53.620536,81.6387855" id="Fill" fill-opacity="0.504729158" fill="#97A4AB"></path>
                        <path d="M63.0973522,73.845274 L53.822764,73.845274 C50.3366399,73.845274 47.5103713,76.6713322 47.5103713,80.1576667 L47.5103713,89.432255 L63.0973522,73.845274 Z" id="Fill" fill="#DBE0E3"></path>
                    </g>
                </g>
            </g>
        </g>
    </g>
</svg>