<?xml version="1.0" encoding="UTF-8"?>
<svg id="Layer_1" data-name="Layer 1" xmlns="http://www.w3.org/2000/svg" viewBox="0 0 24 24">
  <defs>
    <style>
      .cls-1 {
        fill: #333;
      }
    </style>
  </defs>
  <path class="cls-1" d="M11.25,0h1.5c1.22,0,2.25,1.03,2.25,2.25v3.75h3.75c1.22,0,2.25,1.03,2.25,2.25v1.5c0,1.27-1.03,2.25-2.25,2.25h-3.75v9.75c0,1.27-1.03,2.25-2.25,2.25h-1.5c-1.27,0-2.25-.98-2.25-2.25v-9.75h-3.75c-1.27,0-2.25-.98-2.25-2.25v-1.5c0-1.22.98-2.25,2.25-2.25h3.75v-3.75c0-1.22.98-2.25,2.25-2.25Z"/>
</svg>