<?xml version="1.0" encoding="UTF-8"?>
<svg id="Layer_1" data-name="Layer 1" xmlns="http://www.w3.org/2000/svg" viewBox="0 0 24 24">
  <defs>
    <style>
      .cls-1 {
        fill: #333;
      }
    </style>
  </defs>
  <path class="cls-1" d="M6,22c-.55,0-1.02-.2-1.41-.59-.39-.39-.59-.86-.59-1.41V4c0-.55.2-1.02.59-1.41.39-.39.86-.59,1.41-.59h8l6,6v12c0,.55-.2,1.02-.59,1.41-.39.39-.86.59-1.41.59H6ZM11,19h2v-1h1c.28,0,.52-.1.71-.29.19-.19.29-.43.29-.71v-3c0-.28-.1-.52-.29-.71-.19-.19-.43-.29-.71-.29h-3v-1h4v-2h-2v-1h-2v1h-1c-.28,0-.52.1-.71.29-.19.19-.29.43-.29.71v3c0,.28.1.52.29.71.19.19.43.29.71.29h3v1h-4v2h2v1ZM13.17,8h4l-4-4v4Z"/>
</svg>