<?xml version="1.0" encoding="UTF-8"?>
<svg width="24px" height="24px" viewBox="0 0 24 24" version="1.1" xmlns="http://www.w3.org/2000/svg" xmlns:xlink="http://www.w3.org/1999/xlink">
    <title>Delete</title>
    <defs>
        <path d="M16,0 C17.1045695,-2.02906125e-16 18,0.8954305 18,2 L18,3.75 L23,3.75 C23.5522847,3.75 24,4.19771525 24,4.75 L24,6.5 C24,7.05228475 23.5522847,7.5 23,7.5 L21,7.5 L21,22 C21,23.1045695 20.1045695,24 19,24 L5,24 C3.8954305,24 3,23.1045695 3,22 L3,7.5 L1,7.5 C0.44771525,7.5 6.76353751e-17,7.05228475 0,6.5 L0,4.75 C-6.76353751e-17,4.19771525 0.44771525,3.75 1,3.75 L6,3.75 L6,2 C6,0.8954305 6.8954305,2.02906125e-16 8,0 L16,0 Z M7.25104344,9.75 L6.24895656,9.75 C5.69266033,9.75 5.25,10.1969821 5.25,10.7483625 L5.25,10.7483625 L5.25,20.0016375 C5.25,20.5450531 5.69724809,21 6.24895656,21 L6.24895656,21 L7.25104344,21 C7.80733967,21 8.25,20.5530179 8.25,20.0016375 L8.25,20.0016375 L8.25,10.7483625 C8.25,10.2049469 7.80275191,9.75 7.25104344,9.75 L7.25104344,9.75 Z M12.5010434,9.75 L11.4989566,9.75 C10.9426603,9.75 10.5,10.1969821 10.5,10.7483625 L10.5,10.7483625 L10.5,20.0016375 C10.5,20.5450531 10.9472481,21 11.4989566,21 L11.4989566,21 L12.5010434,21 C13.0573397,21 13.5,20.5530179 13.5,20.0016375 L13.5,20.0016375 L13.5,10.7483625 C13.5,10.2049469 13.0527519,9.75 12.5010434,9.75 L12.5010434,9.75 Z M17.7510434,9.75 L16.7489566,9.75 C16.1926603,9.75 15.75,10.1969821 15.75,10.7483625 L15.75,10.7483625 L15.75,20.0016375 C15.75,20.5450531 16.1972481,21 16.7489566,21 L16.7489566,21 L17.7510434,21 C18.3073397,21 18.75,20.5530179 18.75,20.0016375 L18.75,20.0016375 L18.75,10.7483625 C18.75,10.2049469 18.3027519,9.75 17.7510434,9.75 L17.7510434,9.75 Z" id="path-1"></path>
    </defs>
    <g id="Icons---In-Use-(ME)" stroke="none" stroke-width="1" fill="none" fill-rule="evenodd">
        <g id="Icons" transform="translate(-430.000000, -273.000000)">
            <g id="Delete" transform="translate(430.000000, 273.000000)">
                <rect id="Rectangle-4" x="0" y="0" width="24" height="24"></rect>
                <mask id="mask-2" fill="white">
                    <use xlink:href="#path-1"></use>
                </mask>
                <use id="Rectangle-985-Copy-8" fill="#1C2530" xlink:href="#path-1"></use>
                <g id="Group" mask="url(#mask-2)" fill="#1C2530">
                    <g id="💟-Icon-Style">
                        <rect id="Rectangle-2" x="0" y="0" width="24" height="24"></rect>
                    </g>
                </g>
            </g>
        </g>
    </g>
</svg>