<?xml version="1.0" encoding="UTF-8"?>
<svg id="Layer_1" data-name="Layer 1" xmlns="http://www.w3.org/2000/svg" viewBox="0 0 24 24">
  <defs>
    <style>
      .cls-1 {
        fill: #333;
      }
    </style>
  </defs>
  <path class="cls-1" d="M8,15h2v-3h3.5v2.5l3.5-3.5-3.5-3.5v2.5h-4.5c-.28,0-.52.1-.71.29-.19.19-.29.43-.29.71v4ZM12,22c-.25,0-.5-.05-.74-.15-.24-.1-.46-.25-.66-.45L2.6,13.4c-.2-.2-.35-.42-.45-.66s-.15-.49-.15-.74.05-.5.15-.74.25-.46.45-.66L10.6,2.6c.2-.2.42-.35.66-.45.24-.1.49-.15.74-.15s.5.05.74.15c.24.1.46.25.66.45l8,8c.2.2.35.42.45.66s.15.49.15.74-.05.5-.15.74-.25.46-.45.66l-8,8c-.2.2-.42.35-.66.45-.24.1-.49.15-.74.15Z"/>
</svg>