<?xml version="1.0" encoding="UTF-8"?>
<svg width="24px" height="24px" viewBox="0 0 24 24" version="1.1" xmlns="http://www.w3.org/2000/svg" xmlns:xlink="http://www.w3.org/1999/xlink">
    <title>Discipleship Milestone</title>
    <defs>
        <path d="M17.4988334,22.3993067 C14.625425,22.3993067 11.9992001,24 11.9992001,24 C11.9992001,24 9.37297513,22.3993067 6.4995667,22.3993067 C3.03019799,22.3993067 0,24 0,24 L0,1.60069329 C0,1.60069329 2.92060529,0 6.34997667,0 C9.28178121,0 12,1.60069329 12,1.60069329 C12,1.60069329 14.7182188,0 17.6500233,0 C21.0793947,0 24,1.60069329 24,1.60069329 L24,24 C23.9984001,24 20.9682021,22.3993067 17.4988334,22.3993067 L17.4988334,22.3993067 Z M11.3684211,1.26315789 L12.6315789,1.26315789 L12.6315789,24 L11.3684211,24 L11.3684211,1.26315789 Z M15.1989867,16.0005333 C15.1989867,16.0005333 16.7004866,15.1989867 18.2491834,15.1989867 C19.8978735,15.1989867 20.7994134,16.0005333 20.7994134,16.0005333 L20.7994134,17.6004266 C20.7994134,17.6004266 19.9994667,16.79968 18.3995734,16.79968 C16.79968,16.79968 15.1997867,17.6004266 15.1997867,17.6004266 L15.1997867,16.0005333 L15.1989867,16.0005333 Z M15.1989867,12.7999467 L15.1989867,11.2000533 C15.1989867,11.2000533 16.7004866,10.4001067 18.2491834,10.4001067 C19.8978735,10.4001067 20.7994134,11.2000533 20.7994134,11.2000533 L20.7994134,12.7999467 C20.7994134,12.7999467 19.9994667,12 18.3995734,12 C16.7988801,12 15.1989867,12.7999467 15.1989867,12.7999467 L15.1989867,12.7999467 Z M15.1989867,8.0010666 L15.1989867,6.39957336 C15.1989867,6.39957336 16.7004866,5.60042664 18.2491834,5.60042664 C19.8978735,5.60042664 20.7994134,6.39957336 20.7994134,6.39957336 L20.7994134,8.0010666 C20.7994134,8.0010666 19.9994667,7.20031998 18.3995734,7.20031998 C16.7988801,7.20031998 15.1989867,8.0010666 15.1989867,8.0010666 L15.1989867,8.0010666 Z M3.19978668,17.6004266 L3.19978668,16.0005333 C3.19978668,16.0005333 3.90133991,15.1989867 5.45003666,15.1989867 C7.09872675,15.1989867 8.80021332,16.0005333 8.80021332,16.0005333 L8.80021332,17.6004266 C8.80021332,17.6004266 7.20031998,16.79968 5.60042664,16.79968 C3.99973335,16.79968 3.19978668,17.6004266 3.19978668,17.6004266 L3.19978668,17.6004266 Z M3.19978668,12.7999467 L3.19978668,11.2000533 C3.19978668,11.2000533 3.90133991,10.4001067 5.45003666,10.4001067 C7.09872675,10.4001067 8.80021332,11.2000533 8.80021332,11.2000533 L8.80021332,12.7999467 C8.80021332,12.7999467 7.20031998,12 5.60042664,12 C3.99973335,12 3.19978668,12.7999467 3.19978668,12.7999467 L3.19978668,12.7999467 Z M3.19978668,8.0010666 L3.19978668,6.39957336 C3.19978668,6.39957336 3.90133991,5.60042664 5.45003666,5.60042664 C7.09872675,5.60042664 8.80021332,6.39957336 8.80021332,6.39957336 L8.80021332,8.0010666 C8.80021332,8.0010666 7.20031998,7.20031998 5.60042664,7.20031998 C3.99973335,7.20031998 3.19978668,8.0010666 3.19978668,8.0010666 L3.19978668,8.0010666 Z" id="path-1"></path>
    </defs>
    <g id="Icons---In-Use-(ME)" stroke="none" stroke-width="1" fill="none" fill-rule="evenodd">
        <g id="Icons" transform="translate(-665.000000, -421.000000)">
            <g id="Discipleship-Milestone" transform="translate(665.000000, 421.000000)">
                <rect id="Rectangle-3" x="0" y="0" width="24" height="24"></rect>
                <mask id="mask-2" fill="white">
                    <use xlink:href="#path-1"></use>
                </mask>
                <use id="Shape-Copy-2" fill="#1C2530" xlink:href="#path-1"></use>
                <g id="Group" mask="url(#mask-2)" fill="#1C2530">
                    <g id="💟-Icon-Style">
                        <rect id="Rectangle-2" x="0" y="0" width="24" height="24"></rect>
                    </g>
                </g>
            </g>
        </g>
    </g>
</svg>