<?xml version="1.0" encoding="utf-8"?>
<!-- Generator: Adobe Illustrator 26.0.2, SVG Export Plug-In . SVG Version: 6.00 Build 0)  -->
<svg version="1.1" id="Layer_1" xmlns="http://www.w3.org/2000/svg" xmlns:xlink="http://www.w3.org/1999/xlink" x="0px" y="0px"
	 viewBox="0 0 24 24" style="enable-background:new 0 0 24 24;" xml:space="preserve">
<g transform="translate(-323.0 -281.0)">
	<g>
		<g>
			<g transform="translate(323.0 281.0)">
				<g>
					<defs>
						<path fill="#000" id="SVGID_1_" d="M17.7,0C21.1,0,24,1.6,24,1.6V24c0,0-3-1.6-6.4-1.6c-2.1,0-4,0.8-4.9,1.3V1.3C13.7,0.8,15.6,0,17.7,0z
							 M6.4,0c2.1,0,4,0.8,5,1.3v22.4c-1-0.5-2.9-1.3-4.9-1.3c-3.1,0-5.8,1.3-6.4,1.5L0,24c0,0,0,0,0,0V1.6C0,1.6,2.9,0,6.4,0z
							 M18.3,15.2c-1.6,0-3.1,0.8-3.1,0.8v1.6c0,0,1.6-0.8,3.2-0.8s2.4,0.8,2.4,0.8h0.1V16C20.9,16,19.9,15.2,18.3,15.2z M5.5,15.2
							c-1.4,0-2.1,0.6-2.3,0.8l0,0l0,1.6c0,0,0.8-0.8,2.4-0.8s3.2,0.8,3.2,0.8h0.1V16C8.9,16,7.1,15.2,5.5,15.2z M18.3,10.4
							c-1.6,0-3.1,0.8-3.1,0.8v1.6c0,0,1.6-0.8,3.2-0.8s2.4,0.8,2.4,0.8h0.1v-1.6C20.9,11.2,19.9,10.4,18.3,10.4z M5.5,10.4
							c-1.4,0-2.1,0.6-2.3,0.8l0,0l0,1.6c0,0,0.8-0.8,2.4-0.8s3.2,0.8,3.2,0.8h0.1v-1.6C8.9,11.2,7.1,10.4,5.5,10.4z M18.3,5.6
							c-1.6,0-3.1,0.8-3.1,0.8V8c0,0,1.6-0.8,3.2-0.8S20.8,8,20.8,8h0.1V6.4C20.9,6.4,19.9,5.6,18.3,5.6z M5.5,5.6
							c-1.4,0-2.1,0.6-2.3,0.8l0,0l0,1.6c0,0,0.8-0.8,2.4-0.8S8.8,8,8.8,8h0.1V6.4C8.9,6.4,7.1,5.6,5.5,5.6z"/>
					</defs>
					<use xlink:href="#SVGID_1_"  style="overflow:visible;"/>
					<clipPath fill="#000" id="SVGID_00000070115284097217214850000002731134694008294816_">
						<use xlink:href="#SVGID_1_"  style="overflow:visible;"/>
					</clipPath>
				</g>
			</g>
		</g>
	</g>
</g>
</svg>
