<?xml version="1.0" encoding="UTF-8"?>
<svg width="24px" height="24px" viewBox="0 0 24 24" version="1.1" xmlns="http://www.w3.org/2000/svg" xmlns:xlink="http://www.w3.org/1999/xlink">
    <title>Edit Text</title>
    <defs>
        <path d="M1.5,0 L22.5,0 C23.3284271,0 24,0.671572875 24,1.5 C24,2.32842712 23.3284271,3 22.5,3 L1.5,3 C0.671572875,3 0,2.32842712 0,1.5 C0,0.671572875 0.671572875,0 1.5,0 Z M1.5,6 L13.5,6 C14.3284271,6 15,6.67157288 15,7.5 C15,8.32842712 14.3284271,9 13.5,9 L1.5,9 C0.671572875,9 0,8.32842712 0,7.5 C0,6.67157288 0.671572875,6 1.5,6 Z M1.5,12 L7.5,12 C8.32842712,12 9,12.6715729 9,13.5 C9,14.3284271 8.32842712,15 7.5,15 L1.5,15 C0.671572875,15 0,14.3284271 0,13.5 C0,12.6715729 0.671572875,12 1.5,12 Z M1.5,18 L2.25,18 C3.07842712,18 3.75,18.6715729 3.75,19.5 C3.75,20.3284271 3.07842712,21 2.25,21 L1.5,21 C0.671572875,21 0,20.3284271 0,19.5 C0,18.6715729 0.671572875,18 1.5,18 Z M12.5262139,20.6271642 L9.37297035,17.4739207 L16.5515396,10.3002317 L18.307918,8.54158655 L21.4613474,11.695016 L19.7053343,13.4540037 L12.5262139,20.6271642 Z M10.9034679,22.2485632 L9.94169211,23.2095405 L6,24 L6.78863241,20.0565017 L7.7503463,19.0954416 L10.9034679,22.2485632 Z M22.9430132,10.2108404 L19.7898823,7.05770958 L20.1948302,6.65223907 C21.0643103,5.78258698 22.4791448,5.78258698 23.3478899,6.65223907 C24.21737,7.52115791 24.21737,8.93562579 23.3478899,9.80527788 L22.9430132,10.2108404 Z" id="path-1"></path>
    </defs>
    <g id="Icons---In-Use-(ME)" stroke="none" stroke-width="1" fill="none" fill-rule="evenodd">
        <g id="Icons" transform="translate(-430.000000, -492.000000)">
            <g id="Edit-Text" transform="translate(430.000000, 492.000000)">
                <rect id="Rectangle-4" x="0" y="0" width="24" height="24"></rect>
                <mask id="mask-2" fill="white">
                    <use xlink:href="#path-1"></use>
                </mask>
                <use id="Rectangle-581-Copy-7" fill="#1C2530" xlink:href="#path-1"></use>
                <g id="Group" mask="url(#mask-2)" fill="#1C2530">
                    <g id="💟-Icon-Style">
                        <rect id="Rectangle-2" x="0" y="0" width="24" height="24"></rect>
                    </g>
                </g>
            </g>
        </g>
    </g>
</svg>