<?xml version="1.0" encoding="UTF-8"?>
<svg width="24px" height="24px" viewBox="0 0 24 24" version="1.1" xmlns="http://www.w3.org/2000/svg" xmlns:xlink="http://www.w3.org/1999/xlink">
    <title>Expand</title>
    <defs>
        <path d="M10.1542464,11.7333478 L18.9127257,2.97038611 L16.0954582,2.97188554 C15.2888111,2.97038611 14.6350971,2.3181307 14.6350971,1.51143321 C14.6350971,0.704735724 15.2888111,0.0509808822 16.0954582,0.0509808822 L22.2367714,0.0509808822 C22.3207347,0.0344870673 22.3987006,0.00149943771 22.4886612,0 C22.5636284,0 22.6146061,0.0704735724 22.688074,0.0839685118 C22.966952,0.115456704 23.2308365,0.20992128 23.4557381,0.401849307 C23.4782283,0.421341997 23.5067158,0.422841434 23.5456988,0.454329626 C23.5516961,0.460327377 23.5531955,0.467824566 23.5891797,0.521804323 C23.8245767,0.784205923 23.9505216,1.10358616 23.9685138,1.43496189 C23.9700131,1.46495064 24,1.48144446 24,1.51143321 C24,1.5984006 23.9640157,1.67337249 23.947523,1.757341 L23.947523,7.90353617 C23.9460236,8.71023366 23.293809,9.3639885 22.4871619,9.3639885 C21.6820141,9.3639885 21.0283001,8.71023366 21.0283001,7.90503561 L21.0283001,5.08609272 L11.64069,14.4740082 C11.64069,14.4740082 11.6294099,14.485289 11.6080149,14.5043546 L5.08727432,21.0281145 L7.90454176,21.0281145 C8.71118885,21.0281145 9.36490286,21.6818693 9.36490286,22.4870673 C9.36490286,23.2952643 8.71118885,23.9475197 7.90454176,23.9475197 L1.76322859,23.9490191 C1.67926532,23.9640135 1.60129943,23.9985006 1.51133879,24 C1.43487224,24 1.38539389,23.928027 1.31192603,23.9160315 C1.03304804,23.8845433 0.769163491,23.7900787 0.544261885,23.5966513 C0.521771725,23.578658 0.493284188,23.5771586 0.454301243,23.5456704 C0.448303867,23.5381732 0.446804523,23.530676 0.410820266,23.4781957 C0.175423252,23.2157941 0.0494783532,22.8949144 0.0314862248,22.5635387 C0.0299868807,22.5350494 0,22.5170561 0,22.4885668 C0,22.4015994 0.0359842569,22.3251281 0.0524770413,22.242659 L0.0524770413,16.0949644 C0.0539763853,15.2882669 0.706191041,14.6360115 1.51283813,14.6345121 C2.31798588,14.6345121 2.97169988,15.2882669 2.97169988,16.093465 L2.97169988,18.9139073 L10.10931,11.7744924 C10.10931,11.7744924 10.1249212,11.7588802 10.1542464,11.7333478 L10.1542464,11.7333478 Z" id="path-1"></path>
    </defs>
    <g id="Icons---In-Use-(ME)" stroke="none" stroke-width="1" fill="none" fill-rule="evenodd">
        <g id="Icons" transform="translate(-665.000000, -569.000000)">
            <g id="Expand" transform="translate(665.000000, 569.000000)">
                <rect id="Rectangle-5" x="0" y="0" width="24" height="24"></rect>
                <mask id="mask-2" fill="white">
                    <use xlink:href="#path-1"></use>
                </mask>
                <use id="Shape" fill="#1C2530" xlink:href="#path-1"></use>
                <g id="Group" mask="url(#mask-2)" fill="#1C2530">
                    <g id="💟-Icon-Style">
                        <rect id="Rectangle-2" x="0" y="0" width="24" height="24"></rect>
                    </g>
                </g>
            </g>
        </g>
    </g>
</svg>