<?xml version="1.0" encoding="UTF-8"?>
<svg width="24px" height="24px" viewBox="0 0 24 24" version="1.1" xmlns="http://www.w3.org/2000/svg" xmlns:xlink="http://www.w3.org/1999/xlink">
    <title>External Link</title>
    <g fill="#000" fillRule="nonzero">
     <path
            d="M18.8,21.1H3V5.3h7.5v-3L2.2,2.4C1,2.4,0,3.4,0,4.6v17.3c0,1.2,1,2.2,2.2,2.1h17.4c1.2,0,2.2-1,2.2-2.2v-8.2
            h-3V21.1z"
            fill="#000"
            fillRule="evenodd"
        />
        <path
            d="M22.6,0h-6.4c-0.9,0-1.5,0.7-1.5,1.5c0,0.9,0.7,1.5,1.5,1.5H19l-7.9,7.9c0,0-1.1,1,0,2.1c1,1.1,2.1,0,2.1,0
            L21,5.1v2.8c0,0.9,0.7,1.5,1.5,1.5S24,8.7,24,7.9V1.5C24,0.7,23.3,0,22.6,0z"
            fill="#000"
            fillRule="evenodd"
        />
    </g>
</svg>
