<?xml version="1.0" encoding="UTF-8"?>
<svg width="24px" height="24px" viewBox="0 0 24 24" version="1.1" xmlns="http://www.w3.org/2000/svg" xmlns:xlink="http://www.w3.org/1999/xlink">
    <title>False</title>
    <defs>
        <path d="M3.51471863,20.4852814 C-1.17157288,15.7989899 -1.17157288,8.20101013 3.51471863,3.51471863 C8.20101013,-1.17157288 15.7989899,-1.17157288 20.4852814,3.51471863 C25.1715729,8.20101013 25.1715729,15.7989899 20.4852814,20.4852814 C15.7989899,25.1715729 8.20101013,25.1715729 3.51471863,20.4852814 Z M14.1213203,12 L16.7729708,9.34834957 C17.3587572,8.76256313 17.3587572,7.81281566 16.7729708,7.22702923 C16.1871843,6.64124279 15.2374369,6.64124279 14.6516504,7.22702923 L12,9.87867966 L9.34834957,7.22702923 C8.76256313,6.64124279 7.81281566,6.64124279 7.22702923,7.22702923 C6.64124279,7.81281566 6.64124279,8.76256313 7.22702923,9.34834957 L9.87867966,12 L7.22702923,14.6516504 C6.64124279,15.2374369 6.64124279,16.1871843 7.22702923,16.7729708 C7.81281566,17.3587572 8.76256313,17.3587572 9.34834957,16.7729708 L12,14.1213203 L14.6516504,16.7729708 C15.2374369,17.3587572 16.1871843,17.3587572 16.7729708,16.7729708 C17.3587572,16.1871843 17.3587572,15.2374369 16.7729708,14.6516504 L14.1213203,12 Z" id="path-1"></path>
    </defs>
    <g id="Icons---In-Use-(ME)" stroke="none" stroke-width="1" fill="none" fill-rule="evenodd">
        <g id="Icons" transform="translate(-541.000000, -570.000000)">
            <g id="False" transform="translate(541.000000, 570.000000)">
                <rect id="Rectangle-3" x="0" y="0" width="24" height="24"></rect>
                <mask id="mask-2" fill="white">
                    <use xlink:href="#path-1"></use>
                </mask>
                <use id="Oval-68-Copy" fill="#1C2530" xlink:href="#path-1"></use>
                <g id="Group" mask="url(#mask-2)" fill="#1C2530">
                    <g id="💟-Icon-Style">
                        <rect id="Rectangle-2" x="0" y="0" width="24" height="24"></rect>
                    </g>
                </g>
            </g>
        </g>
    </g>
</svg>