<?xml version="1.0" encoding="utf-8"?>
<!-- Generator: Adobe Illustrator 26.0.2, SVG Export Plug-In . SVG Version: 6.00 Build 0)  -->
<svg version="1.1" id="Layer_1" xmlns="http://www.w3.org/2000/svg" xmlns:xlink="http://www.w3.org/1999/xlink" x="0px" y="0px"
	 viewBox="0 0 24 24" style="enable-background:new 0 0 24 24;" xml:space="preserve">
<style type="text/css">
	.st0{fill-rule:evenodd;clip-rule:evenodd;}
</style>
<g id="Ministry-App-Home---v1.3">
	<g id="Person-Search-09" transform="translate(-196.000000, -223.000000)">
		<g id="List" transform="translate(0.000000, 218.000000)">
			<g id="_x30_3---Icons_x2F_Actions_x2F_Action" transform="translate(196.000000, 5.000000)">
				<g id="Star-1">
					<path fill="#000" id="path-1_00000021839591498077912860000014126360504400287616_" class="st0" d="M12,18.3l-3.5,2.7
						c-2.3,1.8-3.5,1-2.7-1.8l1.4-4.5l-3.5-2.7c-2.4-1.8-1.9-3.2,1.1-3.2l4.3,0l1.4-4.5c0.9-2.8,2.3-2.8,3.1,0L15,8.7l4.3,0
						c2.9,0,3.4,1.4,1.1,3.2l-3.5,2.7l1.4,4.5c0.9,2.8-0.3,3.6-2.7,1.8L12,18.3z"/>
				</g>
			</g>
		</g>
	</g>
</g>
</svg>
