<?xml version="1.0" encoding="UTF-8"?>
<svg width="24px" height="24px" viewBox="0 0 24 24" version="1.1" xmlns="http://www.w3.org/2000/svg" xmlns:xlink="http://www.w3.org/1999/xlink">
    <title>forward10</title>
    <g id="Icons---In-Use-(ME)" stroke="none" stroke-width="1" fill="none" fill-rule="evenodd">
        <g id="Icons" transform="translate(-1062.000000, -866.000000)" fill="#1C2530" fill-rule="nonzero">
            <g id="forward10" transform="translate(1062.000000, 866.000000)">
                <g id="Group-5" transform="translate(12.000000, 12.000000) scale(-1, 1) translate(-12.000000, -12.000000) ">
                    <path d="M6.88133333,15.3333333 L6.88133333,14.2053333 L8.58533333,14.2053333 L8.58533333,9.18933333 L7.18133333,9.18933333 L7.18133333,8.32533333 C7.56533525,8.25333297 7.89533195,8.16733383 8.17133333,8.06733333 C8.44733471,7.96733283 8.70533213,7.84533405 8.94533333,7.70133333 L9.97733333,7.70133333 L9.97733333,14.2053333 L11.4773333,14.2053333 L11.4773333,15.3333333 L6.88133333,15.3333333 Z M14.7413333,7.55733333 C15.5413373,7.55733333 16.173331,7.88933001 16.6373333,8.55333333 C17.1013357,9.21733665 17.3333333,10.1933269 17.3333333,11.4813333 C17.3333333,12.7773398 17.1013357,13.7673299 16.6373333,14.4513333 C16.173331,15.1353368 15.5413373,15.4773333 14.7413333,15.4773333 C13.9413293,15.4773333 13.3093357,15.1353368 12.8453333,14.4513333 C12.381331,13.7673299 12.1493333,12.7773398 12.1493333,11.4813333 C12.1493333,10.1853269 12.381331,9.20733663 12.8453333,8.54733333 C13.3093357,7.88733003 13.9413293,7.55733333 14.7413333,7.55733333 Z M14.7413333,8.63733333 C14.5573324,8.63733333 14.3873341,8.68333287 14.2313333,8.77533333 C14.0753326,8.86733379 13.9413339,9.02533221 13.8293333,9.24933333 C13.7173328,9.47333445 13.6293337,9.76733151 13.5653333,10.1313333 C13.501333,10.4953352 13.4693333,10.9453307 13.4693333,11.4813333 C13.4693333,12.0253361 13.501333,12.4813315 13.5653333,12.8493333 C13.6293337,13.2173352 13.7173328,13.5173322 13.8293333,13.7493333 C13.9413339,13.9813345 14.0753326,14.1473328 14.2313333,14.2473333 C14.3873341,14.3473338 14.5573324,14.3973333 14.7413333,14.3973333 C14.9253343,14.3973333 15.0953326,14.3473338 15.2513333,14.2473333 C15.4073341,14.1473328 15.5413328,13.9813345 15.6533333,13.7493333 C15.7653339,13.5173322 15.853333,13.2173352 15.9173333,12.8493333 C15.9813337,12.4813315 16.0133333,12.0253361 16.0133333,11.4813333 C16.0133333,10.9453307 15.9813337,10.4953352 15.9173333,10.1313333 C15.853333,9.76733151 15.7653339,9.47333445 15.6533333,9.24933333 C15.5413328,9.02533221 15.4073341,8.86733379 15.2513333,8.77533333 C15.0953326,8.68333287 14.9253343,8.63733333 14.7413333,8.63733333 Z" id="10" transform="translate(12.107333, 11.517333) scale(-1, 1) translate(-12.107333, -11.517333) "></path>
                    <path d="M12,4.97379915e-14 C15.0130341,4.97379915e-14 17.854221,1.11583988 20.044504,3.09568971 L19.843,2.919 L21.8935924,0.869708603 L21.8935924,5.81650478 L16.9467962,5.81650478 L18.6107898,4.15261466 C16.7764789,2.6051575 14.4568402,1.73941721 12,1.73941721 C6.33328947,1.73941721 1.73941721,6.33328947 1.73941721,12 C1.73941721,17.6667105 6.33328947,22.2605828 12,22.2605828 C17.6667105,22.2605828 22.2605828,17.6667105 22.2605828,12 L22.2605828,12 L24,12 C24,18.6273641 18.6273641,24 12,24 C5.37263587,24 4.97379915e-14,18.6273641 4.97379915e-14,12 C4.97379915e-14,5.37263587 5.37263587,4.97379915e-14 12,4.97379915e-14 Z" id="Combined-Shape" transform="translate(12.000000, 12.000000) scale(-1, 1) translate(-12.000000, -12.000000) "></path>
                </g>
            </g>
        </g>
    </g>
</svg>