<svg xmlns="http://www.w3.org/2000/svg" width="24" height="24" viewBox="0 0 24 24">
  <path fill="#1C2530" d="M1074,1014 C1076.89251,1014 1079.62665,1015.02836 1081.77858,1016.86227 L1081.843,1016.919 L1083.89359,1014.86971 L1083.89359,1019.8165 L1078.9468,1019.8165 L1080.61079,1018.15261 C1078.77648,1016.60516 1076.45684,1015.73942 1074,1015.73942 C1068.33329,1015.73942 1063.73942,1020.33329 1063.73942,1026 C1063.73942,1031.66671 1068.33329,1036.26058 1074,1036.26058 C1079.57227,1036.26058 1084.10716,1031.81856 1084.25677,1026.28243 L1084.26058,1026 L1086,1026 C1086,1032.62736 1080.62736,1038 1074,1038 C1067.37264,1038 1062,1032.62736 1062,1026 C1062,1019.37264 1067.37264,1014 1074,1014 Z M1078.66267,1021.70133 L1078.66267,1022.86533 L1075.78267,1022.86533 L1075.62667,1024.71333 C1075.78667,1024.63333 1075.94467,1024.57133 1076.10067,1024.52733 C1076.25667,1024.48333 1076.43467,1024.46133 1076.63467,1024.46133 C1076.96267,1024.46133 1077.27267,1024.50933 1077.56467,1024.60533 C1077.85667,1024.70133 1078.11067,1024.84733 1078.32667,1025.04333 C1078.54267,1025.23933 1078.71467,1025.48733 1078.84267,1025.78733 C1078.97067,1026.08733 1079.03467,1026.44133 1079.03467,1026.84933 C1079.03467,1027.26534 1078.96067,1027.63733 1078.81267,1027.96533 C1078.66467,1028.29333 1078.46667,1028.56933 1078.21867,1028.79333 C1077.97067,1029.01733 1077.68467,1029.18733 1077.36067,1029.30333 C1077.03667,1029.41933 1076.69867,1029.47733 1076.34667,1029.47733 C1075.73066,1029.47733 1075.21267,1029.37133 1074.79267,1029.15933 C1074.37266,1028.94733 1074.02267,1028.70133 1073.74267,1028.42133 L1074.37867,1027.53333 C1074.61067,1027.74933 1074.87067,1027.93933 1075.15867,1028.10333 C1075.44667,1028.26733 1075.78266,1028.34933 1076.16667,1028.34933 C1076.59867,1028.34933 1076.95267,1028.22133 1077.22867,1027.96533 C1077.50467,1027.70933 1077.64267,1027.34934 1077.64267,1026.88533 C1077.64267,1026.42933 1077.51467,1026.07733 1077.25867,1025.82933 C1077.00267,1025.58133 1076.66267,1025.45733 1076.23867,1025.45733 C1075.99067,1025.45733 1075.78267,1025.49133 1075.61467,1025.55933 C1075.44667,1025.62733 1075.24667,1025.73733 1075.01467,1025.88933 L1074.35467,1025.46933 L1074.58267,1021.70133 L1078.66267,1021.70133 Z M1071.76267,1021.70133 L1071.76267,1028.20533 L1073.26267,1028.20533 L1073.26267,1029.33333 L1068.66667,1029.33333 L1068.66667,1028.20533 L1070.37067,1028.20533 L1070.37067,1023.18933 L1068.96667,1023.18933 L1068.96667,1022.32533 C1069.35067,1022.25333 1069.68067,1022.16733 1069.95667,1022.06733 C1070.23267,1021.96733 1070.49067,1021.84533 1070.73067,1021.70133 L1071.76267,1021.70133 Z" transform="translate(-1062 -1014)"/>
</svg>
