<svg id="Layer_1" data-name="Layer 1" xmlns="http://www.w3.org/2000/svg" viewBox="0 0 24 24"><defs><style>.cls-1{fill:#1d2631;fill-rule:evenodd;}</style></defs><g id="Data-Display_Icons_Submit-From-Me" data-name="Data-Display/Icons/Submit-From-Me"><path id="Icon_From-Me" data-name="Icon/From-Me" class="cls-1" d="M11.48,15,6.33,11.25H3.52c-1.95,0-3.52-1-3.52-2.93V3.52A3.51,3.51,0,0,1,3.52,0h8A3.51,3.51,0,0,1,15,3.52V7.73a3.51,3.51,0,0,1-3.52,3.52ZM4.68,4.69h5.64a.94.94,0,0,0,0-1.88H4.68a.94.94,0,0,0,0,1.88Zm4.7,1.64H5.62a1.06,1.06,0,0,0,0,2.11H9.38a1.06,1.06,0,0,0,0-2.11ZM10.86,24a3.91,3.91,0,0,1,.24-3.71,16.24,16.24,0,0,1,3.21-.9A1,1,0,0,0,15,17.81a5.81,5.81,0,0,1-1.11-3.09c0-2.38.48-4.22,3.38-4.22s3.37,1.84,3.37,4.22a5.83,5.83,0,0,1-1.1,3.08,1,1,0,0,0,.68,1.59,16.48,16.48,0,0,1,3.2.9A3.94,3.94,0,0,1,23.65,24Z"/></g></svg>