<?xml version="1.0" encoding="UTF-8"?>
<svg id="Layer_1" data-name="Layer 1" xmlns="http://www.w3.org/2000/svg" viewBox="0 0 24 24">
  <defs>
    <style>
      .cls-1 {
        fill: #333;
      }
    </style>
  </defs>
  <path class="cls-1" d="M9.68,5.43c-.25-.46-.74-.74-1.27-.74h-.07c-.81,0-1.41.63-1.41,1.41s.6,1.41,1.41,1.41h2.57l-1.23-2.07ZM5.25,6.09c0-1.69,1.37-3.09,3.09-3.09h.07c1.12,0,2.14.6,2.71,1.58l.88,1.44.84-1.44c.56-.98,1.58-1.58,2.71-1.58h.11c1.69,0,3.09,1.41,3.09,3.09,0,.53-.14.98-.35,1.41h1.48c.6,0,1.12.53,1.12,1.12v2.25c0,.63-.53,1.12-1.12,1.12H4.12c-.63,0-1.12-.49-1.12-1.12v-2.25c0-.6.49-1.12,1.12-1.12h1.44c-.21-.42-.32-.88-.32-1.41ZM17.06,6.09c0-.77-.63-1.41-1.41-1.41h-.11c-.53,0-.98.28-1.27.74l-1.23,2.07h2.6c.77,0,1.41-.6,1.41-1.41ZM4.12,13.12h6.75v7.88h-5.06c-.95,0-1.69-.74-1.69-1.69v-6.19ZM13.12,21v-7.88h6.75v6.19c0,.95-.77,1.69-1.69,1.69h-5.06Z"/>
</svg>