<?xml version="1.0" encoding="UTF-8"?>
<svg id="Layer_1" data-name="Layer 1" xmlns="http://www.w3.org/2000/svg" viewBox="0 0 24 24">
  <defs>
    <style>
      .cls-1 {
        fill: #333;
      }
    </style>
  </defs>
  <path class="cls-1" d="M12,22.48c-1.43,0-2.79-.28-4.06-.83-1.27-.55-2.39-1.3-3.34-2.26-.95-.95-1.7-2.06-2.26-3.33-.55-1.27-.83-2.63-.83-4.06s.28-2.79.83-4.06c.55-1.27,1.3-2.38,2.26-3.33.95-.96,2.06-1.71,3.34-2.26,1.27-.55,2.63-.83,4.06-.83s2.8.28,4.06.83c1.27.55,2.38,1.3,3.33,2.26.95.95,1.7,2.06,2.26,3.33.55,1.27.83,2.62.83,4.06s-.28,2.79-.83,4.06c-.55,1.27-1.31,2.38-2.26,3.33-.95.96-2.06,1.71-3.33,2.26-1.27.55-2.62.83-4.06.83ZM11.97,19.79c.4-.58.75-1.19,1.07-1.83.32-.65.57-1.33.77-2.04h-3.64c.2.71.45,1.39.75,2.04.3.64.65,1.25,1.05,1.83ZM9.44,19.39c-.32-.53-.58-1.09-.79-1.68-.21-.59-.38-1.19-.53-1.79h-2.86c.45.81,1.04,1.52,1.75,2.13.71.61,1.52,1.05,2.44,1.34ZM14.51,19.39c.91-.29,1.73-.73,2.45-1.34.72-.61,1.31-1.32,1.76-2.13h-2.87c-.15.6-.33,1.2-.55,1.79-.22.59-.48,1.15-.8,1.68ZM4.42,13.96h3.3c-.05-.34-.09-.66-.11-.98-.02-.31-.04-.64-.04-.98s.01-.68.04-.99c.02-.31.06-.63.11-.97h-3.3c-.08.33-.15.65-.19.96-.04.32-.06.65-.06,1s.02.67.06.99c.04.32.1.64.19.97ZM9.72,13.96h4.54c.05-.34.08-.66.1-.98.01-.31.02-.64.02-.98s0-.68-.02-.99c-.02-.31-.05-.63-.1-.97h-4.54c-.05.34-.09.66-.11.97-.02.31-.04.64-.04.99s.01.67.04.98c.02.32.06.64.11.98ZM16.26,13.96h3.29c.08-.33.15-.65.19-.97.04-.32.06-.65.06-.99s-.02-.68-.06-1c-.04-.31-.1-.63-.19-.96h-3.29c.04.34.07.66.09.97.02.31.03.64.03.99s0,.67-.03.98c-.02.32-.05.64-.09.98ZM15.86,8.07h2.87c-.46-.81-1.04-1.52-1.76-2.12-.72-.61-1.54-1.05-2.45-1.34.32.53.59,1.09.8,1.67.22.59.4,1.19.55,1.79ZM10.17,8.07h3.64c-.19-.71-.44-1.39-.76-2.03-.32-.64-.68-1.25-1.08-1.83-.4.58-.74,1.19-1.05,1.83-.3.64-.55,1.32-.75,2.03ZM5.26,8.07h2.86c.15-.6.33-1.2.53-1.79.21-.58.47-1.14.79-1.67-.91.29-1.73.73-2.44,1.34-.71.6-1.29,1.31-1.75,2.12Z"/>
</svg>