<?xml version="1.0" encoding="UTF-8"?>
<svg width="24px" height="24px" viewBox="0 0 24 24" version="1.1" xmlns="http://www.w3.org/2000/svg" xmlns:xlink="http://www.w3.org/1999/xlink">
    <title>Discover Icon Copy</title>
    <g id="Symbols" stroke="none" stroke-width="1" fill="none" fill-rule="evenodd">
        <g id="Discover-Icon-Copy" transform="translate(0.923077, 0.923076)" fill="#000000" fill-rule="nonzero">
            <g id="People-2">
                <path d="M19.5985385,15.9806959 C19.7261585,15.5206344 19.7936428,15.045979 19.7993077,14.5685821 C19.7993077,12.0863082 18.3537692,10.8673205 15.0618462,10.4063082 C15.6415957,9.88495438 16.1140375,9.25550822 16.4526923,8.55324976 C20.4604615,8.57748053 22.1538462,9.29668668 22.1538462,11.4896128 C22.1538462,12.8685051 21.1416923,14.7471698 19.5985385,15.9806959 Z M16.7379231,7.8423513 C17.6388175,5.1191913 16.4739212,2.14047745 13.9645385,0.750628221 C15.2981972,-0.217457933 17.0939086,-0.252082548 18.4639089,0.66385899 C19.8339092,1.57980976 20.4879748,3.25229591 20.102748,4.85448053 C19.7175212,6.45665591 18.3746105,7.64912361 16.7379231,7.8423513 L16.7379231,7.8423513 Z M11.0755385,9.82693359 C8.94634062,9.82061591 7.22482154,8.09076976 7.22906905,5.96185899 C7.233348,3.83294822 8.96178277,2.11000668 11.0909889,2.11222915 C13.2201942,2.11445591 14.945028,3.84099745 14.9448462,5.96990822 C14.9413311,8.10322207 13.2091385,9.82990207 11.0755385,9.82693359 Z M5.11061538,5.96990822 C5.11047046,6.60369284 5.21143108,7.23344361 5.40969231,7.83542822 C3.78935815,7.61659438 2.47330062,6.41849591 2.10390646,4.82593899 C1.73451231,3.23338207 2.38879292,1.57838822 3.74738585,0.66877899 C5.10597785,-0.24082101 6.88563969,-0.215408702 8.21769231,0.732628221 C6.30156185,1.77840976 5.10982062,3.78720976 5.11061538,5.96990822 L5.11061538,5.96990822 Z M7.07123077,10.3910775 C3.70661538,10.8403205 2.21607692,12.0593082 2.21607692,14.5685821 C2.22047815,14.9965113 2.27555446,15.422419 2.38015385,15.8374067 C0.935307692,14.6045728 0,12.815899 0,11.4896128 C0,9.29737899 1.70861538,8.57748053 5.69769231,8.55324976 C6.03268892,9.24871438 6.49910769,9.87278822 7.07123077,10.3910775 L7.07123077,10.3910775 Z M11.0423077,12.1174528 C15.8413846,12.1174528 17.8622308,12.9321882 17.8622308,15.5030682 C17.8622308,18.0739482 14.8084615,22.1538467 11.0423077,22.1538467 C7.27615385,22.1538467 4.22238462,18.0746405 4.22238462,15.5030682 C4.22238462,12.9314959 6.26261538,12.1174528 11.0423077,12.1174528 Z"></path>
            </g>
        </g>
    </g>
</svg>