<?xml version="1.0" encoding="UTF-8"?>
<svg width="24px" height="24px" viewBox="0 0 24 24" version="1.1" xmlns="http://www.w3.org/2000/svg" xmlns:xlink="http://www.w3.org/1999/xlink">
    <title>Hamburger</title>
    <g id="Icons---In-Use-(ME)" stroke="none" stroke-width="1" fill="none" fill-rule="evenodd">
        <g id="Icons" transform="translate(-541.000000, -644.000000)" fill="#1C2530">
            <path d="M541,644.994563 C541,644.445281 541.447469,644 542.000695,644 L563.999305,644 C564.551974,644 565,644.442969 565,644.994563 L565,647.805437 C565,648.354719 564.552531,648.8 563.999305,648.8 L542.000695,648.8 C541.448026,648.8 541,648.357031 541,647.805437 L541,644.994563 Z M541,654.594563 C541,654.045281 541.447469,653.6 542.000695,653.6 L563.999305,653.6 C564.551974,653.6 565,654.042969 565,654.594563 L565,657.405437 C565,657.954719 564.552531,658.4 563.999305,658.4 L542.000695,658.4 C541.448026,658.4 541,657.957031 541,657.405437 L541,654.594563 Z M541,664.194563 C541,663.645281 541.447469,663.2 542.000695,663.2 L563.999305,663.2 C564.551974,663.2 565,663.642969 565,664.194563 L565,667.005437 C565,667.554719 564.552531,668 563.999305,668 L542.000695,668 C541.448026,668 541,667.557031 541,667.005437 L541,664.194563 Z" id="Hamburger" transform="translate(553.000000, 656.000000) scale(-1, 1) translate(-553.000000, -656.000000) "></path>
        </g>
    </g>
</svg>