<?xml version="1.0" encoding="UTF-8"?>
<svg id="Layer_1" data-name="Layer 1" xmlns="http://www.w3.org/2000/svg" viewBox="0 0 24 24">
  <defs>
    <style>
      .cls-1 {
        fill: #333;
      }
    </style>
  </defs>
  <path class="cls-1" d="M12,21l-1.45-1.3c-1.68-1.52-3.07-2.82-4.17-3.92s-1.98-2.09-2.62-2.97c-.65-.87-1.1-1.68-1.36-2.41-.26-.73-.39-1.48-.39-2.25,0-1.57.52-2.87,1.58-3.92,1.05-1.05,2.36-1.58,3.92-1.58.87,0,1.69.18,2.48.55.78.37,1.46.88,2.02,1.55.57-.67,1.24-1.18,2.02-1.55.78-.37,1.61-.55,2.48-.55,1.57,0,2.88.53,3.92,1.58,1.05,1.05,1.58,2.35,1.58,3.92,0,.77-.13,1.52-.39,2.25-.26.73-.71,1.54-1.36,2.41-.65.88-1.52,1.87-2.62,2.97s-2.49,2.4-4.17,3.92l-1.45,1.3Z"/>
</svg>