<?xml version="1.0" encoding="UTF-8"?>
<svg width="24px" height="24px" viewBox="0 0 24 24" version="1.1" xmlns="http://www.w3.org/2000/svg" xmlns:xlink="http://www.w3.org/1999/xlink">
    <title>Home</title>
    <defs>
        <path d="M12.44852,9.14368019 L17.11136,13.6691687 C17.4185266,13.9679993 17.5999773,14.2399952 17.6,14.6126022 L17.6,22.8265753 C17.6,23.4746399 17.0627417,24 16.4,24 L13.52,24 L13.52,19.4823148 C13.52,18.8342502 12.9827417,18.3088901 12.32,18.3088901 L11.74,18.3088901 C11.0772583,18.3088901 10.54,18.8342502 10.54,19.4823148 L10.54,24 L7.6,24 C6.9372583,24 6.4,23.4746399 6.4,22.8265753 L6.4,14.6126022 C6.40002356,14.2440429 6.57758454,13.976001 6.87922,13.6760332 L11.51302,9.18122978 L11.55148,9.14368019 C12.0201073,8.68543994 11.9798927,8.68543994 12.44852,9.14368019 Z M12.7644917,0.283466786 C12.7991459,0.310236673 12.8322528,0.338841703 12.8636615,0.369151542 L23.648907,10.8392121 C24.116914,11.2934545 24.1170481,12.0299797 23.6492066,12.4843827 L22.0269557,14.0592255 C21.8022052,14.2774191 21.4973712,14.4 21.1795178,14.4 C20.8616645,14.4 20.5568305,14.2774191 20.33208,14.0592255 L11.9841358,5.95494834 L3.66753049,14.0283371 C3.19954485,14.4825092 2.44094009,14.4825092 1.97295445,14.0283371 L0.350883247,12.4536688 C-0.116961082,11.9993594 -0.116961082,11.2629239 0.350883247,10.8086146 L11.1346307,0.340008254 C11.5786983,-0.0905826302 12.2898962,-0.115254777 12.7644917,0.283466786 Z" id="path-1"></path>
    </defs>
    <g id="Icons---In-Use-(ME)" stroke="none" stroke-width="1" fill="none" fill-rule="evenodd">
        <g id="Icons" transform="translate(-541.000000, -422.000000)">
            <g id="Home" transform="translate(541.000000, 422.000000)">
                <mask id="mask-2" fill="white">
                    <use xlink:href="#path-1"></use>
                </mask>
                <use id="Rounded_Rectangle_1" fill="#FFFFFF" xlink:href="#path-1"></use>
                <g id="Group" mask="url(#mask-2)" fill="#1C2530">
                    <g id="💟-Icon-Style">
                        <rect id="Rectangle-2" x="0" y="0" width="24" height="24"></rect>
                    </g>
                </g>
            </g>
        </g>
    </g>
</svg>