<?xml version="1.0" encoding="utf-8"?>
<!-- Generator: Adobe Illustrator 26.0.2, SVG Export Plug-In . SVG Version: 6.00 Build 0)  -->
<svg version="1.1" id="Layer_1" xmlns="http://www.w3.org/2000/svg" xmlns:xlink="http://www.w3.org/1999/xlink" x="0px" y="0px"
	 viewBox="0 0 24 24" style="enable-background:new 0 0 24 24;" xml:space="preserve">
<style type="text/css">
	.st0{fill-rule:evenodd;clip-rule:evenodd;}
</style>
<g id="_x2708__xFE0F_-Journey-v1.4D">
	<g id="Class-Pathway---01" transform="translate(-26.000000, -231.000000)">
		<g id="My-Courses-Content" transform="translate(22.000000, 171.000000)">
			<g id="_x30_3---Icons_x2F_Miscellaneous_x2F_Info" transform="translate(0.000000, 60.000000)">
				<g id="Icon" transform="translate(4.083333, 0.000000)">
					<g id="Shape">
						<path fill="#000" id="path-1_00000158748503743382759490000009541514202826928280_" class="st0" d="M14.5,5.3c-1.5,0-2.7-1.2-2.7-2.7
							S13,0,14.5,0s2.7,1.2,2.7,2.7c0,0.7-0.3,1.4-0.8,1.9C15.9,5.1,15.2,5.3,14.5,5.3z M15.5,9.9c0,0,0.1,2.1-1.4,4.8
							c0,0-2.5,4.1-2.4,5.3c0,0-0.3,1.6,1.6,1.6c0,0,0.7,0.1,1.2-0.2c0,0-0.1,1.2-0.1,1.2S12.7,24,10.1,24c0,0.1-3.5,0.1-3.4-2.8
							c0,0-0.1-1.7,1.5-4.4c0,0.1,2.4-3.8,2.3-5.6c0,0,0.1-1.6-1.6-1.7c0,0-1,0.1-1.4,0.2l0.2-1.3c0,0,2.5-1.4,4.5-1.4
							C12.1,7.1,15.5,6.8,15.5,9.9z"/>
					</g>
				</g>
			</g>
		</g>
	</g>
</g>
</svg>
