<svg id="Layer_1" data-name="Layer 1" xmlns="http://www.w3.org/2000/svg" xmlns:xlink="http://www.w3.org/1999/xlink" viewBox="0 0 24 24"><defs><style>.cls-1{fill:#fff;}.cls-1,.cls-3{fill-rule:evenodd;}.cls-2{mask:url(#mask);}.cls-3{fill:#1d2631;}</style><mask id="mask" x="0" y="0" width="24" height="24" maskUnits="userSpaceOnUse"><g transform="translate(0 0)"><g id="mask-2"><polygon id="path-1" class="cls-1" points="0 0 24 0 24 24 0 24 0 0"/></g></g></mask></defs><g class="cls-2"><path id="Journey" class="cls-3" d="M22.9,12.87a6.69,6.69,0,0,0-5.41-2.36h-11C4.88,10.51,3,9.62,3,7.75S4.83,5,6.35,5h2.5a3.5,3.5,0,1,0,0-3H6.51C4.71,2,0,2.68,0,7.75c0,2.9,1.46,5.76,6.51,5.76h11c2.47,0,3.5,1.3,3.5,2.74a2.54,2.54,0,0,1-2.78,2.67L15.14,19a3.5,3.5,0,1,0,0,3h2.34C21.9,22,24,19.5,24,16.25a5.39,5.39,0,0,0-1.1-3.38" transform="translate(0 0)"/></g></svg>