<?xml version="1.0" encoding="utf-8"?>
<!-- Generator: Adobe Illustrator 27.9.0, SVG Export Plug-In . SVG Version: 6.00 Build 0)  -->
<svg version="1.1" id="Layer_1" xmlns="http://www.w3.org/2000/svg" xmlns:xlink="http://www.w3.org/1999/xlink" x="0px" y="0px"
	 viewBox="0 0 24 24" style="enable-background:new 0 0 24 24;" xml:space="preserve">
<g>
	<polygon fill="#000" points="10.68,6.27 9.58,7.92 11.23,6.82 12,11 12.77,6.82 14.53,7.92 13.32,6.27 17.5,5.5 13.32,4.73 
		14.53,3.08 12.77,4.18 12,0 11.23,4.18 9.58,3.08 10.68,4.73 6.5,5.5 	"/>
	<path fill="#000" d="M18,12H6l5.2,7.7L8.3,24h1.6l2.1-3.1l2.1,3.1h1.6l-2.9-4.3L18,12z M8.3,13.1h7.3L12,18.5L8.3,13.1z"/>
	<polygon fill="#000" points="10.1,13.97 12,16.87 13.9,13.97 	"/>
</g>
</svg>
