<?xml version="1.0" encoding="utf-8"?>
<!-- Generator: Adobe Illustrator 27.9.0, SVG Export Plug-In . SVG Version: 6.00 Build 0)  -->
<svg version="1.1" id="Layer_1" xmlns="http://www.w3.org/2000/svg" xmlns:xlink="http://www.w3.org/1999/xlink" x="0px" y="0px"
	 viewBox="0 0 24 24" style="enable-background:new 0 0 24 24;" xml:space="preserve">
<g>
	<path fill="#000" d="M12.26,0h-0.52v5.43c0.18,0,0.34,0.04,0.52,0.05V0z"/>
	<path fill="#000" d="M10.54,5.55L9.92,3.22l-0.5,0.13l0.62,2.32C10.2,5.63,10.37,5.58,10.54,5.55z"/>
	<path fill="#000" d="M8.89,6.09L6.22,1.48L5.78,1.74l2.66,4.6C8.58,6.25,8.73,6.16,8.89,6.09z"/>
	<path fill="#000" d="M7.41,7.05L5.8,5.44L5.44,5.8l1.58,1.58C7.14,7.26,7.28,7.16,7.41,7.05z"/>
	<path fill="#000" d="M1.48,6.22L5.94,8.8C6.03,8.65,6.1,8.49,6.2,8.35L1.74,5.78L1.48,6.22z"/>
	<path fill="#000" d="M17.53,15.49l4.73,2.73l0.26-0.45l-4.74-2.74C17.7,15.19,17.62,15.34,17.53,15.49z"/>
	<path fill="#000" d="M20.65,14.59l0.13-0.5l-2.46-0.66c-0.03,0.17-0.09,0.33-0.14,0.5L20.65,14.59z"/>
	<path fill="#000" d="M3.35,9.41l-0.13,0.5l2.04,0.55c0.04-0.17,0.1-0.33,0.15-0.5L3.35,9.41z"/>
	<path fill="#000" d="M5.02,12.15c0-0.14,0.03-0.27,0.04-0.41H0v0.52h5.03L5.02,12.15z"/>
	<path fill="#000" d="M18.41,11.74c0.01,0.14,0.04,0.27,0.04,0.41l-0.01,0.11H24v-0.52H18.41z"/>
	<path fill="#000" d="M20.65,9.41L18.1,10.1c0.05,0.16,0.11,0.33,0.15,0.5l2.53-0.68L20.65,9.41z"/>
	<path fill="#000" d="M3.22,14.08l0.13,0.5l1.98-0.53c-0.05-0.17-0.12-0.32-0.15-0.5L3.22,14.08z"/>
	<path fill="#000" d="M22.52,6.22l-0.26-0.45l-4.86,2.8c0.09,0.15,0.17,0.3,0.25,0.46L22.52,6.22z"/>
	<path fill="#000" d="M1.48,17.78l0.26,0.45l4.33-2.5c-0.09-0.15-0.17-0.3-0.25-0.46L1.48,17.78z"/>
	<path fill="#000" d="M16.35,7.29c0.13,0.12,0.24,0.25,0.36,0.38l1.86-1.86L18.2,5.44L16.35,7.29z"/>
	<path fill="#000" d="M18.22,1.74l-0.45-0.26l-2.79,4.83c0.15,0.08,0.31,0.15,0.46,0.25L18.22,1.74z"/>
	<path fill="#000" d="M14.59,3.35l-0.5-0.13l-0.66,2.46c0.17,0.04,0.33,0.1,0.5,0.15L14.59,3.35z"/>
	<path fill="#000" d="M10.78,18.12c-1.09-1.65-0.28-3.02,1.09-4.58c0,2.6,1.65,2.8,1.35,4.58c3.19-2.39-0.17-4.56-0.17-9.57
		C7.36,13.09,8.4,17.48,10.78,18.12z"/>
	<path fill="#000" d="M16.61,20.16H12.4c-0.01-0.32-0.07-0.9-0.31-1.49c-0.05-0.13-0.2-0.19-0.34-0.14c-0.13,0.05-0.2,0.2-0.14,0.34
		c0.2,0.51,0.26,1.01,0.27,1.3h-4.5c-0.5,0-0.86,0.47-0.74,0.95l0.6,2.32C7.34,23.77,7.64,24,7.99,24h8.02
		c0.35,0,0.65-0.23,0.74-0.57l0.6-2.32C17.47,20.63,17.11,20.16,16.61,20.16z"/>
</g>
</svg>
