<?xml version="1.0" encoding="utf-8"?>
<!-- Generator: Adobe Illustrator 26.0.2, SVG Export Plug-In . SVG Version: 6.00 Build 0)  -->
<svg version="1.1" id="Layer_1" xmlns="http://www.w3.org/2000/svg" xmlns:xlink="http://www.w3.org/1999/xlink" x="0px" y="0px"
	 viewBox="0 0 24 24" style="enable-background:new 0 0 24 24;" xml:space="preserve">
<style type="text/css">
	.st0{fill-rule:evenodd;clip-rule:evenodd;fill:#000;}
</style>
<path class="st0" d="M1.2,16.9c-0.1,1.6,1.2,3,2.9,3.1c0.1,0,0.3,0,0.4,0c2.5,0,2.8-2.7,2.8-3.1c-0.1-0.9-0.4-1.7-0.7-2.4
	c-0.1-0.4-0.4-0.7-0.9-0.6L2,14.3c-0.4,0.1-0.7,0.4-0.7,0.9C1.3,15.7,1.3,16.3,1.2,16.9 M0.9,11.9c0.1,0.4,0.4,0.7,0.9,0.6l4.1-0.6
	c0.3,0,0.6-0.3,0.7-0.6c0.6-1.7,2.3-3,2.3-6c0-3.5-1.5-5.2-4.1-5.4C3.6,0,0.3,0,0,7.5C0,9.1,0.3,10.5,0.9,11.9z M22.8,20.9
	c0.1,1.6-1.2,3-2.9,3.1c-0.1,0-0.3,0-0.4,0c-2.5,0-2.8-2.7-2.8-3.1c0.1-0.9,0.3-1.6,0.7-2.3c0.1-0.4,0.4-0.7,0.9-0.7l3.6,0.4
	c0.4,0,0.7,0.4,0.7,0.9C22.7,19.7,22.7,20.3,22.8,20.9 M23.1,15.9c-0.1,0.4-0.4,0.7-0.9,0.6l-4.1-0.6c-0.3,0-0.6-0.3-0.7-0.6
	c-0.6-1.7-2.3-3-2.3-6c0-3.5,1.5-5.2,4.1-5.4c0.5,0,4.5,0,4.8,7.5C24,13.1,23.7,14.5,23.1,15.9z"/>
</svg>
