<?xml version="1.0" encoding="utf-8"?>
<!-- Generator: Adobe Illustrator 27.9.0, SVG Export Plug-In . SVG Version: 6.00 Build 0)  -->
<svg version="1.1" id="Layer_1" xmlns="http://www.w3.org/2000/svg" xmlns:xlink="http://www.w3.org/1999/xlink" x="0px" y="0px"
	 viewBox="0 0 24 24" style="enable-background:new 0 0 24 24;" xml:space="preserve">
<style type="text/css">
	.st0{fill-rule:evenodd;clip-rule:evenodd;fill:#000;}
</style>
<g>
	<path class="st0" d="M12,10l2.7,1.5L14.6,12l1.9,1l-0.1,0.5l1.9,1V15l1.9,1l-0.1,0.5l1.9,1L21.9,18l1.9,1.4L23,20.8l-1.7-1.3V24
		h-1.7v-4.6v0.1L12,16.8l-7.9,2.7V24H2.4v-4.4l-1.7,1.3L0,19.6l1.9-1.4l-0.1-0.5l1.9-1l-0.1-0.5l1.9-1l-0.1-0.5l1.9-1L7.5,13l1.9-1
		l-0.1-0.5L12,10z M16.2,15.4l-2.4,0.8l6,2L16.2,15.4z M7.8,15.4l-3.6,2.8l6-2L7.8,15.4z M12.5,12.4v3l2.6-0.9L12.5,12.4z
		 M11.5,12.4l-2.6,2.1l2.6,0.9V12.4z M21,6.8l0.5,2.6L24,9.8l-2.6,0.4L21,12.8l-0.5-2.5L18,9.8l2.5-0.4L21,6.8z M6,0l0.8,4.6
		l1.9-1.3L7.4,5.2L12,6L7.4,6.8l1.3,1.9L6.8,7.4L6,12L5.2,7.4L3.3,8.7l1.3-1.9L0,6l4.6-0.8L3.3,3.3l1.9,1.3L6,0z M16.5,0L17,2.6
		L19.5,3L17,3.5L16.5,6L16,3.5L13.5,3l2.6-0.5L16.5,0z"/>
</g>
</svg>
