<?xml version="1.0" encoding="utf-8"?>
<!-- Generator: Adobe Illustrator 27.9.0, SVG Export Plug-In . SVG Version: 6.00 Build 0)  -->
<svg version="1.1" id="Layer_1" xmlns="http://www.w3.org/2000/svg" xmlns:xlink="http://www.w3.org/1999/xlink" x="0px" y="0px"
	 viewBox="0 0 24 24" style="enable-background:new 0 0 24 24;" xml:space="preserve">
<style type="text/css">
	.st0{fill-rule:evenodd;clip-rule:evenodd;fill:#1C2530;}
</style>
<g id="November-Launch-Prep-v1.2">
	<g id="Class-Pathway---01" transform="translate(-305, -783)">
		<path id="icon-crown" class="st0" d="M327.1,792c-0.7-0.1-1.4,0.1-1.5,0.6c-0.1,0.5,0.5,1,1.3,1.2c0.1,0,0.3,0,0.4,0.1
			c-3.2,2-7.4,0.9-9.3-2.5c0,0,0,0,0,0c0.9-0.2,1.5-0.6,1.5-1c0-0.4-0.5-0.8-1.2-0.9c-0.2-1-0.7-2.3-1.3-2.3s-1.1,1.3-1.3,2.3
			c-0.7,0.2-1.2,0.5-1.2,0.9c0,0.4,0.6,0.8,1.5,1c0,0,0,0,0,0c-1.9,3.4-6.1,4.5-9.3,2.5c0.1,0,0.3,0,0.4-0.1
			c0.8-0.2,1.4-0.7,1.3-1.2c-0.1-0.4-0.7-0.7-1.5-0.6c-0.3-0.9-1.1-2.2-1.7-2.1c-0.4,0.1,0,2.8,0,2.8l1.4,7.4l20.8-0.1l1.4-7.3
			c0,0,0.5-2.9,0-3C328.2,789.8,327.4,791.1,327.1,792z M327.2,801.3h-20.4c-0.4,0-0.8,0.3-0.8,0.7v0.2c0,0.4,0.3,0.7,0.8,0.7h20.4
			c0.4,0,0.8-0.3,0.8-0.7V802C327.9,801.6,327.6,801.3,327.2,801.3"/>
	</g>
</g>
</svg>
