<?xml version="1.0" encoding="UTF-8"?>
<svg id="Layer_1" data-name="Layer 1" xmlns="http://www.w3.org/2000/svg" viewBox="0 0 24 24">
  <defs>
    <style>
      .cls-1 {
        fill: #333;
      }
    </style>
  </defs>
  <path class="cls-1" d="M11.73,21.16c-.55,0-1.1-.06-1.66-.19-.56-.12-1.13-.3-1.71-.53.2-2.02.78-3.9,1.75-5.65s2.21-3.3,3.73-4.63c-1.83.93-3.42,2.17-4.76,3.7-1.34,1.53-2.28,3.28-2.81,5.25-.07-.05-.13-.1-.19-.16l-.19-.19c-.78-.78-1.38-1.66-1.79-2.62-.41-.97-.61-1.98-.61-3.03,0-1.13.23-2.22.67-3.25.45-1.03,1.08-1.95,1.88-2.75,1.35-1.35,3.1-2.23,5.25-2.64,2.15-.41,5.17-.44,9.05-.11.3,3.98.25,7.02-.15,9.11-.4,2.09-1.27,3.81-2.6,5.14-.82.82-1.73,1.45-2.74,1.89-1.01.44-2.05.66-3.11.66Z"/>
</svg>