<?xml version="1.0" encoding="UTF-8"?>
<svg width="24px" height="24px" viewBox="0 0 24 24" version="1.1" xmlns="http://www.w3.org/2000/svg" xmlns:xlink="http://www.w3.org/1999/xlink">
    <title>Log Out</title>
    <g id="Icons---In-Use-(ME)" stroke="none" stroke-width="1" fill="none" fill-rule="evenodd">
        <g id="Icons" transform="translate(-785.000000, -424.000000)" fill="#1C2530">
            <path d="M797.75,430.75 L794.75,430.75 L794.75,441.25 L797.75,441.25 L797.75,445.75 C797.75,446.992641 796.742641,448 795.5,448 L787.25,448 C786.007359,448 785,446.992641 785,445.75 L785,426.25 C785,425.007359 786.007359,424 787.25,424 L795.5,424 C796.742641,424 797.75,425.007359 797.75,426.25 L797.75,430.75 Z M788,427 L788,445 L794.75,445 L794.75,427 L788,427 Z M801.122136,439.936885 L803.350523,437.68808 L793.420455,437.685128 C793.420455,437.685128 791.75,437.685128 791.75,435.998102 C791.75,434.311077 793.420455,434.311077 793.420455,434.311077 L803.350523,434.312342 L801.122136,432.06185 C800.485693,431.419093 800.485693,430.374824 801.122136,429.732068 C801.76025,429.089311 802.792591,429.089311 803.430705,429.732068 L808.288386,434.637938 C808.762795,435.153831 809,435.607641 809,435.999367 C809,436.391093 808.761682,436.84659 808.285045,437.365858 L803.430705,442.266667 C802.792591,442.911111 801.76025,442.911111 801.122136,442.266667 C800.485693,441.62391 800.485693,440.581329 801.122136,439.936885 Z" id="Log-Out"></path>
        </g>
    </g>
</svg>