<?xml version="1.0" encoding="UTF-8"?>
<svg id="Layer_1" data-name="Layer 1" xmlns="http://www.w3.org/2000/svg" viewBox="0 0 24 24">
  <defs>
    <style>
      .cls-1 {
        fill: #333;
      }
    </style>
  </defs>
  <path class="cls-1" d="M5,20c-.83,0-1.54-.29-2.12-.88-.58-.58-.88-1.29-.88-2.12v-5h14.02c.08-.57.31-1.06.68-1.49.37-.42.82-.73,1.35-.91l4.62-1.55.62,1.9-4.62,1.55c-.2.07-.36.19-.49.36-.12.18-.19.37-.19.59v4.55c0,.83-.29,1.54-.88,2.12-.58.59-1.29.88-2.12.88H5ZM4.42,10c.23-.6.27-1.13.11-1.6-.16-.47-.43-.93-.81-1.4-.55-.67-.91-1.3-1.09-1.89-.17-.59-.2-1.29-.09-2.11h1.95c-.13.63-.15,1.15-.06,1.55.09.4.33.83.71,1.3.63.77,1.04,1.45,1.21,2.04.17.59.18,1.29.01,2.11h-1.95ZM8.42,10c.23-.6.28-1.13.12-1.6-.15-.47-.42-.93-.8-1.4-.55-.67-.92-1.3-1.1-1.89-.18-.59-.22-1.29-.1-2.11h1.95c-.13.63-.15,1.15-.06,1.55.09.4.33.83.71,1.3.63.77,1.04,1.45,1.21,2.04.17.59.18,1.29.01,2.11h-1.95ZM12.42,10c.23-.6.28-1.13.12-1.6-.15-.47-.42-.93-.8-1.4-.55-.67-.92-1.3-1.1-1.89-.18-.59-.22-1.29-.1-2.11h1.95c-.13.63-.15,1.15-.06,1.55.09.4.33.83.71,1.3.63.77,1.04,1.45,1.21,2.04.17.59.18,1.29.01,2.11h-1.95Z"/>
</svg>