<?xml version="1.0" encoding="utf-8"?>
<!-- Generator: Adobe Illustrator 26.0.2, SVG Export Plug-In . SVG Version: 6.00 Build 0)  -->
<svg version="1.1" id="Layer_1" xmlns="http://www.w3.org/2000/svg" xmlns:xlink="http://www.w3.org/1999/xlink" x="0px" y="0px"
	 viewBox="0 0 24 24" style="enable-background:new 0 0 24 24;" xml:space="preserve">
<g transform="translate(-10.0 -13.0)">
	<g transform="translate(0.8187702265367989 2.0)">
		<g transform="translate(9.181229773463201 11.0)">
			<g>
				<defs>
					<path id="SVGID_1_" d="M15.2,0v6.5c0,1.1,0.9,2,2,2H24v8c0,1.7-1.3,3-3,3l-5.4,0c-1.4,2.7-4.1,4.5-7.3,4.5
						C3.7,24,0,20.3,0,15.8c0-4.3,3.3-7.9,7.6-8.2l0-4.5c0-1.7,1.3-3,3-3H15.2z M8.2,9.6c-3.4,0-6.2,2.8-6.2,6.2s2.8,6.2,6.2,6.2
						s6.2-2.8,6.2-6.2S11.7,9.6,8.2,9.6z M7.4,13.1l3.5,2.1c0.5,0.3,0.5,0.8,0,1.2l-3.5,2.1c-0.5,0.3-1,0.1-1-0.5v-4.3
						C6.4,13.1,6.8,12.8,7.4,13.1z M17.7,0L24,6.1h-5.3c-0.5,0-1-0.5-1-1V0z"/>
				</defs>
				<use xlink:href="#SVGID_1_"  style="overflow:visible;fill:#000;"/>
				<clipPath id="SVGID_00000173879348170062699960000013899036753064563077_">
					<use xlink:href="#SVGID_1_"  style="overflow:visible;"/>
				</clipPath>
			</g>
		</g>
	</g>
</g>
</svg>
