<?xml version="1.0" encoding="UTF-8"?>
<svg width="16px" height="24px" viewBox="0 0 16 24" version="1.1" xmlns="http://www.w3.org/2000/svg" xmlns:xlink="http://www.w3.org/1999/xlink">
    <title>Ministry</title>
    <defs>
        <path d="M8.83688618,21.6733586 C8.78424814,21.680014 8.73241682,21.6840476 8.68098885,21.6866694 C11.5912067,19.0503307 15.0029986,14.9352866 16.825162,9.11142229 C16.8215318,9.1382455 14.2315791,15.6702023 7.56570785,21.4012946 L7.56570785,21.4012946 C6.61405715,22.342292 5.5934116,23.210852 4.51229837,23.9997178 C4.51229837,23.9997178 3.82074347,24.0342048 4.04460639,23.3406332 C5.11474189,22.6310903 6.1410672,21.8575916 7.11798202,21.0243579 C5.01165384,18.7332924 5.93372703,11.1481715 12.8892083,8.2581214 C17.4648856,6.35750509 18.4611764,0 18.4611764,0 C18.4611764,0 24.8844286,18.8216275 8.83688618,21.6733586 L8.83688618,21.6733586 Z" id="path-1"></path>
    </defs>
    <g id="Icons---In-Use-(ME)" stroke="none" stroke-width="1" fill="none" fill-rule="evenodd">
        <g id="Icons" transform="translate(-669.000000, -717.000000)">
            <g id="Ministry" transform="translate(665.000000, 717.000000)">
                <rect id="Rectangle-5" x="0" y="0" width="24" height="24"></rect>
                <mask id="mask-2" fill="white">
                    <use xlink:href="#path-1"></use>
                </mask>
                <use id="Shape-Copy-2" fill="#1C2530" xlink:href="#path-1"></use>
            </g>
        </g>
    </g>
</svg>