<?xml version="1.0" encoding="UTF-8"?>
<svg id="Layer_1" data-name="Layer 1" xmlns="http://www.w3.org/2000/svg" viewBox="0 0 24 24">
  <defs>
    <style>
      .cls-1 {
        fill: #333;
      }
    </style>
  </defs>
  <path class="cls-1" d="M9,14.5v-1.5h6v1.5h-6ZM8,11.5v-1.5h8v1.5h-8ZM7,23c-.55,0-1.02-.2-1.41-.59-.39-.39-.59-.86-.59-1.41V3c0-.55.2-1.02.59-1.41.39-.39.86-.59,1.41-.59h10c.55,0,1.02.2,1.41.59.39.39.59.86.59,1.41v18c0,.55-.2,1.02-.59,1.41-.39.39-.86.59-1.41.59H7ZM7,18h10V6H7v12Z"/>
</svg>