<svg xmlns="http://www.w3.org/2000/svg" width="24" height="24" viewBox="0 0 24 24">
  <path fill="#1C2530" fill-rule="evenodd" d="M82.0054385,865 C83.1070044,865 84,865.897026 84,867.004947 L84,886.995053 C84,888.102355 83.0976562,889 82.0054385,889 L64.9945615,889 C63.8929956,889 63,888.102974 63,886.995053 L63,885.249 L64.0020869,885.25 C65.0517552,885.25 65.9179238,884.434134 65.9944977,883.399289 L66,883.250028 L66,882.749972 C66,881.639055 65.1055038,880.75 64.0020869,880.75 L64.0020869,880.75 L63,880.749 L63,879.249 L64.0020869,879.25 C65.0517552,879.25 65.9179238,878.434134 65.9944977,877.399289 L66,877.250028 L66,876.749972 C66,875.639055 65.1055038,874.75 64.0020869,874.75 L64.0020869,874.75 L63,874.749 L63,873.25 L64.0020869,873.25 C65.0517552,873.25 65.9179238,872.434134 65.9944977,871.399289 L66,871.250028 L66,870.749972 C66,869.639055 65.1055038,868.75 64.0020869,868.75 L64.0020869,868.75 L63,868.75 L63,867.004947 C63,865.897645 63.9023438,865 64.9945615,865 L82.0054385,865 Z M63.7569165,876.25 C64.1331107,876.25 64.4440121,876.529727 64.4932165,876.897623 L64.5,877 C64.5,877.414214 64.1617686,877.75 63.7569165,877.75 L60.7430835,877.75 C60.3326898,877.75 60,877.417101 60,877 C60,876.585786 60.3382314,876.25 60.7430835,876.25 L63.7569165,876.25 Z M63.7569165,870.25 C64.1331107,870.25 64.4440121,870.529727 64.4932165,870.897623 L64.5,871 C64.5,871.414214 64.1617686,871.75 63.7569165,871.75 L60.7430835,871.75 C60.3326898,871.75 60,871.417101 60,871 C60,870.585786 60.3382314,870.25 60.7430835,870.25 L63.7569165,870.25 Z M63.7569165,882.25 C64.1331107,882.25 64.4440121,882.529727 64.4932165,882.897623 L64.5,883 C64.5,883.414214 64.1617686,883.75 63.7569165,883.75 L60.7430835,883.75 C60.3326898,883.75 60,883.417101 60,883 C60,882.585786 60.3382314,882.25 60.7430835,882.25 L63.7569165,882.25 Z M70.481,879.351 L72.447,881.318 L71.6436622,882.122678 L69.1840825,882.615918 L69.6761819,880.155211 L70.481,879.351 Z M77.066,872.768 L79.033,874.735 L77.7360855,876.035312 L73.345,880.422 L71.378,878.454 L75.7681465,874.067388 L77.066,872.768 Z M80.0090068,871.791074 C80.5515544,872.333271 80.5515544,873.215886 80.0090068,873.758541 L79.851,873.916 L77.884,871.949 L78.0415265,871.791074 C78.5840741,871.248419 79.4669178,871.248419 80.0090068,871.791074 Z" transform="translate(-60 -865)"/>
</svg>
