<?xml version="1.0" encoding="UTF-8"?>
<svg id="Layer_1" data-name="Layer 1" xmlns="http://www.w3.org/2000/svg" viewBox="0 0 24 24">
  <defs>
    <style>
      .cls-1 {
        fill: #333;
      }
    </style>
  </defs>
  <path class="cls-1" d="M7.01,20v-11.02c0-.55.2-1.02.6-1.4.4-.39.88-.58,1.42-.58h10.98c.55,0,1.02.2,1.41.59.39.39.59.86.59,1.41v8l-5,5h-8c-.55,0-1.02-.2-1.41-.59-.39-.39-.59-.86-.59-1.41ZM2.03,6.25c-.1-.55,0-1.05.33-1.49.32-.44.75-.71,1.3-.81l10.85-1.92c.55-.1,1.05,0,1.49.32.44.32.71.75.81,1.3l.25,1.35h-8.05c-1.1,0-2.04.39-2.83,1.18-.78.78-1.17,1.72-1.17,2.82v9.55c-.27-.15-.5-.35-.69-.6-.19-.25-.31-.53-.36-.85l-1.93-10.85ZM20.01,16h-4v4l4-4Z"/>
</svg>