<?xml version="1.0" encoding="UTF-8"?>
<svg width="20px" height="24px" viewBox="0 0 20 24" version="1.1" xmlns="http://www.w3.org/2000/svg" xmlns:xlink="http://www.w3.org/1999/xlink">
    <title>Note</title>
    <defs>
        <path d="M13,0 L13,6.50712765 C13,7.60641652 13.8942627,8.5 14.9973917,8.5 L14.9973917,8.5 L21.999,8.5 L22,21.0089096 C22,22.6608432 20.656688,24 19.0057979,24 L4.99420208,24 C3.34054993,24 2,22.6582294 2,21.0089096 L2,2.99109042 C2,1.33915679 3.34331197,0 4.99420208,0 L13,0 Z M14.3321265,17.947998 C14.8455813,17.947998 15.2687627,18.3307182 15.3265975,18.8306655 L15.3333333,18.947998 C15.3333333,19.5002828 14.8770903,19.947998 14.3321265,19.947998 L5.05248884,19.947998 C4.4995376,19.947998 4.05128205,19.5041332 4.05128205,18.947998 C4.05128205,18.3957133 4.5075251,17.947998 5.05248884,17.947998 L14.3321265,17.947998 Z M19.0023363,13.947998 C19.513974,13.947998 19.9356578,14.3307182 19.993288,14.8306655 L20,14.947998 C20,15.5002828 19.5567942,15.947998 19.0023363,15.947998 L5.04894579,15.947998 C4.49795132,15.947998 4.05128205,15.5041332 4.05128205,14.947998 C4.05128205,14.3957133 4.49448781,13.947998 5.04894579,13.947998 L19.0023363,13.947998 Z M16.0054365,9.94799805 C16.5154843,9.94799805 16.9358578,10.3307182 16.9933088,10.8306655 L17,10.947998 C17,11.5002828 16.5542758,11.947998 16.0054365,11.947998 L5.04584552,11.947998 C4.49656328,11.947998 4.05128205,11.5041332 4.05128205,10.947998 C4.05128205,10.3957133 4.49700623,9.94799805 5.04584552,9.94799805 L16.0054365,9.94799805 Z M8.99088109,5.94799805 C9.50839343,5.94799805 9.93491906,6.33071823 9.99321092,6.83066549 L10,6.94799805 C10,7.5002828 9.55287931,7.94799805 8.99088109,7.94799805 L5.06040096,7.94799805 C4.50307998,7.94799805 4.05128205,7.50413322 4.05128205,6.94799805 C4.05128205,6.3957133 4.49840274,5.94799805 5.06040096,5.94799805 L8.99088109,5.94799805 Z M15.3333333,0 L22,6.5 L16.3314007,6.5 C15.781104,6.5 15.3333333,6.05166687 15.3333333,5.49861994 L15.3333333,5.49861994 L15.3333333,0 Z" id="path-1"></path>
    </defs>
    <g id="Icons---In-Use-(ME)" stroke="none" stroke-width="1" fill="none" fill-rule="evenodd">
        <g id="Icons" transform="translate(-307.000000, -566.000000)">
            <g id="Note" transform="translate(305.000000, 566.000000)">
                <rect id="Rectangle-7" x="0" y="0" width="24" height="24"></rect>
                <mask id="mask-2" fill="white">
                    <use xlink:href="#path-1"></use>
                </mask>
                <use id="Rectangle-581-Copy-5" fill="#1C2530" transform="translate(12.000000, 12.000000) scale(1, -1) translate(-12.000000, -12.000000) " xlink:href="#path-1"></use>
                <g id="Group" mask="url(#mask-2)" fill="#1C2530">
                    <g id="💟-Icon-Style">
                        <rect id="Rectangle-2" x="0" y="0" width="24" height="24"></rect>
                    </g>
                </g>
            </g>
        </g>
    </g>
</svg>