<?xml version="1.0" encoding="UTF-8"?>
<svg width="24px" height="24px" viewBox="0 0 24 24" version="1.1" xmlns="http://www.w3.org/2000/svg" xmlns:xlink="http://www.w3.org/1999/xlink">
    <title>One-time Opportunity</title>
    <defs>
        <path d="M21,3 L21.9950534,3 C23.1023548,3 24,3.90234375 24,4.99456145 L24,22.0054385 C24,23.1070044 23.1029738,24 21.9950534,24 L2.00494659,24 C0.897645164,24 0,23.0976562 0,22.0054385 L0,4.99456145 C0,3.89299558 0.897026226,3 2.00494659,3 L3,3 L3,5.49013764 C3,6.61019951 3.89449617,7.5 4.99791312,7.5 L7.00208688,7.5 C8.10173938,7.5 9,6.60015397 9,5.49013764 L9,3 L15,3 L15,5.49013764 C15,6.61019951 15.8944962,7.5 16.9979131,7.5 L19.0020869,7.5 C20.1017394,7.5 21,6.60015397 21,5.49013764 L21,3 Z M3,12.4996846 L3,19.0003154 C3,20.1047759 3.8932319,21 4.99508929,21 L19.0049107,21 C20.1073772,21 21,20.1047107 21,19.0003154 L21,12.4996846 C21,11.3952241 20.1067681,10.5 19.0049107,10.5 L4.99508929,10.5 C3.8926228,10.5 3,11.3952893 3,12.4996846 Z M4.5,0.990777969 C4.5,0.443586406 4.94266033,0 5.49895656,0 L6.50104344,0 C7.05275191,0 7.5,0.45097518 7.5,0.990777969 L7.5,5.00922203 C7.5,5.55641359 7.05733967,6 6.50104344,6 L5.49895656,6 C4.94724809,6 4.5,5.54902482 4.5,5.00922203 L4.5,0.990777969 Z M16.5,0.990777969 C16.5,0.443586406 16.9426603,0 17.4989566,0 L18.5010434,0 C19.0527519,0 19.5,0.45097518 19.5,0.990777969 L19.5,5.00922203 C19.5,5.55641359 19.0573397,6 18.5010434,6 L17.4989566,6 C16.9472481,6 16.5,5.54902482 16.5,5.00922203 L16.5,0.990777969 Z M13.5,12 L13.5,19.5 L11.5591142,19.5 L11.5591142,15.4789994 C11.5591142,14.8983912 11.5447018,14.5494138 11.5158766,14.4320568 C11.4870515,14.3146998 11.4077834,14.2259114 11.2780701,14.1656887 C11.1483568,14.105466 10.8593086,14.0753552 10.4109169,14.0753552 L10.21875,14.0753552 L10.21875,13.1998147 C11.1571698,13.0052492 11.8697816,12.6053149 12.3566069,12 L13.5,12 Z" id="path-1"></path>
    </defs>
    <g id="Icons---In-Use-(ME)" stroke="none" stroke-width="1" fill="none" fill-rule="evenodd">
        <g id="Icons" transform="translate(-61.000000, -791.000000)">
            <g id="One-time-Opportunity" transform="translate(61.000000, 791.000000)">
                <rect id="Rectangle-4" x="0" y="0" width="24" height="24"></rect>
                <mask id="mask-2" fill="white">
                    <use xlink:href="#path-1"></use>
                </mask>
                <use id="Path-Copy-11" fill="#1C2530" xlink:href="#path-1"></use>
                <g id="Group" mask="url(#mask-2)" fill="#1C2530">
                    <g id="💟-Icon-Style">
                        <rect id="Rectangle-2" x="0" y="0" width="24" height="24"></rect>
                    </g>
                </g>
            </g>
        </g>
    </g>
</svg>