<?xml version="1.0" encoding="utf-8"?>
<!-- Generator: Adobe Illustrator 26.0.2, SVG Export Plug-In . SVG Version: 6.00 Build 0)  -->
<svg version="1.1" id="Layer_1" xmlns="http://www.w3.org/2000/svg" xmlns:xlink="http://www.w3.org/1999/xlink" x="0px" y="0px"
	 viewBox="0 0 24 24" style="enable-background:new 0 0 24 24;" xml:space="preserve">
<style type="text/css">
	.st0{fill-rule:evenodd;clip-rule:evenodd;fill:#000;}
</style>
<g id="Name-Icon_x27_-Copy-3">
	<path id="path-1_00000154402744947824479320000004878190528782487939_" class="st0" d="M0.6,24c-1.1-1.8-0.7-5.4,0.4-6.6
		c0.5-0.6,6.4-1.7,6.4-1.7c1.1-0.2,1.4-1.2,0.9-2.1c0,0-2.3-3.2-2.3-6.1C6,3.3,6.8,0,12,0c5.2,0,6,3.3,6,7.5c0,2.9-2.3,6.1-2.3,6.1
		c-0.6,0.9-0.2,1.9,0.9,2.1c0,0,5.8,1.2,6.3,1.7c1.1,1.2,1.5,4.8,0.4,6.6H0.6z"/>
</g>
</svg>
