<?xml version="1.0" encoding="utf-8"?>
<!-- Generator: Adobe Illustrator 26.0.2, SVG Export Plug-In . SVG Version: 6.00 Build 0)  -->
<svg version="1.1" id="Layer_1" xmlns="http://www.w3.org/2000/svg" xmlns:xlink="http://www.w3.org/1999/xlink" x="0px" y="0px"
	 viewBox="0 0 24 24" style="enable-background:new 0 0 24 24;" xml:space="preserve">
<g>
	<defs>
		<path id="SVGID_1_" d="M18.8,0c0.8,0,1.5,0.7,1.5,1.6v20.8c0,0.9-0.7,1.6-1.5,1.6c-0.3,0-0.6-0.1-0.8-0.2l-5.9-4l-6,4
			C5.4,24.2,4.4,24,4,23.3c-0.2-0.3-0.2-0.5-0.2-0.8V1.6C3.8,0.7,4.4,0,5.2,0H18.8z M12,5.2l-1.5,3.3L7,8.9l2.6,2.4l-0.7,3.5L12,13
			l3.1,1.8l-0.7-3.5L17,8.9l-3.5-0.4L12,5.2z M2.2,1.5v5.2H0.8C0.3,6.8,0,6.4,0,6V2.2c0-0.4,0.3-0.8,0.8-0.8H2.2z M23.2,1.5
			c0.4,0,0.8,0.3,0.8,0.8V6c0,0.4-0.3,0.8-0.8,0.8h-1.5V1.5H23.2z"/>
	</defs>
	<use xlink:href="#SVGID_1_"  style="overflow:visible;fill:#000;"/>
	<clipPath id="SVGID_00000019636725102059485820000004562803542329837467_">
		<use xlink:href="#SVGID_1_"  style="overflow:visible;"/>
	</clipPath>
</g>
</svg>
