<?xml version="1.0" encoding="UTF-8"?>
<svg width="13px" height="24px" viewBox="0 0 13 24" version="1.1" xmlns="http://www.w3.org/2000/svg" xmlns:xlink="http://www.w3.org/1999/xlink">
    <title>Phone - Cell</title>
    <defs>
        <path d="M7.5,0 L17.25,0 C18.0784271,0 18.75,0.671572875 18.75,1.5 L18.75,22.5 C18.75,23.3284271 18.0784271,24 17.25,24 L7.5,24 C6.67157288,24 6,23.3284271 6,22.5 L6,1.5 C6,0.671572875 6.67157288,0 7.5,0 Z M10.125,1.5 C9.91789322,1.5 9.75,1.66789322 9.75,1.875 C9.75,2.08210678 9.91789322,2.25 10.125,2.25 L14.625,2.25 C14.8321068,2.25 15,2.08210678 15,1.875 C15,1.66789322 14.8321068,1.5 14.625,1.5 L10.125,1.5 Z M12.375,21 C11.7536797,21 11.25,21.5036797 11.25,22.125 C11.25,22.7463203 11.7536797,23.25 12.375,23.25 C12.9963203,23.25 13.5,22.7463203 13.5,22.125 C13.5,21.5036797 12.9963203,21 12.375,21 Z M8.25,3.75 C7.83578644,3.75 7.5,4.08578644 7.5,4.5 L7.5,19.5 C7.5,19.9142136 7.83578644,20.25 8.25,20.25 L16.5,20.25 C16.9142136,20.25 17.25,19.9142136 17.25,19.5 L17.25,4.5 C17.25,4.08578644 16.9142136,3.75 16.5,3.75 L8.25,3.75 Z" id="path-1"></path>
    </defs>
    <g id="Icons---In-Use-(ME)" stroke="none" stroke-width="1" fill="none" fill-rule="evenodd">
        <g id="Icons" transform="translate(-899.000000, -571.000000)">
            <g id="Phone---Cell" transform="translate(893.000000, 571.000000)">
                <rect id="Rectangle-4" x="0" y="0" width="24" height="24"></rect>
                <mask id="mask-2" fill="white">
                    <use xlink:href="#path-1"></use>
                </mask>
                <use id="Combined-Shape-Copy-24" fill="#1C2530" xlink:href="#path-1"></use>
            </g>
        </g>
    </g>
</svg>