<?xml version="1.0" encoding="UTF-8"?>
<svg width="24px" height="24px" viewBox="0 0 24 24" version="1.1" xmlns="http://www.w3.org/2000/svg" xmlns:xlink="http://www.w3.org/1999/xlink">
    <title>Phone - Work</title>
    <defs>
        <path d="M8.25,0.75 L21,0.75 C22.6568542,0.75 24,2.09314575 24,3.75 L24,20.25 C24,21.9068542 22.6568542,23.25 21,23.25 L8.25,23.25 L8.25,0.75 Z M0,21.75 L0,2.25 L0,21.75 Z M13.5,3 C12.6715729,3 12,3.67157288 12,4.5 L12,7.5 C12,8.32842712 12.6715729,9 13.5,9 L18.75,9 C19.5784271,9 20.25,8.32842712 20.25,7.5 L20.25,4.5 C20.25,3.67157288 19.5784271,3 18.75,3 L13.5,3 Z M12.75,12 C12.3357864,12 12,12.3357864 12,12.75 L12,13.5 C12,13.9142136 12.3357864,14.25 12.75,14.25 L13.5,14.25 C13.9142136,14.25 14.25,13.9142136 14.25,13.5 L14.25,12.75 C14.25,12.3357864 13.9142136,12 13.5,12 L12.75,12 Z M15.75,12 C15.3357864,12 15,12.3357864 15,12.75 L15,13.5 C15,13.9142136 15.3357864,14.25 15.75,14.25 L16.5,14.25 C16.9142136,14.25 17.25,13.9142136 17.25,13.5 L17.25,12.75 C17.25,12.3357864 16.9142136,12 16.5,12 L15.75,12 Z M18.75,12 C18.3357864,12 18,12.3357864 18,12.75 L18,13.5 C18,13.9142136 18.3357864,14.25 18.75,14.25 L19.5,14.25 C19.9142136,14.25 20.25,13.9142136 20.25,13.5 L20.25,12.75 C20.25,12.3357864 19.9142136,12 19.5,12 L18.75,12 Z M12.75,15 C12.3357864,15 12,15.3357864 12,15.75 L12,16.5 C12,16.9142136 12.3357864,17.25 12.75,17.25 L13.5,17.25 C13.9142136,17.25 14.25,16.9142136 14.25,16.5 L14.25,15.75 C14.25,15.3357864 13.9142136,15 13.5,15 L12.75,15 Z M15.75,15 C15.3357864,15 15,15.3357864 15,15.75 L15,16.5 C15,16.9142136 15.3357864,17.25 15.75,17.25 L16.5,17.25 C16.9142136,17.25 17.25,16.9142136 17.25,16.5 L17.25,15.75 C17.25,15.3357864 16.9142136,15 16.5,15 L15.75,15 Z M18.75,15 C18.3357864,15 18,15.3357864 18,15.75 L18,16.5 C18,16.9142136 18.3357864,17.25 18.75,17.25 L19.5,17.25 C19.9142136,17.25 20.25,16.9142136 20.25,16.5 L20.25,15.75 C20.25,15.3357864 19.9142136,15 19.5,15 L18.75,15 Z M12.75,18 C12.3357864,18 12,18.3357864 12,18.75 L12,19.5 C12,19.9142136 12.3357864,20.25 12.75,20.25 L13.5,20.25 C13.9142136,20.25 14.25,19.9142136 14.25,19.5 L14.25,18.75 C14.25,18.3357864 13.9142136,18 13.5,18 L12.75,18 Z M15.75,18 C15.3357864,18 15,18.3357864 15,18.75 L15,19.5 C15,19.9142136 15.3357864,20.25 15.75,20.25 L16.5,20.25 C16.9142136,20.25 17.25,19.9142136 17.25,19.5 L17.25,18.75 C17.25,18.3357864 16.9142136,18 16.5,18 L15.75,18 Z M18.75,18 C18.3357864,18 18,18.3357864 18,18.75 L18,19.5 C18,19.9142136 18.3357864,20.25 18.75,20.25 L19.5,20.25 C19.9142136,20.25 20.25,19.9142136 20.25,19.5 L20.25,18.75 C20.25,18.3357864 19.9142136,18 19.5,18 L18.75,18 Z M1.5,0 L5.25,0 C6.07842712,0 6.75,0.671572875 6.75,1.5 L6.75,22.5 C6.75,23.3284271 6.07842712,24 5.25,24 L1.5,24 C0.671572875,24 0,23.3284271 0,22.5 L0,1.5 C0,0.671572875 0.671572875,0 1.5,0 Z" id="path-1"></path>
    </defs>
    <g id="Icons---In-Use-(ME)" stroke="none" stroke-width="1" fill="none" fill-rule="evenodd">
        <g id="Icons" transform="translate(-893.000000, -720.000000)">
            <g id="Phone---Work" transform="translate(893.000000, 720.000000)">
                <rect id="Rectangle-4" x="0" y="0" width="24" height="24"></rect>
                <mask id="mask-2" fill="white">
                    <use xlink:href="#path-1"></use>
                </mask>
                <use id="Combined-Shape-Copy-16" fill="#1C2530" xlink:href="#path-1"></use>
            </g>
        </g>
    </g>
</svg>