<?xml version="1.0" encoding="utf-8"?>
<!-- Generator: Adobe Illustrator 28.0.0, SVG Export Plug-In . SVG Version: 6.00 Build 0)  -->
<svg version="1.1" id="Layer_1" xmlns="http://www.w3.org/2000/svg" xmlns:xlink="http://www.w3.org/1999/xlink" x="0px" y="0px"
	 viewBox="0 0 16 16" style="enable-background:new 0 0 16 16;" xml:space="preserve">
<g>
	<path fill="#000" d="M8,0C7.5,0,7.1,0,6.7,0.1l0.2,1.2C7.2,1.2,7.6,1.2,8,1.2c3.8,0,6.9,3.1,6.9,6.8s-3.1,6.8-6.9,6.8
		c-0.4,0-0.7,0-1.1-0.1l-0.2,1.2C7.1,16,7.5,16,8,16c4.4,0,8-3.6,8-8C16,3.6,12.4,0,8,0z"/>
	<path fill="#000" d="M0,6.7l1.2,0.2c0.1-0.7,0.3-1.4,0.7-2L0.8,4.4C0.4,5.1,0.1,5.9,0,6.7z"/>
	<path fill="#000" d="M0,9.3c0.1,0.8,0.4,1.6,0.8,2.4l1.1-0.5c-0.3-0.6-0.5-1.3-0.7-2L0,9.3z"/>
	<path fill="#000" d="M4.8,1.9L4.3,0.9c-0.8,0.4-1.4,0.9-2,1.5l0.8,0.8C3.6,2.7,4.2,2.3,4.8,1.9z"/>
	<path fill="#000" d="M2.2,13.6c0.6,0.6,1.3,1.1,2,1.5l0.5-1.1c-0.6-0.3-1.2-0.7-1.7-1.3L2.2,13.6z"/>
	<polygon fill="#000" points="11.5,8 8.5,6.3 5.6,4.6 5.6,8 5.6,11.4 8.5,9.7 	"/>
</g>
</svg>
