<?xml version="1.0" encoding="UTF-8"?>
<svg width="24px" height="24px" viewBox="0 0 24 24" version="1.1" xmlns="http://www.w3.org/2000/svg" xmlns:xlink="http://www.w3.org/1999/xlink">
  <title>Prayer</title>
  <defs>
    <style>
      .cls-1 {
        fill: #97a4ab;
      }
    </style>
  </defs>
  <path class="cls-1" d="M7.07,1.53l2,2c-.33,0-.8.07-1.07.4-.13.13-.2.27-.27.4l-1.73-1.73c-.33-.27-.33-.8,0-1.07.27-.27.8-.27,1.07,0Z"/>
  <path class="cls-1" d="M6,14.07c1.47,1.47,3.93,1.47,5.4,0l1.4-1.4c1.47-1.47,1.47-3.93,0-5.4l-3.13-3.13c-.33-.33-.93-.33-1.27,0-.33.33-.33.93,0,1.27l2.07,2.07-.27.27L4.87,2.4c-.27-.27-.8-.27-1.07,0-.27.27-.27.8,0,1.07l3.47,3.47-.33.33-4-4c-.33-.33-.87-.33-1.2,0-.33.33-.33.87,0,1.27l4,4-.33.33-3.6-3.67c-.33-.27-.8-.27-1.07,0-.27.27-.27.8,0,1.07l3.6,3.6-.33.33-2.87-2.87c-.27-.27-.67-.27-.93,0-.27.27-.27.67,0,.93l5.8,5.8Z"/>
  <path class="cls-1" d="M14.8,6.2l-3-3c-.33-.33-.93-.33-1.27,0-.33.33-.33.93,0,1.27l2.6,2.6c1.6,1.6,1.6,4.27,0,5.87l-1.53,1.53s-.05.04-.07.05c-.04.02-.06.04-.06.08.67-.2,1.27-.53,1.8-1.07l1.53-1.53c1.6-1.53,1.6-4.2,0-5.8Z"/>
  <g id="Icons---In-Use-(ME)" stroke="none" stroke-width="1" fill="none" fill-rule="evenodd">
    <g id="Icons" transform="translate(-63.000000, -569.000000)">
        <g id="Prayer" transform="translate(63.000000, 569.000000)">
            <rect id="Rectangle-3" x="0" y="0" width="24" height="24"></rect>
            <mask id="mask-2" fill="white">
                <use xlink:href="#path-1"></use>
            </mask>
            <use id="Rectangle-5" fill="#000000" xlink:href="#path-1"></use>
            <g id="Group" mask="url(#mask-2)" fill="#1C2530">
                <g id="💟-Icon-Style">
                    <rect id="Rectangle-2" x="0" y="0" width="24" height="24"></rect>
                </g>
            </g>
        </g>
    </g>
</g>
</svg>
