<?xml version="1.0" encoding="UTF-8"?>
<svg id="Layer_1" data-name="Layer 1" xmlns="http://www.w3.org/2000/svg" viewBox="0 0 24 24">
  <defs>
    <style>
      .cls-1 {
        fill: #fff;
      }
    </style>
  </defs>
  <path class="cls-1" d="M10.61,2.3l3,3c-.49,0-1.2.1-1.61.6-.2.19-.3.41-.4.6l-2.59-2.59c-.49-.4-.49-1.2,0-1.6.4-.4,1.2-.4,1.61,0Z"/>
  <path class="cls-1" d="M9,21.1c2.21,2.21,5.89,2.21,8.1,0l2.1-2.1c2.21-2.21,2.21-5.89,0-8.1l-4.69-4.69c-.49-.49-1.4-.49-1.9,0-.49.49-.49,1.39,0,1.9l3.1,3.1-.41.4L7.3,3.6c-.4-.4-1.2-.4-1.61,0s-.4,1.2,0,1.61l5.2,5.2-.49.49-6-6c-.49-.49-1.3-.49-1.8,0-.5.49-.5,1.3,0,1.9l6,6-.49.49L2.72,7.8c-.5-.4-1.2-.4-1.6,0-.4.4-.4,1.2,0,1.61l5.4,5.4-.49.49L1.71,11c-.4-.4-1-.4-1.39,0-.4.4-.4,1.01,0,1.4l8.7,8.7h-.02Z"/>
  <path class="cls-1" d="M22.2,9.3l-4.5-4.5c-.49-.49-1.4-.49-1.9,0-.49.49-.49,1.39,0,1.9l3.9,3.9c2.4,2.4,2.4,6.41,0,8.8l-2.29,2.29s-.08.06-.1.08c-.06.03-.09.06-.09.12,1.01-.3,1.91-.79,2.7-1.6l2.29-2.29c2.4-2.29,2.4-6.3,0-8.7Z"/>
</svg>