<?xml version="1.0" encoding="utf-8"?>
<!-- Generator: Adobe Illustrator 26.0.2, SVG Export Plug-In . SVG Version: 6.00 Build 0)  -->
<svg version="1.1" id="Layer_1" xmlns="http://www.w3.org/2000/svg" xmlns:xlink="http://www.w3.org/1999/xlink" x="0px" y="0px"
	 viewBox="0 0 24 24" style="enable-background:new 0 0 24 24;" xml:space="preserve">
<style type="text/css">
	.st0{fill-rule:evenodd;clip-rule:evenodd;}
</style>
<path fill="#000" id="path-1_00000024705225237925881900000000442076290889777286_" class="st0" d="M23.3,2.6c0,0,5.1,9.3-11.3,21.4
	C-4.3,11.9,0.7,2.6,0.7,2.6C4.7,0.8,11.7,0,12,0C12,0,19.2,0.8,23.3,2.6z M12,2.4L12,2.4c-0.1,0-1.3,0.3-3.6,0.7L7.9,3.2
	C6.6,3.5,5,3.8,3,4.2c0,0-2.4,7.2,9,16.8c11.4-9.6,9-16.8,9-16.8C16.2,3,12,2.4,12,2.4L12,2.4z M12,4.8c0,0,7.2,1.2,7.2,1.2
	S18,12,12,18C6,12,4.8,6,4.8,6S12,4.8,12,4.8z"/>
</svg>
