<?xml version="1.0" encoding="UTF-8"?>
<svg id="Layer_1" data-name="Layer 1" xmlns="http://www.w3.org/2000/svg" xmlns:xlink="http://www.w3.org/1999/xlink" viewBox="0 0 25 24">
  <defs>
    <mask id="mask" x=".5" y="0" width="24" height="24" maskUnits="userSpaceOnUse">
      <g id="mask0_2274_36710" data-name="mask0 2274 36710">
        <rect fill="#333" x=".5" width="24" height="24"/>
      </g>
    </mask>
  </defs>
  <g>
    <path fill="#333" d="M3.5,11V3h8v8H3.5ZM5.5,9h4v-4h-4v4ZM3.5,21v-8h8v8H3.5ZM5.5,19h4v-4h-4v4ZM13.5,11V3h8v8h-8ZM15.5,9h4v-4h-4v4ZM19.5,21v-2h2v2h-2ZM13.5,15v-2h2v2h-2ZM15.5,17v-2h2v2h-2ZM13.5,19v-2h2v2h-2ZM15.5,21v-2h2v2h-2ZM17.5,19v-2h2v2h-2ZM17.5,15v-2h2v2h-2ZM19.5,17v-2h2v2h-2Z"/>
  </g>
</svg>