<?xml version="1.0" encoding="UTF-8"?>
<svg id="Layer_1" data-name="Layer 1" xmlns="http://www.w3.org/2000/svg" viewBox="0 0 24 24">
  <defs>
    <style>
      .cls-1 {
        fill: #333;
      }
    </style>
  </defs>
  <path class="cls-1" d="M2.73,11V2.72h8.27v8.27H2.73ZM5,8.72h3.73v-3.73h-3.73v3.73ZM2.73,21.28v-8.28h8.27v8.28H2.73ZM5,19h3.73v-3.72h-3.73v3.72ZM13,11V2.72h8.27v8.27h-8.27ZM15.27,8.72h3.73v-3.73h-3.73v3.73ZM19.21,21.28v-2.07h2.07v2.07h-2.07ZM13,15.07v-2.07h2.07v2.07h-2.07ZM15.07,17.14v-2.07h2.07v2.07h-2.07ZM13,19.2v-2.07h2.07v2.07h-2.07ZM15.07,21.28v-2.07h2.07v2.07h-2.07ZM17.14,19.2v-2.07h2.07v2.07h-2.07ZM17.14,15.07v-2.07h2.07v2.07h-2.07ZM19.21,17.14v-2.07h2.07v2.07h-2.07Z"/>
</svg>