<?xml version="1.0" encoding="UTF-8"?>
<svg width="24px" height="24px" viewBox="0 0 24 24" version="1.1" xmlns="http://www.w3.org/2000/svg" xmlns:xlink="http://www.w3.org/1999/xlink">
    <title>Questions</title>
    <g id="Icons---In-Use-(ME)" stroke="none" stroke-width="1" fill="none" fill-rule="evenodd">
        <g id="Icons" transform="translate(-893.000000, -866.000000)" fill="#1C2530">
            <path d="M904.484375,881 L899.327539,877.25 L896.515625,877.25 C894.573828,877.25 893,876.262695 893,874.320312 L893,869.515625 C893,867.574414 894.573828,866 896.515625,866 L904.484375,866 C906.425586,866 908,867.574414 908,869.515625 L908,873.734961 C908,875.676172 906.425586,877.25 904.484375,877.25 L904.484375,881 Z M897.684716,870.6875 L903.315284,870.6875 C903.825278,870.6875 904.25,870.267767 904.25,869.75 C904.25,869.228623 903.831514,868.8125 903.315284,868.8125 L897.684716,868.8125 C897.174722,868.8125 896.75,869.232233 896.75,869.75 C896.75,870.271377 897.168486,870.6875 897.684716,870.6875 Z M902.382149,872.328125 L898.617851,872.328125 C898.04981,872.328125 897.570312,872.800325 897.570312,873.382812 C897.570312,873.969361 898.039312,874.4375 898.617851,874.4375 L902.382149,874.4375 C902.95019,874.4375 903.429688,873.9653 903.429688,873.382812 C903.429688,872.796264 902.960688,872.328125 902.382149,872.328125 Z M913.394231,890 C912.358697,890 911.519231,889.160488 911.519231,888.124897 C911.519231,887.089306 912.358697,886.249794 913.394231,886.249794 C914.429765,886.249794 915.269231,887.089306 915.269231,888.124897 C915.269231,889.160488 914.429765,890 913.394231,890 Z M913.25,880.454845 C913.25,880.454845 914.5,880.454845 914.5,879.091134 C914.5,877.727423 913.25,877.727423 913.25,877.727423 C912.078125,877.749965 912.078125,878.437437 912,878.749931 L909.5,878.749931 C909.502269,878.749931 909.817175,875 913.25,875 C917,875 917,879.091134 917,879.091134 C917,879.091134 917,882.213253 914.5,883.002647 L914.5,884.999817 L912,884.999817 L912,881.818556 C912,881.065399 912.559644,880.454845 913.25,880.454845 Z" id="Questions"></path>
        </g>
    </g>
</svg>