<?xml version="1.0" encoding="UTF-8"?>
<svg id="Layer_1" data-name="Layer 1" xmlns="http://www.w3.org/2000/svg" xmlns:xlink="http://www.w3.org/1999/xlink" viewBox="0 0 25 24">
  <defs>
    <style>
      .cls-1 {
        mask: url(#mask);
      }

      .cls-2 {
        fill: #d9d9d9;
      }

      .cls-3 {
        fill: #333;
      }
    </style>
    <mask id="mask" x=".5" y="0" width="24" height="24" maskUnits="userSpaceOnUse">
      <g id="mask0_2274_36683" data-name="mask0 2274 36683">
        <rect class="cls-2" x=".5" width="24" height="24"/>
      </g>
    </mask>
  </defs>
  <g class="cls-1">
    <path class="cls-3" d="M8,22c-.97,0-1.79-.34-2.47-1.02s-1.03-1.51-1.03-2.48V5.5c0-.97.34-1.79,1.03-2.47.68-.68,1.51-1.03,2.47-1.03h12.5v15c-.42,0-.77.15-1.06.44s-.44.65-.44,1.06.15.77.44,1.06.65.44,1.06.44v2h-12.5ZM8.5,15h2V4h-2v11ZM8,20h9.33c-.1-.23-.18-.47-.24-.71-.06-.24-.09-.5-.09-.79,0-.27.02-.52.08-.77.05-.25.13-.49.25-.73h-9.33c-.43,0-.79.15-1.07.44s-.43.65-.43,1.06.14.79.43,1.08c.28.28.64.42,1.07.42Z"/>
  </g>
</svg>