<?xml version="1.0" encoding="UTF-8"?>
<svg id="Layer_1" data-name="Layer 1" xmlns="http://www.w3.org/2000/svg" xmlns:xlink="http://www.w3.org/1999/xlink" viewBox="0 0 25 24">
  <defs>
    <mask id="mask" x=".5" y="0" width="24" height="24" maskUnits="userSpaceOnUse">
      <g id="mask0_2274_36730" data-name="mask0 2274 36730">
        <rect fill="#333" x=".5" width="24" height="24"/>
      </g>
    </mask>
  </defs>
  <g>
    <path fill="#333" d="M7.83,22c-.92,0-1.71-.33-2.36-.98-.65-.65-.98-1.44-.98-2.36V5.33c0-.92.33-1.71.98-2.36.65-.65,1.44-.98,2.36-.98h12.67v15c-.43,0-.78.17-1.07.5-.29.33-.43.72-.43,1.17s.14.84.43,1.17c.29.33.64.5,1.07.5v1.67H7.83ZM6.17,15.77c.24-.15.51-.26.78-.33.28-.07.57-.11.88-.11h.67V3.67h-.67c-.46,0-.86.16-1.18.49-.32.32-.49.72-.49,1.18v10.44ZM10.17,15.33h8.67V3.67h-8.67v11.67ZM7.83,20.33h9.93c-.13-.24-.24-.51-.31-.79-.08-.28-.11-.57-.11-.88s.04-.61.11-.88c.07-.28.18-.54.33-.78H7.83c-.46,0-.85.16-1.18.49-.32.32-.48.72-.48,1.18s.16.86.48,1.18c.32.32.71.48,1.18.48Z"/>
  </g>
</svg>