<?xml version="1.0" encoding="utf-8"?>
<!-- Generator: Adobe Illustrator 26.0.2, SVG Export Plug-In . SVG Version: 6.00 Build 0)  -->
<svg version="1.1" id="Layer_1" xmlns="http://www.w3.org/2000/svg" xmlns:xlink="http://www.w3.org/1999/xlink" x="0px" y="0px"
	 viewBox="0 0 24 24" style="enable-background:new 0 0 24 24;" xml:space="preserve">
<style type="text/css">
	.st0{fill-rule:evenodd;clip-rule:evenodd;fill:#000;}
</style>
<g id="Shape-Copy" transform="translate(12.000000, 12.000000) scale(-1, 1) translate(-12.000000, -12.000000) ">
	<path id="path-1_00000107571316828993696990000006707164712691341191_" class="st0" d="M0.8,22C0.8,22,0.8,22,0.8,22
		c0.4,0,0.6-0.3,0.7-0.7c0-0.3,0.8-6.9,11.3-6.9v4.3c0,0.3,0.2,0.6,0.4,0.7c0.3,0.1,0.6,0.1,0.8-0.1l9.7-8c0.2-0.1,0.3-0.4,0.3-0.6
		c0-0.2-0.1-0.4-0.3-0.6L14,2.2c-0.2-0.2-0.5-0.2-0.8-0.1c-0.3,0.1-0.4,0.4-0.4,0.7v4.2C8.4,7.1,5,8.4,2.8,11
		c-3.6,4.1-2.8,10.1-2.7,10.4C0.2,21.7,0.4,22,0.8,22L0.8,22z"/>
</g>
</svg>
