<?xml version="1.0" encoding="UTF-8"?>
<svg width="23px" height="23px" viewBox="0 0 23 23" version="1.1" xmlns="http://www.w3.org/2000/svg" xmlns:xlink="http://www.w3.org/1999/xlink">
    <title>💜 Icon</title>
    <defs>
        <path d="M7.1875,3.59375 L7.1875,7.1875 L3.59375,7.1875 L3.59375,15.8125 L7.1875,15.8125 L7.1875,12.21875 L12.9375,17.609375 L7.1875,23 L7.1875,19.40625 L1.796875,19.40625 C0.80448834,19.40625 0,18.6003667 0,17.6077502 L0,5.39224983 C0,4.3989658 0.797569603,3.59375 1.796875,3.59375 L7.1875,3.59375 Z M15.8125,18.6875 L15.8125,15.09375 L19.40625,15.09375 L19.40625,7.1875 L15.8125,7.1875 L15.8125,10.78125 L10.0625,5.390625 L15.8125,0 L15.8125,3.59375 L21.203125,3.59375 C22.1955117,3.59375 23,4.40525556 23,5.38447348 L23,16.8967765 C23,17.8857658 22.2024304,18.6875 21.203125,18.6875 L15.8125,18.6875 Z" id="path-1"></path>
    </defs>
    <g id="Giving-v1.4B" stroke="none" stroke-width="1" fill="none" fill-rule="evenodd">
        <g id="💜-Icon">
            <mask id="mask-2" fill="white">
                <use xlink:href="#path-1"></use>
            </mask>
            <use id="Oval-3-Copy-8" fill="#97A4AB" xlink:href="#path-1"></use>
        </g>
    </g>
</svg>