<?xml version="1.0" encoding="UTF-8"?>
<svg width="16px" height="16px" viewBox="0 0 16 16" version="1.1" xmlns="http://www.w3.org/2000/svg" xmlns:xlink="http://www.w3.org/1999/xlink">
    <title>Overrides/Elements/Icons/Data/States/Locked Copy</title>
    <defs>
        <path d="M7.99760985,2.02669235 C11.7807696,2.02669235 14.8476266,5.15472381 14.8476266,9.01334617 C14.8476266,12.8719685 11.7807696,16 7.99760985,16 C4.21445005,16 1.14759308,12.8719685 1.14759308,9.01334617 C1.14759308,5.15472381 4.21445005,2.02669235 7.99760985,2.02669235 Z M7.9983632,4.02335228 C5.2961062,4.02335228 3.10549408,6.25766047 3.10549408,9.0138193 C3.10549408,11.7699781 5.2961062,14.0042863 7.9983632,14.0042863 C10.7006202,14.0042863 12.8912323,11.7699781 12.8912323,9.0138193 C12.8912323,6.25766047 10.7006202,4.02335228 7.9983632,4.02335228 Z M8.00296729,5.02144684 C10.1640931,5.02310491 11.9155267,6.80991556 11.9155267,9.0138193 C11.9155267,11.2187464 10.1624663,13.0061929 7.99995664,13.0061929 C6.86279162,13.0061929 5.83884862,12.5119233 5.12350308,11.7225916 L8.00239093,9.01334617 L8.00239093,9.01334617 Z M5.0163248,0.400477896 C5.25179246,0.749573062 5.15967917,1.22345486 4.810584,1.45892253 L1.84990483,3.45592584 C1.50080967,3.6913935 1.02692787,3.59928021 0.791460204,3.25018505 C0.555992542,2.90108988 0.648105833,2.42720808 0.997200999,2.19174042 L3.95788017,0.194737102 C4.30697533,-0.0407305606 4.78085713,0.0513827307 5.0163248,0.400477896 Z M12.0421198,0.194737102 L15.002799,2.19174042 C15.3518942,2.42720808 15.4440075,2.90108988 15.2085398,3.25018505 C14.9730721,3.59928021 14.4991903,3.6913935 14.1500952,3.45592584 L11.189416,1.45892253 C10.8403208,1.22345486 10.7482075,0.749573062 10.9836752,0.400477896 C11.2191429,0.0513827307 11.6930247,-0.0407305606 12.0421198,0.194737102 Z" id="path-1"></path>
    </defs>
    <g id="Ministry-App-Home---v1.2" stroke="none" stroke-width="1" fill="none" fill-rule="evenodd">
        <g id="Overrides/Elements/Icons/Data/States/Locked-Copy">
            <rect id="Rectangle-4" x="0" y="0" width="16" height="16"></rect>
            <mask id="mask-2" fill="white">
                <use xlink:href="#path-1"></use>
            </mask>
            <use id="Combined-Shape-Copy-7" fill="#000000" xlink:href="#path-1"></use>
            <g id="💟-Icon-Style" mask="url(#mask-2)" fill="#000000">
                <rect id="Rectangle-2" x="0" y="0" width="16" height="16"></rect>
            </g>
        </g>
    </g>
</svg>
