<?xml version="1.0" encoding="UTF-8"?>
<svg id="Layer_1" data-name="Layer 1" xmlns="http://www.w3.org/2000/svg" xmlns:xlink="http://www.w3.org/1999/xlink" viewBox="0 0 25 24">
  <defs>
    <style>
      .cls-1 {
        mask: url(#mask);
      }

      .cls-2 {
        fill: #d9d9d9;
      }

      .cls-3 {
        fill: #333;
      }
    </style>
    <mask id="mask" x=".5" y="0" width="24" height="24" maskUnits="userSpaceOnUse">
      <g id="mask0_2274_36693" data-name="mask0 2274 36693">
        <rect class="cls-2" x=".5" width="24" height="24"/>
      </g>
    </mask>
  </defs>
  <g class="cls-1">
    <path class="cls-3" d="M21.5,6.38c0,1.79-2.11,4.43-2.99,5.45-.14.18-.32.25-.53.18h-3.23c-.63,0-1.12.53-1.12,1.12,0,.63.49,1.12,1.12,1.12h3.38c1.86,0,3.38,1.51,3.38,3.38s-1.51,3.38-3.38,3.38h-9.74c.32-.32.67-.77,1.05-1.27.21-.32.46-.63.67-.98h8.02c.6,0,1.12-.49,1.12-1.12,0-.6-.53-1.12-1.12-1.12h-3.38c-1.86,0-3.38-1.51-3.38-3.38s1.51-3.38,3.38-3.38h1.37c-.74-1.09-1.37-2.36-1.37-3.38,0-1.86,1.51-3.38,3.38-3.38s3.38,1.51,3.38,3.38ZM7.61,20.23c-.14.14-.28.28-.35.39l-.07.07c-.21.14-.53.14-.7-.07-.91-.98-2.99-3.45-2.99-5.24s1.51-3.38,3.38-3.38,3.38,1.51,3.38,3.38c0,1.05-.77,2.36-1.55,3.45-.39.53-.77.98-1.09,1.37v.04ZM8,15.38c0-.6-.53-1.12-1.12-1.12-.63,0-1.12.53-1.12,1.12,0,.63.49,1.12,1.12,1.12.6,0,1.12-.49,1.12-1.12ZM18.12,7.5c.6,0,1.12-.49,1.12-1.12,0-.6-.53-1.12-1.12-1.12-.63,0-1.12.53-1.12,1.12,0,.63.49,1.12,1.12,1.12Z"/>
  </g>
</svg>