<?xml version="1.0" encoding="UTF-8"?>
<svg id="Layer_1" data-name="Layer 1" xmlns="http://www.w3.org/2000/svg" xmlns:xlink="http://www.w3.org/1999/xlink" viewBox="0 0 25 24">
  <defs>
    <mask id="mask" x=".5" y="0" width="24" height="24" maskUnits="userSpaceOnUse">
      <g id="mask0_2274_36715" data-name="mask0 2274 36715">
        <rect fill="#333" x=".5" width="24" height="24"/>
      </g>
    </mask>
  </defs>
  <g>
    <path fill="#333" d="M18.9,8.48c.63-.98.91-1.72.91-2.11,0-.91-.77-1.69-1.69-1.69s-1.69.77-1.69,1.69c0,.39.25,1.12.88,2.11.25.42.53.81.81,1.16.25-.35.53-.74.77-1.16ZM18.51,11.82c-.14.18-.32.25-.53.18h-2.95c-.81,0-1.41.63-1.41,1.41s.6,1.41,1.41,1.41h3.38c1.69,0,3.09,1.41,3.09,3.09s-1.41,3.09-3.09,3.09h-10.02c.32-.32.67-.77,1.05-1.27.11-.14.21-.28.28-.42h8.68c.77,0,1.41-.6,1.41-1.41s-.63-1.41-1.41-1.41h-3.38c-1.72,0-3.09-1.37-3.09-3.09s1.37-3.09,3.09-3.09h1.48c-.88-1.2-1.76-2.74-1.76-3.94,0-1.86,1.51-3.38,3.38-3.38s3.38,1.51,3.38,3.38-2.11,4.43-2.99,5.45ZM7.65,17.38c.63-.95.91-1.65.91-2,0-.91-.77-1.69-1.69-1.69s-1.69.77-1.69,1.69c0,.35.25,1.05.88,2,.25.39.53.77.81,1.09.25-.32.53-.7.77-1.09ZM8.32,19.31c-.25.32-.49.63-.7.88-.11.14-.25.25-.32.39t-.04.04h-.04c-.18.21-.53.21-.74,0-.91-.98-2.99-3.45-2.99-5.24s1.51-3.38,3.38-3.38,3.38,1.51,3.38,3.38c0,1.23-1.02,2.78-1.93,3.94Z"/>
  </g>
</svg>