<?xml version="1.0" encoding="utf-8"?>
<!-- Generator: Adobe Illustrator 26.0.2, SVG Export Plug-In . SVG Version: 6.00 Build 0)  -->
<svg version="1.1" id="Layer_1" xmlns="http://www.w3.org/2000/svg" xmlns:xlink="http://www.w3.org/1999/xlink" x="0px" y="0px"
	 viewBox="0 0 24 24" style="enable-background:new 0 0 24 24;" xml:space="preserve">
<style type="text/css">
	.st0{fill:none;}
	.st1{fill-rule:evenodd;clip-rule:evenodd;}
</style>
<g id="Giving-C-v1.1-_New-Iteration_">
	<g id="Volunteer-Hours---01">
		<g id="Content-List-_11v-l_">
			<g id="Overrides_Elements_Icons_Actions_Add">
				<rect id="Rectangle-5" class="st0" width="24" height="24"/>
			</g>
		</g>
	</g>
</g>
<g id="Shape">
	<path fill="#000" id="path-1_00000030483504903286623370000007149453222389844645_" class="st1" d="M20.9,11.1c0,0.3,0,1.5,0,1.8l2.3,1.3
		c0.9,0.5,1,1.7,0.4,2.7l-1.4,2.2c-0.6,1-1.8,1.5-2.7,1l-2.3-1.3c-0.5,0.4-1.1,0.7-1.6,0.9v2.5c0,0.9-1,1.7-2.3,1.7h-2.7
		c-1.2,0-2.3-0.8-2.3-1.7v-2.5c-0.6-0.2-1.1-0.6-1.6-0.9l-2.3,1.3c-0.9,0.5-2.1,0-2.7-1l-1.4-2.2c-0.6-1-0.4-2.2,0.4-2.7l2.3-1.3
		c0-0.3,0-1.5,0-1.8L0.8,9.8c-0.9-0.5-1-1.7-0.4-2.7l1.4-2.2c0.6-1,1.8-1.5,2.7-1l2.3,1.3c0.5-0.4,1.1-0.7,1.6-0.9V1.7
		c0-0.9,1-1.7,2.3-1.7h2.7c1.2,0,2.3,0.8,2.3,1.7v2.5c0.6,0.2,1.1,0.6,1.6,0.9l2.3-1.3c0.9-0.5,2.1,0,2.7,1l1.4,2.2
		c0.6,1,0.4,2.2-0.4,2.7L20.9,11.1z M12,15.6c-2,0-3.6-1.6-3.6-3.6S10,8.4,12,8.4c2,0,3.6,1.6,3.6,3.6S14,15.6,12,15.6L12,15.6z"/>
</g>
</svg>
