<?xml version="1.0" encoding="UTF-8"?>
<svg id="Layer_1" data-name="Layer 1" xmlns="http://www.w3.org/2000/svg" viewBox="0 0 24 24">
  <defs>
    <style>
      .cls-1 {
        fill: #fff;
      }
    </style>
  </defs>
  <path class="cls-1" d="M20,8.01c2.2,0,4-1.78,4-4S22.22,0,20,0s-4,1.78-4,4c0,.28.03.57.09.84l-9.07,4.53c-.73-.84-1.81-1.38-3.01-1.38-2.2,0-4,1.78-4,4s1.78,4,4,4c1.2,0,2.28-.52,3.01-1.38l9.07,4.53c-.06.27-.09.55-.09.84,0,2.2,1.78,4,4,4s4-1.78,4-4-1.78-4-4-4c-1.2,0-2.28.52-3.01,1.38l-9.07-4.53c.06-.27.09-.55.09-.84s-.03-.57-.09-.84l9.07-4.53c.73.84,1.81,1.38,3.01,1.38Z"/>
</svg>