<?xml version="1.0" encoding="UTF-8"?>
<svg width="24px" height="18px" viewBox="0 0 24 18" version="1.1" xmlns="http://www.w3.org/2000/svg" xmlns:xlink="http://www.w3.org/1999/xlink">
    <title>Snail Mail</title>
    <defs>
        <path d="M1.5,3 L22.5,3 C23.3284271,3 24,3.7007717 24,4.56521739 L24,19.4347826 C24,20.2992283 23.3284271,21 22.5,21 L1.5,21 C0.671572875,21 0,20.2992283 0,19.4347826 L0,4.56521739 C0,3.7007717 0.671572875,3 1.5,3 Z M18,5.34782609 C17.5857864,5.34782609 17.25,5.69821193 17.25,6.13043478 L17.25,10.0434783 C17.25,10.4757011 17.5857864,10.826087 18,10.826087 L21,10.826087 C21.4142136,10.826087 21.75,10.4757011 21.75,10.0434783 L21.75,6.13043478 C21.75,5.69821193 21.4142136,5.34782609 21,5.34782609 L18,5.34782609 Z M3.65491928,11.1912228 C3.12472592,11.1912228 2.69491928,11.6397167 2.69491928,12.192962 C2.69491928,12.7462072 3.12472592,13.1947011 3.65491928,13.1947011 L12.4319753,13.1947011 C12.9621687,13.1947011 13.3919753,12.7462072 13.3919753,12.192962 C13.3919753,11.6397167 12.9621687,11.1912228 12.4319753,11.1912228 L3.65491928,11.1912228 Z M3.65491928,15.1981793 C3.12472592,15.1981793 2.69491928,15.6466732 2.69491928,16.1999185 C2.69491928,16.7531637 3.12472592,17.2016576 3.65491928,17.2016576 L14.9615858,17.2016576 C15.4917791,17.2016576 15.9215858,16.7531637 15.9215858,16.1999185 C15.9215858,15.6466732 15.4917791,15.1981793 14.9615858,15.1981793 L3.65491928,15.1981793 Z" id="path-1"></path>
    </defs>
    <g id="Icons---In-Use-(ME)" stroke="none" stroke-width="1" fill="none" fill-rule="evenodd">
        <g id="Icons" transform="translate(-893.000000, -278.000000)">
            <g id="Snail-Mail" transform="translate(893.000000, 275.000000)">
                <rect id="Rectangle-4" x="0" y="0" width="24" height="24"></rect>
                <mask id="mask-2" fill="white">
                    <use xlink:href="#path-1"></use>
                </mask>
                <use id="Rectangle-10" fill="#1C2530" xlink:href="#path-1"></use>
            </g>
        </g>
    </g>
</svg>