<?xml version="1.0" encoding="UTF-8"?>
<svg id="Layer_1" data-name="Layer 1" xmlns="http://www.w3.org/2000/svg" viewBox="0 0 24 24">
  <defs>
    <style>
      .cls-1 {
        fill: #333;
      }
    </style>
  </defs>
  <path class="cls-1" d="M12,2C6.5,2,2,6.5,2,12s4.5,10,10,10,10-4.5,10-10S17.5,2,12,2ZM16.62,16.5c-.25.25-.5.38-.88.25-2.38-1.5-5.25-1.75-8.75-1-.38.13-.62-.12-.75-.5-.12-.37.12-.63.5-.75,3.75-.88,7.12-.5,9.75,1.12.25.13.25.5.12.88ZM17.75,13.75c-.25.37-.75.5-1,.25-2.75-1.62-6.75-2.12-10-1.12-.38,0-.75-.13-.88-.63-.12-.37.12-.75.5-.87,3.62-1.13,8.12-.5,11.25,1.37.25.13.38.62.12,1ZM17.88,10.88c-3.25-1.88-8.5-2.13-11.62-1.13-.5.13-1-.13-1.12-.63s.12-.99.62-1.12c3.5-1,9.38-.88,13.12,1.38.5.24.62.87.38,1.24-.25.38-.88.5-1.38.26Z"/>
</svg>