<svg xmlns="http://www.w3.org/2000/svg" width="24" height="24" viewBox="0 0 24 24">
  <path fill="#1C2530" fill-rule="evenodd" d="M1074,668 C1080.62742,668 1086,662.627417 1086,656 C1086,649.372583 1080.62742,644 1074,644 C1067.37258,644 1062,649.372583 1062,656 C1062,662.627417 1067.37258,668 1074,668 Z M1070.5,651.5 L1077.5,651.5 C1078.05228,651.5 1078.5,651.947715 1078.5,652.5 L1078.5,659.5 C1078.5,660.052285 1078.05228,660.5 1077.5,660.5 L1070.5,660.5 C1069.94772,660.5 1069.5,660.052285 1069.5,659.5 L1069.5,652.5 C1069.5,651.947715 1069.94772,651.5 1070.5,651.5 Z" transform="translate(-1062 -644)"/>
</svg>
