<?xml version="1.0" encoding="UTF-8"?>
<svg id="Layer_1" data-name="Layer 1" xmlns="http://www.w3.org/2000/svg" viewBox="0 0 24 24">
  <defs>
    <style>
      .cls-1 {
        fill: #333;
      }
    </style>
  </defs>
  <path class="cls-1" d="M15.95,22l-4.25-4.25,1.4-1.4,2.85,2.85,5.65-5.65,1.4,1.4-7.05,7.05ZM4,20c-.55,0-1.02-.2-1.41-.59-.39-.39-.59-.86-.59-1.41V6c0-.55.2-1.02.59-1.41.39-.39.86-.59,1.41-.59h16c.55,0,1.02.2,1.41.59.39.39.59.86.59,1.41v4.35l-6.02,6.03-2.88-2.88-4.23,4.23,2.27,2.27h-7.15ZM12,13l8-5v-2l-8,5L4,6v2l8,5Z"/>
</svg>