<?xml version="1.0" encoding="UTF-8"?>
<svg width="24px" height="24px" viewBox="0 0 24 24" version="1.1" xmlns="http://www.w3.org/2000/svg" xmlns:xlink="http://www.w3.org/1999/xlink">
    <title>Ticket</title>
    <defs>
        <path d="M2.5338853,19.3913498 L0.225507942,17.0829725 C-0.075169314,16.7822952 -0.075169314,16.2948011 0.225507942,15.9941238 L11.351636,4.86799577 L19.1320042,12.648364 L8.00587619,23.7744921 C7.70519893,24.0751693 7.21770478,24.0751693 6.91702752,23.7744921 L4.60865017,21.4661147 C5.18158066,20.8931842 5.18158066,19.9642803 4.60865017,19.3913498 C4.03571967,18.8184193 3.1068158,18.8184193 2.5338853,19.3913498 Z M19.3913498,2.5338853 C18.8184193,3.1068158 18.8184193,4.03571967 19.3913498,4.60865017 C19.9642803,5.18158066 20.8931842,5.18158066 21.4661147,4.60865017 L23.7744921,6.91702752 C24.0751693,7.21770478 24.0751693,7.70519893 23.7744921,8.00587619 L20.4287323,11.351636 L12.648364,3.57126773 L15.9941238,0.225507942 C16.2948011,-0.075169314 16.7822952,-0.075169314 17.0829725,0.225507942 L19.3913498,2.5338853 Z M4.34930456,15.7605113 C4.20607193,15.9037439 4.20607193,16.1359699 4.34930456,16.2792025 L4.60865017,16.5385481 C4.75188279,16.6817808 4.98410876,16.6817808 5.12734138,16.5385481 L12.3890184,9.27687111 C12.532251,9.13363849 12.532251,8.90141252 12.3890184,8.7581799 L12.1296728,8.49883429 C11.9864402,8.35560166 11.7542142,8.35560166 11.6109816,8.49883429 L4.34930456,15.7605113 Z M5.90537821,17.316585 C5.76214558,17.4598176 5.76214558,17.6920436 5.90537821,17.8352762 L6.16472382,18.0946218 C6.30795644,18.2378544 6.54018241,18.2378544 6.68341503,18.0946218 L11.351636,13.4264008 C11.4948686,13.2831682 11.4948686,13.0509423 11.351636,12.9077096 L11.0922904,12.648364 C10.9490577,12.5051314 10.7168318,12.5051314 10.5735992,12.648364 L5.90537821,17.316585 Z M7.46145186,18.8726586 C7.31821923,19.0158912 7.31821923,19.2481172 7.46145186,19.3913498 L7.72079746,19.6506954 C7.86403009,19.7939281 8.09625606,19.7939281 8.23948868,19.6506954 L14.2044377,13.6857465 C14.3476703,13.5425138 14.3476703,13.3102879 14.2044377,13.1670552 L13.9450921,12.9077096 C13.8018594,12.764477 13.5696335,12.764477 13.4264008,12.9077096 L7.46145186,18.8726586 Z" id="path-1"></path>
    </defs>
    <g id="Icons---In-Use-(ME)" stroke="none" stroke-width="1" fill="none" fill-rule="evenodd">
        <g id="Icons" transform="translate(-665.000000, -273.000000)">
            <g id="Ticket" transform="translate(665.000000, 273.000000)">
                <rect id="Rectangle-5" x="0" y="0" width="24" height="24"></rect>
                <mask id="mask-2" fill="white">
                    <use xlink:href="#path-1"></use>
                </mask>
                <use id="Rectangle-12" fill="#1C2530" xlink:href="#path-1"></use>
                <g id="Group" mask="url(#mask-2)" fill="#1C2530">
                    <g id="💟-Icon-Style">
                        <rect id="Rectangle-2" x="0" y="0" width="24" height="24"></rect>
                    </g>
                </g>
            </g>
        </g>
    </g>
</svg>