<?xml version="1.0" encoding="utf-8"?>
<!-- Generator: Adobe Illustrator 26.0.2, SVG Export Plug-In . SVG Version: 6.00 Build 0)  -->
<svg version="1.1" id="Layer_1" xmlns="http://www.w3.org/2000/svg" xmlns:xlink="http://www.w3.org/1999/xlink" x="0px" y="0px"
	 viewBox="0 0 24 24" style="enable-background:new 0 0 24 24;" xml:space="preserve">
<style type="text/css">
	.st0{fill-rule:evenodd;clip-rule:evenodd;fill:#000;}
</style>
<g id="Shape">
	<path id="path-1_00000060711995060035110040000013067782064650806441_" class="st0" d="M14.2,16.6c0.8,0,1.5,0.7,1.5,1.5v1.4
		c0,0.8-0.7,1.5-1.5,1.5h-6v2.3c0,0.1,0,0.3-0.1,0.4c-0.2,0.3-0.7,0.4-1,0.2l-6.8-4.5c-0.5-0.4-0.3-1,0-1.2l6.8-4.5
		c0.1-0.1,0.3-0.1,0.4-0.1c0.4,0,0.7,0.3,0.7,0.7v2.3 M23.9,5.7c-0.1,0.1-0.2,0.2-0.2,0.2l-6.8,4.5c-0.3,0.2-0.8,0.1-1-0.2
		c-0.1-0.1-0.1-0.3-0.1-0.4V7.5h-6C8.9,7.5,8.2,6.8,8.2,6V4.5C8.2,3.7,8.9,3,9.8,3h6V0.7c0-0.4,0.3-0.7,0.7-0.7c0.1,0,0.3,0,0.4,0.1
		l6.8,4.5C24,4.9,24.1,5.3,23.9,5.7z"/>
</g>
</svg>
