<?xml version="1.0" encoding="UTF-8"?>
<svg width="24px" height="18px" viewBox="0 0 24 18" version="1.1" xmlns="http://www.w3.org/2000/svg" xmlns:xlink="http://www.w3.org/1999/xlink">
    <title>Upload</title>
    <defs>
        <path d="M12.001,9.5625 C12.045,9.5664375 12.0636667,9.5835 12.0903333,9.586125 C12.3543333,9.6058125 12.5796667,9.7108125 12.7756667,9.864375 C12.8303333,9.9024375 12.9063333,9.8893125 12.9543333,9.9365625 C13.0103333,9.993 13.0383333,10.0625625 13.081,10.12425 L16.9543333,13.938375 C17.4636667,14.43975 17.4636667,15.250875 16.9543333,15.75225 C16.4463333,16.2523125 15.6223333,16.2523125 15.113,15.75225 L13.3356667,14.001375 L13.3333333,19.6875 C13.3333333,19.6875 13.3333333,21 12,21 C10.6666667,21 10.6666667,19.6875 10.6666667,19.6875 L10.6676667,14.001375 L8.889,15.75225 C8.381,16.2523125 7.55566667,16.2523125 7.04766667,15.75225 C6.53966667,15.250875 6.53966667,14.43975 7.04766667,13.938375 L10.925,10.121625 C10.9676667,10.0599375 10.993,9.990375 11.0476667,9.9365625 C11.0663333,9.9181875 11.0956667,9.9260625 11.1156667,9.909 C11.3356667,9.71475 11.617,9.594 11.9303333,9.5769375 C11.9876667,9.5664375 11.993,9.5625 12.001,9.5625 Z M12,3 C14.664,3 17.3333333,4.3125 19.0126667,7.24830853 C21.3333333,8.25 24,11.1875 24,13.8897327 C24,19.0625 19.4973333,20.6875 16,20.6875 L16,18.0094723 L16.6666667,18.0094723 C19.2693333,17.7957375 21.3333333,16.600998 21.3333333,13.8910521 C21.3333333,11.1586773 19.236,9.94612652 16.6013333,9.80099797 C16.2866667,7.47564276 14.358,5.67868742 12,5.67868742 C9.42266667,5.67868742 7.33333333,7.81669486 7.33333333,10.4560555 C4.756,10.4560555 2.66666667,11.5940629 2.66666667,14.2321042 C2.66666667,16.8708051 4.756,18.0088126 8,18.0088126 L8,20.6861806 C4.01933333,20.6861806 0,19.0625 0,14.2314445 C0,11.2635656 1.33333333,9.5625 4.78933333,7.90204668 C6.66666667,4.3125 9.102,3 12,3 Z" id="path-1"></path>
    </defs>
    <g id="Icons---In-Use-(ME)" stroke="none" stroke-width="1" fill="none" fill-rule="evenodd">
        <g id="Icons" transform="translate(-893.000000, -943.000000)">
            <g id="Upload" transform="translate(893.000000, 940.000000)">
                <rect id="Rectangle-5" x="0" y="0" width="24" height="24"></rect>
                <mask id="mask-2" fill="white">
                    <use xlink:href="#path-1"></use>
                </mask>
                <use id="Shape-Copy-9" fill="#1C2530" xlink:href="#path-1"></use>
                <g id="Group" mask="url(#mask-2)" fill="#1C2530">
                    <g id="💟-Icon-Style">
                        <rect id="Rectangle-2" x="0" y="0" width="24" height="24"></rect>
                    </g>
                </g>
            </g>
        </g>
    </g>
</svg>