<svg xmlns="http://www.w3.org/2000/svg" width="24" height="24" viewBox="0 0 24 24">
  <path fill="#1C2530" fill-rule="evenodd" d="M1066.2504,438.7498 C1067.9064,438.7498 1069.2504,440.0928 1069.2504,441.7498 L1069.2504,441.7498 L1069.2504,445.9998 L1066.2504,445.9998 L1066.2504,443.2498 C1066.2504,442.4218 1065.5784,441.7498 1064.7504,441.7498 L1064.7504,441.7498 L1062.0004,441.7498 L1062.0004,438.7498 Z M1086.0004,438.7498 L1086.0004,441.7498 L1083.2504,441.7498 C1082.4214,441.7498 1081.7504,442.4218 1081.7504,443.2498 L1081.7504,443.2498 L1081.7504,445.9998 L1078.7504,445.9998 L1078.7504,441.7498 C1078.7504,440.0928 1080.0934,438.7498 1081.7504,438.7498 L1081.7504,438.7498 L1086.0004,438.7498 Z M1069.2504,421.9998 L1069.2504,426.2498 C1069.2504,427.9068 1067.9064,429.2498 1066.2504,429.2498 L1066.2504,429.2498 L1062.0004,429.2498 L1062.0004,426.2498 L1064.7504,426.2498 C1065.5784,426.2498 1066.2504,425.5788 1066.2504,424.7498 L1066.2504,424.7498 L1066.2504,421.9998 L1069.2504,421.9998 Z M1081.7504,421.9998 L1081.7504,424.7498 C1081.7504,425.5788 1082.4214,426.2498 1083.2504,426.2498 L1083.2504,426.2498 L1086.0004,426.2498 L1086.0004,429.2498 L1081.7504,429.2498 C1080.0934,429.2498 1078.7504,427.9068 1078.7504,426.2498 L1078.7504,426.2498 L1078.7504,421.9998 L1081.7504,421.9998 Z" transform="translate(-1062 -422)"/>
</svg>
