<?xml version="1.0" encoding="UTF-8"?>
<svg id="Layer_1" data-name="Layer 1" xmlns="http://www.w3.org/2000/svg" viewBox="0 0 24 24">
  <defs>
    <style>
      .cls-1 {
        fill: #333;
      }
    </style>
  </defs>
  <path class="cls-1" d="M1.83,22.23v-2.27c.74,0,1.46-.04,2.18-.11.72-.08,1.42-.24,2.11-.5-.71-.41-1.27-.97-1.68-1.68-.4-.71-.61-1.48-.61-2.3v-2.41h4v-3h3.39l-3.33-6.65,2.05-1.03,3.25,6.5c.43.87.42,1.67-.04,2.38-.46.72-1.12,1.07-1.96,1.07h-1.07v.87c0,.59-.21,1.09-.63,1.51-.42.41-.92.62-1.51.62h-1.86v.21c.02.54.19,1.01.52,1.41.33.41.76.68,1.27.81l.3.08c.72.18,1.13.64,1.22,1.36.09.73-.19,1.28-.84,1.64-1.03.57-2.11.96-3.26,1.17-1.15.22-2.31.32-3.49.32ZM16.23,19.19l-1.62-1.6c.31-.31.55-.67.73-1.08.18-.41.27-.85.27-1.32s-.09-.92-.27-1.33c-.18-.41-.42-.77-.73-1.08l1.62-1.62c.52.53.93,1.13,1.22,1.82.29.69.44,1.42.44,2.21s-.15,1.52-.44,2.2c-.29.68-.7,1.28-1.22,1.8ZM19.25,22.23l-1.62-1.61c.7-.7,1.25-1.52,1.65-2.45.4-.92.6-1.92.6-2.98s-.2-2.08-.6-3-.95-1.73-1.65-2.43l1.62-1.62c.91.91,1.63,1.97,2.14,3.17.52,1.2.77,2.49.77,3.88s-.26,2.66-.77,3.87c-.52,1.2-1.23,2.26-2.14,3.17Z"/>
</svg>