<?xml version="1.0" encoding="UTF-8"?>
<svg id="Layer_1" data-name="Layer 1" xmlns="http://www.w3.org/2000/svg" viewBox="0 0 24 24">
  <defs>
    <style>
      .cls-1 {
        fill: #333;
      }
    </style>
  </defs>
  <path class="cls-1" d="M21.75,8c-.25-1.62-1-2.75-2.75-3-2.75-.5-7-.5-7-.5,0,0-4.25,0-7,.5-1.75.25-2.62,1.38-2.75,3-.25,1.62-.25,4-.25,4,0,0,0,2.38.25,4s1,2.75,2.75,3c2.75.5,7,.5,7,.5,0,0,4.25,0,7-.5,1.75-.38,2.5-1.38,2.75-3s.25-4,.25-4c0,0,0-2.38-.25-4ZM9.5,15.75v-7.5l6.25,3.75-6.25,3.75Z"/>
</svg>