<?xml version="1.0" encoding="UTF-8"?>
<svg width="24px" height="18px" viewBox="0 0 24 18" version="1.1" xmlns="http://www.w3.org/2000/svg" xmlns:xlink="http://www.w3.org/1999/xlink">
    <title>Activity</title>
    <defs>
        <path d="M16.1569397,10.4025598 L12.3103892,19.4443818 C12.106888,19.922738 11.711997,20.2941604 11.2266291,20.5183896 C11.0191481,20.6707457 10.7766368,20.7942687 10.50452,20.8790055 C9.29297836,21.2562775 7.95335703,20.72183 7.51239195,19.6852837 L5.22215892,14.3017903 L4.52880169,15.9316175 C4.08783661,16.9681638 2.74821527,17.5026113 1.53667368,17.1253393 C0.32513209,16.7480673 -0.2995436,15.6019411 0.141421477,14.5653948 L2.80288115,8.3092844 C3.17500823,7.43455084 4.18711735,6.91738921 5.22215892,7.00397397 C6.25720049,6.91738921 7.2693096,7.43455084 7.64143669,8.3092844 L9.8601486,13.524658 L13.7782203,4.31471625 C14.1454851,3.45141192 15.1361174,2.93639652 16.1569397,3.00632054 C17.1777621,2.93639652 18.1683943,3.45141192 18.5356592,4.31471625 L23.8585785,16.826937 C24.2995436,17.8634833 23.6748679,19.0096095 22.4633263,19.3868815 C21.2517847,19.7641535 19.9121634,19.229706 19.4711983,18.1931597 L16.1569397,10.4025598 Z" id="path-1"></path>
    </defs>
    <g id="Icons---In-Use-(ME)" stroke="none" stroke-width="1" fill="none" fill-rule="evenodd">
        <g id="Icons" transform="translate(-541.000000, -721.000000)">
            <g id="Activity" transform="translate(541.000000, 718.000000)">
                <mask id="mask-2" fill="white">
                    <use xlink:href="#path-1"></use>
                </mask>
                <use id="Rectangle-5-Copy-10" fill="#1C2530" xlink:href="#path-1"></use>
                <g id="Group" mask="url(#mask-2)" fill="#1C2530">
                    <g id="💟-Icon-Style">
                        <rect id="Rectangle-2" x="0" y="0" width="24" height="24"></rect>
                    </g>
                </g>
            </g>
        </g>
    </g>
</svg>