<?xml version="1.0" encoding="UTF-8"?>
<svg width="24px" height="24px" viewBox="0 0 24 24" version="1.1" xmlns="http://www.w3.org/2000/svg" xmlns:xlink="http://www.w3.org/1999/xlink">
    <title>Action</title>
    <defs>
        <path d="M11.25,0 L12.75,0 C13.1642136,0 13.5,0.335786438 13.5,0.75 L13.5,5.25 L10.5,5.25 L10.5,0.75 C10.5,0.335786438 10.8357864,0 11.25,0 Z M19.9549513,2.98438854 L21.0156115,4.04504871 C21.3085047,4.33794193 21.3085047,4.81281566 21.0156115,5.10570888 L17.8336309,8.2876894 L15.7123106,6.16636906 L18.8942911,2.98438854 C19.1871843,2.69149532 19.6620581,2.69149532 19.9549513,2.98438854 Z M24,11.25 L24,12.75 C24,13.1642136 23.6642136,13.5 23.25,13.5 L18.75,13.5 L18.75,10.5 L23.25,10.5 C23.6642136,10.5 24,10.8357864 24,11.25 Z M21.0156115,19.9549513 L19.9549513,21.0156115 C19.6620581,21.3085047 19.1871843,21.3085047 18.8942911,21.0156115 L15.7123106,17.8336309 L17.8336309,15.7123106 L21.0156115,18.8942911 C21.3085047,19.1871843 21.3085047,19.6620581 21.0156115,19.9549513 Z M12.75,24 L11.25,24 C10.8357864,24 10.5,23.6642136 10.5,23.25 L10.5,18.75 L13.5,18.75 L13.5,23.25 C13.5,23.6642136 13.1642136,24 12.75,24 Z M4.04504871,21.0156115 L2.98438854,19.9549513 C2.69149532,19.6620581 2.69149532,19.1871843 2.98438854,18.8942911 L6.16636906,15.7123106 L8.2876894,17.8336309 L5.10570888,21.0156115 C4.81281566,21.3085047 4.33794193,21.3085047 4.04504871,21.0156115 Z M0,12.75 L0,11.25 C0,10.8357864 0.335786438,10.5 0.75,10.5 L5.25,10.5 L5.25,13.5 L0.75,13.5 C0.335786438,13.5 0,13.1642136 0,12.75 Z M2.98438854,4.04504871 L4.04504871,2.98438854 C4.33794193,2.69149532 4.81281566,2.69149532 5.10570888,2.98438854 L8.2876894,6.16636906 L6.16636906,8.2876894 L2.98438854,5.10570888 C2.69149532,4.81281566 2.69149532,4.33794193 2.98438854,4.04504871 Z" id="path-1"></path>
    </defs>
    <g id="Icons---In-Use-(ME)" stroke="none" stroke-width="1" fill="none" fill-rule="evenodd">
        <g id="Icons" transform="translate(-63.000000, -569.000000)">
            <g id="Action" transform="translate(63.000000, 569.000000)">
                <rect id="Rectangle-3" x="0" y="0" width="24" height="24"></rect>
                <mask id="mask-2" fill="white">
                    <use xlink:href="#path-1"></use>
                </mask>
                <use id="Rectangle-5" fill="#000000" xlink:href="#path-1"></use>
                <g id="Group" mask="url(#mask-2)" fill="#1C2530">
                    <g id="💟-Icon-Style">
                        <rect id="Rectangle-2" x="0" y="0" width="24" height="24"></rect>
                    </g>
                </g>
            </g>
        </g>
    </g>
</svg>