<svg xmlns="http://www.w3.org/2000/svg" width="24" height="24" viewBox="0 0 24 24">
  <path fill="#1C2530" d="M1074,792 C1076.89251,792 1079.62665,793.028358 1081.77858,794.862271 L1081.843,794.919 L1083.89359,792.869709 L1083.89359,797.816505 L1078.9468,797.816505 L1080.61079,796.152615 C1078.77648,794.605157 1076.45684,793.739417 1074,793.739417 C1068.33329,793.739417 1063.73942,798.333289 1063.73942,804 C1063.73942,809.666711 1068.33329,814.260583 1074,814.260583 C1079.57227,814.260583 1084.10716,809.818564 1084.25677,804.282425 L1084.26058,804 L1086,804 C1086,810.627364 1080.62736,816 1074,816 C1067.37264,816 1062,810.627364 1062,804 C1062,797.372636 1067.37264,792 1074,792 Z M1071.47333,799.557333 C1072.27334,799.557333 1072.90533,799.88733 1073.36933,800.547333 C1073.83334,801.207337 1074.06533,802.185327 1074.06533,803.481333 C1074.06533,804.77734 1073.83334,805.76733 1073.36933,806.451333 C1072.90533,807.135337 1072.27334,807.477333 1071.47333,807.477333 C1070.67333,807.477333 1070.04134,807.135337 1069.57733,806.451333 C1069.11333,805.76733 1068.88133,804.77734 1068.88133,803.481333 C1068.88133,802.193327 1069.11333,801.217337 1069.57733,800.553333 C1070.04134,799.88933 1070.67333,799.557333 1071.47333,799.557333 Z M1077.26933,799.701333 C1077.50933,799.845334 1077.76733,799.967333 1078.04333,800.067333 C1078.31933,800.167334 1078.64933,800.253333 1079.03333,800.325333 L1079.03333,800.325333 L1079.03333,801.189333 L1077.62933,801.189333 L1077.62933,806.205333 L1079.33333,806.205333 L1079.33333,807.333333 L1074.73733,807.333333 L1074.73733,806.205333 L1076.23733,806.205333 L1076.23733,799.701333 Z M1071.47333,800.637333 C1071.28933,800.637333 1071.11933,800.683333 1070.96333,800.775333 C1070.80733,800.867334 1070.67333,801.025332 1070.56133,801.249333 C1070.44933,801.473334 1070.36133,801.767332 1070.29733,802.131333 C1070.23333,802.495335 1070.20133,802.945331 1070.20133,803.481333 C1070.20133,804.025336 1070.23333,804.481331 1070.29733,804.849333 C1070.36133,805.217335 1070.44933,805.517332 1070.56133,805.749333 C1070.67333,805.981334 1070.80733,806.147333 1070.96333,806.247333 C1071.11933,806.347334 1071.28933,806.397333 1071.47333,806.397333 C1071.65733,806.397333 1071.82733,806.347334 1071.98333,806.247333 C1072.13933,806.147333 1072.27333,805.981334 1072.38533,805.749333 C1072.49733,805.517332 1072.58533,805.217335 1072.64933,804.849333 C1072.71333,804.481331 1072.74533,804.025336 1072.74533,803.481333 C1072.74533,802.945331 1072.71333,802.495335 1072.64933,802.131333 C1072.58533,801.767332 1072.49733,801.473334 1072.38533,801.249333 C1072.27333,801.025332 1072.13933,800.867334 1071.98333,800.775333 C1071.82733,800.683333 1071.65733,800.637333 1071.47333,800.637333 Z" transform="matrix(-1 0 0 1 1086 -792)"/>
</svg>
