<svg id="Layer_1" data-name="Layer 1" xmlns="http://www.w3.org/2000/svg" width="24" height="24" viewBox="0 0 24 24">
  <defs>
    <style>
      .cls-1 {
        fill: #1c2530;
        fill-rule: evenodd;
      }
    </style>
  </defs>
  <title>cancel-registration</title>
  <g id="My-Stuff-Navigation-Check-In-v1.0">
    <g id="Serving-Checkin-Action-Menu-02">
      <g id="Nav-Drawer_1.-Group_B.-Bottom" data-name="Nav-Drawer/1.-Group/B.-Bottom">
        <g id="_2_-Line-item" data-name="2️⃣-Line-item">
          <path id="Path-Copy-5" class="cls-1" d="M3,3V5.5a2,2,0,0,0,2,2H7a2,2,0,0,0,2-2H9V3h6V5.5a2,2,0,0,0,1.8,2H19a2,2,0,0,0,2-2h0V3h1a2,2,0,0,1,2,2V22a2,2,0,0,1-2,2H2a2,2,0,0,1-2-2V5A2,2,0,0,1,2,3Zm11.5,8.2L12,13.8,9.5,11.2a1.5,1.5,0,0,0-2.1,0,1.5,1.5,0,0,0,0,2L10,15.8,7.4,18.3a1.7,1.7,0,0,0,0,2.1,1.7,1.7,0,0,0,2.1,0L12,17.8l2.5,2.6a1.7,1.7,0,0,0,2.1,0,1.7,1.7,0,0,0,0-2.1L14,15.8l2.6-2.6a1.5,1.5,0,0,0,0-2A1.5,1.5,0,0,0,14.5,11.2ZM6.5,0a1,1,0,0,1,1,1V5a.9.9,0,0,1-1,1h-1a1,1,0,0,1-1-1V1a.9.9,0,0,1,1-1Zm12,0a1,1,0,0,1,1,1V5a.9.9,0,0,1-1,1h-1a1,1,0,0,1-1-1V1a.9.9,0,0,1,1-1Z"/>
        </g>
      </g>
    </g>
  </g>
</svg>
