<?xml version="1.0" encoding="UTF-8"?>
<svg width="18px" height="24px" viewBox="0 0 18 24" version="1.1" xmlns="http://www.w3.org/2000/svg" xmlns:xlink="http://www.w3.org/1999/xlink">
    <title>Child</title>
    <defs>
        <path d="M9.95139682,8.59990704 L14.0485804,8.59990704 L18.5637864,4.16090971 C19.0982313,3.63548531 19.9637643,3.61082965 20.5290252,4.10492773 C21.0942861,4.59902581 21.1595006,5.43725372 20.6770983,6.00816884 L16.1328623,11.3861963 C16.1135504,11.4090516 16.0937534,11.4312929 16.0734977,11.4529178 L16.0734977,22.4022301 C16.0734977,23.284654 15.3581517,24 14.4757278,24 C13.5798544,24 12.8405493,23.2991011 12.7928024,22.4045009 L12.5523819,17.8999068 L11.3434435,17.8999068 L11.103023,22.4045009 C11.0552761,23.2991011 10.315971,24 9.42009763,24 C8.53767367,24 7.82232772,23.284654 7.82232772,22.4022301 L7.82232772,11.3331868 L3.32290173,6.00819122 C2.84049939,5.4372761 2.90571392,4.59904819 3.4709748,4.10495012 C4.03623568,3.61085204 4.90176868,3.63550769 5.43621357,4.1609321 L9.95139682,8.59990704 Z M12,7.5 C9.92893219,7.5 8.25,5.82106781 8.25,3.75 C8.25,1.67893219 9.92893219,0 12,0 C14.0710678,0 15.75,1.67893219 15.75,3.75 C15.75,5.82106781 14.0710678,7.5 12,7.5 Z" id="path-1"></path>
    </defs>
    <g id="Icons---In-Use-(ME)" stroke="none" stroke-width="1" fill="none" fill-rule="evenodd">
        <g id="Icons" transform="translate(-668.000000, -347.000000)">
            <g id="Child" transform="translate(665.000000, 347.000000)">
                <rect id="Rectangle-3" x="0" y="0" width="24" height="24"></rect>
                <mask id="mask-2" fill="white">
                    <use xlink:href="#path-1"></use>
                </mask>
                <use fill="#1C2530" xlink:href="#path-1"></use>
                <g id="Group" mask="url(#mask-2)" fill="#1C2530">
                    <g id="💟-Icon-Style">
                        <rect id="Rectangle-2" x="0" y="0" width="24" height="24"></rect>
                    </g>
                </g>
            </g>
        </g>
    </g>
</svg>