<?xml version="1.0" encoding="UTF-8"?>
<svg width="24px" height="24px" viewBox="0 0 24 24" version="1.1" xmlns="http://www.w3.org/2000/svg" xmlns:xlink="http://www.w3.org/1999/xlink">
    <title>Close</title>
    <defs>
        <path d="M14.9243697,12.1008403 L23.394958,3.6302521 C24.2016807,2.82352941 24.2016807,1.61344538 23.394958,0.806722689 C22.5882353,1.12888224e-16 21.3781513,1.12888224e-16 20.5714286,0.806722689 L12.1008403,9.07563025 L3.42857143,0.605042017 C2.62184874,-0.201680672 1.41176471,-0.201680672 0.605042017,0.605042017 C-0.201680672,1.41176471 -0.201680672,2.62184874 0.605042017,3.42857143 L9.07563025,12.1008403 L0.605042017,20.5714286 C-0.201680672,21.3781513 -0.201680672,22.5882353 0.605042017,23.394958 C1.41176471,24.2016807 2.62184874,24.2016807 3.42857143,23.394958 L12.1008403,14.9243697 L20.5714286,23.394958 C21.3781513,24.2016807 22.5882353,24.2016807 23.394958,23.394958 C24.2016807,22.5882353 24.2016807,21.3781513 23.394958,20.5714286 L14.9243697,12.1008403 L14.9243697,12.1008403 Z" id="path-1"></path>
    </defs>
    <g id="Icons---In-Use-(ME)" stroke="none" stroke-width="1" fill="none" fill-rule="evenodd">
        <g id="Icons" transform="translate(-541.000000, -200.000000)">
            <g id="Close" transform="translate(541.000000, 200.000000)">
                <rect id="Rectangle-3" x="0" y="0" width="24" height="24"></rect>
                <mask id="mask-2" fill="white">
                    <use xlink:href="#path-1"></use>
                </mask>
                <use id="X" fill="#1C2530" xlink:href="#path-1"></use>
                <g id="Group" mask="url(#mask-2)" fill="#1C2530">
                    <g id="💟-Icon-Style">
                        <rect id="Rectangle-2" x="0" y="0" width="24" height="24"></rect>
                    </g>
                </g>
            </g>
        </g>
    </g>
</svg>