<?xml version="1.0" encoding="UTF-8"?>
<svg width="24px" height="24px" viewBox="0 0 24 24" version="1.1" xmlns="http://www.w3.org/2000/svg" xmlns:xlink="http://www.w3.org/1999/xlink">
    <title>Close Light</title>
    <g id="Icons---In-Use-(ME)" stroke="none" stroke-width="1" fill="none" fill-rule="evenodd">
        <g id="Icons" transform="translate(-1062.000000, -200.000000)" fill="#1C2530">
            <path d="M1076.12482,212 L1085.52799,202.596913 C1085.52799,202.596913 1086.59001,201.533903 1085.52799,200.472893 C1084.46497,199.408883 1083.40295,200.472893 1083.40295,200.472893 L1073.99978,209.87498 L1064.5976,200.472893 C1064.5976,200.472893 1063.53458,199.408883 1062.47156,200.472893 C1061.41054,201.533903 1062.47156,202.596913 1062.47156,202.596913 L1071.87474,212 L1062.47156,221.403087 C1062.47156,221.403087 1061.41054,222.467097 1062.47156,223.527107 C1063.53458,224.591117 1064.5976,223.527107 1064.5976,223.527107 L1073.99978,214.12502 L1083.40295,223.527107 C1083.40295,223.527107 1084.46497,224.591117 1085.52799,223.527107 C1086.59001,222.467097 1085.52799,221.403087 1085.52799,221.403087 L1076.12482,212 Z" id="Close-Light"></path>
        </g>
    </g>
</svg>