<?xml version="1.0" encoding="UTF-8"?>
<svg width="24px" height="24px" viewBox="0 0 24 24" version="1.1" xmlns="http://www.w3.org/2000/svg" xmlns:xlink="http://www.w3.org/1999/xlink">
    <title>Close X</title>
    <g id="Icons---In-Use-(ME)" stroke="none" stroke-width="1" fill="none" fill-rule="evenodd">
        <g id="Icons" transform="translate(-541.000000, -274.000000)">
            <g id="Close-X" transform="translate(541.000000, 274.000000)">
                <path d="M12,0 C18.627417,0 24,5.372583 24,12 C24,18.627417 18.627417,24 12,24 C5.372583,24 0,18.627417 0,12 C0,5.372583 5.372583,0 12,0 Z M6.30252101,6.30252101 C5.89915966,6.70588235 5.89915966,7.31092437 6.30252101,7.71428571 L10.5378151,12.0504202 L6.30252101,16.2857143 C5.89915966,16.6890756 5.89915966,17.2941176 6.30252101,17.697479 C6.70588235,18.1008403 7.31092437,18.1008403 7.71428571,17.697479 L12.0504202,13.4621849 L16.2857143,17.697479 C16.6890756,18.1008403 17.2941176,18.1008403 17.697479,17.697479 C18.1008403,17.2941176 18.1008403,16.6890756 17.697479,16.2857143 L13.4621849,12.0504202 L17.697479,7.81512605 C18.1008403,7.41176471 18.1008403,6.80672269 17.697479,6.40336134 C17.2941176,6 16.6890756,6 16.2857143,6.40336134 L12.0504202,10.5378151 L7.71428571,6.30252101 C7.31092437,5.89915966 6.70588235,5.89915966 6.30252101,6.30252101 Z" id="Combined-Shape" fill="#1C2530"></path>
                <g id="Close-X---Gray-@2x" transform="translate(6.000000, 6.000000)">
                    <rect id="Rectangle-3" x="0" y="0" width="12" height="12"></rect>
                </g>
            </g>
        </g>
    </g>
</svg>