<?xml version="1.0" encoding="UTF-8"?>
<svg width="24px" height="24px" viewBox="0 0 24 24" version="1.1" xmlns="http://www.w3.org/2000/svg" xmlns:xlink="http://www.w3.org/1999/xlink">
    <title>Configuration 1</title>
    <defs>
        <path d="M20.194902,7.17333918 C20.1967294,7.17153005 17.9440899,7.69666151 17.9611452,7.67989686 L15.5190093,10.0965388 L13.7969723,8.39245466 C13.7969723,8.39245466 16.1927545,6.03810724 16.2369764,5.99438649 C16.1927545,6.03810724 16.7592949,3.77258832 16.7505236,3.76571361 C16.7866443,3.79701164 22.2779631,0 22.2779631,0 L24,1.70408416 C24,1.70408416 20.1966076,7.17153005 20.194902,7.17333918 Z M23.2251413,19.5965457 C24.1761569,20.5376575 24.22647,22.0137907 23.3374017,22.8935728 L22.8544931,23.3714256 C21.9651811,24.2511474 20.4738171,24.2013962 19.5226187,23.2602844 L5.14153027,9.02920973 C3.60343303,9.26590396 2.05204089,8.69100644 1.04894162,7.51262409 C0.045842351,6.33424174 -0.263615331,4.72312171 0.232589029,3.26247268 L2.92123499,5.92304628 C3.4172565,6.41482415 4.22194871,6.41568789 4.71904616,5.92497602 L5.70679158,4.94738001 C5.94489306,4.71125273 6.07845614,4.39112822 6.07807915,4.05747653 C6.07770215,3.72382484 5.94341598,3.40399697 5.70478149,3.16839768 L3.01613554,0.507703465 C4.49140304,0.0157393503 6.11903493,0.321382613 7.30987861,1.31399981 C8.50072229,2.30661701 9.08223649,3.84238788 8.84393097,5.3654107 L23.2251413,19.5965457 Z M19.7380028,22.706448 C20.32981,23.2926309 21.2200319,23.4681035 21.9934852,23.1510285 C22.7669385,22.8339534 23.2712709,22.0867872 23.2712709,21.2579946 C23.2712709,20.4292019 22.7669385,19.6820357 21.9934852,19.3649606 C21.2200319,19.0478856 20.32981,19.2233582 19.7380028,19.8095411 C18.9308282,20.6098442 18.9308282,21.9061449 19.7380028,22.706448 Z M6.99525846,12.9081149 L7.94621316,13.8491664 L2.10264158,19.6323665 C1.86472017,19.867554 1.82579754,20.2112896 2.01572047,20.3989572 C2.2056434,20.5866247 2.55247507,20.5483314 2.79045739,20.3128423 L8.63402898,14.5296422 L9.32507312,15.213495 L3.48156245,20.9966952 C3.24364104,21.2318827 3.20471841,21.5756183 3.39464134,21.7633461 C3.58456427,21.951074 3.93139594,21.9127204 4.16937826,21.6772313 L10.0128889,15.8940312 L10.9560469,16.8273637 L5.01459012,22.706448 C4.06337152,23.6476289 2.52173487,23.6476289 1.57051627,22.706448 L1.05392347,22.1952469 C0.597232756,21.7434068 0.340641321,21.1304016 0.340641321,20.4911929 C0.340641321,19.8519842 0.597232756,19.238979 1.05392347,18.7871389 L6.99525846,12.9081149 Z" id="path-1"></path>
    </defs>
    <g id="Icons---In-Use-(ME)" stroke="none" stroke-width="1" fill="none" fill-rule="evenodd">
        <g id="Icons" transform="translate(-304.000000, -714.000000)">
            <g id="Configuration-1" transform="translate(304.000000, 714.000000)">
                <rect id="Rectangle-3" x="0" y="0" width="24" height="24"></rect>
                <mask id="mask-2" fill="white">
                    <use xlink:href="#path-1"></use>
                </mask>
                <use id="Rounded_Rectangle_1_copy" fill="#000000" fill-rule="nonzero" xlink:href="#path-1"></use>
                <g id="Group" mask="url(#mask-2)" fill="#1C2530">
                    <g id="💟-Icon-Style">
                        <rect id="Rectangle-2" x="0" y="0" width="24" height="24"></rect>
                    </g>
                </g>
            </g>
        </g>
    </g>
</svg>