<?xml version="1.0" encoding="UTF-8"?>
<svg width="24px" height="24px" viewBox="0 0 24 24" version="1.1" xmlns="http://www.w3.org/2000/svg" xmlns:xlink="http://www.w3.org/1999/xlink">
    <title>Contact Info</title>
    <defs>
        <path d="M3,20.25 L3.81688938,20.25 C5.02264264,20.25 6,19.2780492 6,18.0790871 L6,17.9209129 C6,16.726433 5.02258808,15.75 3.81688938,15.75 L3,15.75 L3,14.25 L3.81688938,14.25 C5.02264264,14.25 6,13.2780492 6,12.0790871 L6,11.9209129 C6,10.726433 5.02258808,9.75 3.81688938,9.75 L3,9.75 L3,8.25 L3.81688938,8.25 C5.02264264,8.25 6,7.27804918 6,6.07908708 L6,5.92091292 C6,4.72643298 5.02258808,3.75 3.81688938,3.75 L3,3.75 L3,2.17216909 C3,0.972513227 3.98470701,0 5.18793894,0 L21.8120611,0 C23.0204264,0 24,0.970553398 24,2.17216909 L24,21.8278309 C24,23.0274868 23.015293,24 21.8120611,24 L5.18793894,24 C3.97957363,24 3,23.0294466 3,21.8278309 L3,20.25 Z M0,6 C0,5.58578644 0.338231385,5.25 0.743083477,5.25 L3.75691652,5.25 C4.1673102,5.25 4.5,5.58289862 4.5,6 C4.5,6.41421356 4.16176862,6.75 3.75691652,6.75 L0.743083477,6.75 C0.332689805,6.75 0,6.41710138 0,6 Z M0,12 C0,11.5857864 0.338231385,11.25 0.743083477,11.25 L3.75691652,11.25 C4.1673102,11.25 4.5,11.5828986 4.5,12 C4.5,12.4142136 4.16176862,12.75 3.75691652,12.75 L0.743083477,12.75 C0.332689805,12.75 0,12.4171014 0,12 Z M0,18 C0,17.5857864 0.338231385,17.25 0.743083477,17.25 L3.75691652,17.25 C4.1673102,17.25 4.5,17.5828986 4.5,18 C4.5,18.4142136 4.16176862,18.75 3.75691652,18.75 L0.743083477,18.75 C0.332689805,18.75 0,18.4171014 0,18 Z M16.658819,5.17353765 C16.51883,5.03354864 16.3279887,4.92744359 16.1091028,4.88862239 C16.0879032,4.88489967 13.9536475,4.5285175 13.4553126,5.05972863 C12.0551023,6.55167419 11.7570911,9.65317749 11.7534796,11.9920277 C11.7499333,14.3308779 12.0396159,17.432217 13.4411546,18.9264359 L13.4530855,18.9383668 C13.9600154,19.4452967 16.0840332,19.1040178 16.1046982,19.1003211 C16.6740466,18.9991936 16.9572775,18.5452186 16.89399,18.1827061 C16.8559622,17.961436 16.3833836,15.5997674 16.3164377,15.319392 C16.2866854,15.1969594 16.217723,15.0824513 16.1169734,14.9817016 C15.9875896,14.8523178 15.8065525,14.7470138 15.5921537,14.6803739 C15.3835855,14.6158575 14.7348391,14.4384567 14.4170918,14.352675 C14.3647047,14.0492567 14.2672669,13.3094117 14.2698898,11.9890892 C14.2711934,10.6775097 14.370621,9.93116309 14.4244838,9.62542616 C14.7426535,9.53845043 15.3911777,9.35867731 15.5994003,9.29362531 C15.9914735,9.17145513 16.2634435,8.93077053 16.327124,8.6475618 C16.3871056,8.38130857 16.8591375,6.03215125 16.896354,5.80138926 C16.9317233,5.58254959 16.8364566,5.35117523 16.658819,5.17353765 Z" id="path-1"></path>
    </defs>
    <g id="Icons---In-Use-(ME)" stroke="none" stroke-width="1" fill="none" fill-rule="evenodd">
        <g id="Icons" transform="translate(-895.000000, -424.000000)">
            <g id="Contact-Info" transform="translate(895.000000, 424.000000)">
                <rect id="Rectangle-4" x="0" y="0" width="24" height="24"></rect>
                <mask id="mask-2" fill="white">
                    <use xlink:href="#path-1"></use>
                </mask>
                <use id="Path-Copy-8" fill="#1C2530" xlink:href="#path-1"></use>
            </g>
        </g>
    </g>
</svg>