<?xml version="1.0" encoding="UTF-8"?>
<svg width="33px" height="24px" viewBox="0 0 33 24" version="1.1" xmlns="http://www.w3.org/2000/svg" xmlns:xlink="http://www.w3.org/1999/xlink">
    <title>credit-card</title>
    <g id="Giving-v1.5" stroke="none" stroke-width="1" fill="none" fill-rule="evenodd">
        <g id="Summary" transform="translate(-601.000000, -725.000000)" fill="#1C2530">
            <g id="Group" transform="translate(563.000000, 193.000000)">
                <g id="Giving-Content" transform="translate(22.000000, 437.000000)">
                    <g id="Group-5" transform="translate(0.000000, 37.000000)">
                        <path d="M45,58 C47.209139,58 49,59.790861 49,62 L49,78 C49,80.209139 47.209139,82 45,82 L20,82 C17.790861,82 16,80.209139 16,78 L16,62 C16,59.790861 17.790861,58 20,58 L45,58 Z M24.0833333,72.6086957 L20.75,72.6086957 C19.6454305,72.6086957 18.75,73.5041262 18.75,74.6086957 L18.75,74.6086957 L18.75,76.173913 C18.75,77.2784825 19.6454305,78.173913 20.75,78.173913 L20.75,78.173913 L24.0833333,78.173913 C25.1879028,78.173913 26.0833333,77.2784825 26.0833333,76.173913 L26.0833333,76.173913 L26.0833333,74.6086957 C26.0833333,73.5041262 25.1879028,72.6086957 24.0833333,72.6086957 L24.0833333,72.6086957 Z M34.3442029,72.6086957 L46.2391304,72.6086957 C46.7513946,72.6086957 47.1666667,73.0239678 47.1666667,73.5362319 C47.1666667,74.048496 46.7513946,74.4637681 46.2391304,74.4637681 L34.3442029,74.4637681 C33.8319388,74.4637681 33.4166667,74.048496 33.4166667,73.5362319 C33.4166667,73.0239678 33.8319388,72.6086957 34.3442029,72.6086957 Z M16,61.4782609 L49,61.4782609 L49,65.1884058 L16,65.1884058 L16,61.4782609 Z M34.3442029,76.3188406 L42.4891304,76.3188406 C43.0013946,76.3188406 43.4166667,76.7341127 43.4166667,77.2463768 C43.4166667,77.7586409 43.0013946,78.173913 42.4891304,78.173913 L34.3442029,78.173913 C33.8319388,78.173913 33.4166667,77.7586409 33.4166667,77.2463768 C33.4166667,76.7341127 33.8319388,76.3188406 34.3442029,76.3188406 Z" id="credit-card"></path>
                    </g>
                </g>
            </g>
        </g>
    </g>
</svg>