<svg id="Layer_1" data-name="Layer 1" xmlns="http://www.w3.org/2000/svg" width="24" height="24" viewBox="0 0 24 24">
  <defs>
    <style>
      .cls-1 {
        fill: #1c2530;
        fill-rule: evenodd;
      }
    </style>
  </defs>
  <title>devotion</title>
  <g id="Page-1">
    <path id="Combined-Shape" class="cls-1" d="M19,0a5,5,0,0,1,5,5V19a5,5,0,0,1-5,5H5a5,5,0,0,1-5-5V5A5,5,0,0,1,5,0ZM15.6,6.2a1.3,1.3,0,0,0-2,0,1.3,1.3,0,0,0,0,2h0l2,2H4.4s-1.5.1-1.5,1.5a1.5,1.5,0,0,0,1.5,1.6H15.6l-2,2a1.4,1.4,0,0,0,2,2h0L20,13l.2-.2h.1a1.2,1.2,0,0,0,.3-.9.1.1,0,0,0,.1-.1h-.1a1.1,1.1,0,0,0-.3-.7c0-.1,0-.2-.1-.2H20Z"/>
  </g>
</svg>
