<svg xmlns="http://www.w3.org/2000/svg" width="23" height="22" viewBox="0 0 23 22">
  <path fill="#1C2530" fill-rule="evenodd" d="M447.201429,347.476556 L453.361992,353.637119 C454.143041,354.418168 454.143041,355.684498 453.361992,356.465547 L443.326422,366.499769 L445.097857,366.5 L445.097857,368 L435.5,368 L435.499422,366.980769 L431.598208,363.079776 C430.81716,362.298728 430.81716,361.032398 431.598208,360.251349 L444.373001,347.476556 C445.15405,346.695507 446.42038,346.695507 447.201429,347.476556 Z M434.099643,366.5 L434.099643,368 L432.5,368 L432.5,366.5 L434.099643,366.5 Z M449.199286,366.5 L449.199286,368 L446,368 L446,366.5 L449.199286,366.5 Z M438.939003,354.686991 L432.68029,360.945704 C432.319806,361.306188 432.292077,361.873419 432.597102,362.26571 L432.68029,362.359917 L436.820422,366.499769 L441.538422,366.499769 L446.146166,361.894155 L438.939003,354.686991 Z" transform="translate(-431 -346)"/>
</svg>
