<svg id="Layer_1" data-name="Layer 1" xmlns="http://www.w3.org/2000/svg" width="24" height="24" viewBox="0 0 24 24">
  <defs>
    <style>
      .cls-1 {
        fill: none;
      }

      .cls-2 {
        fill: #1c2530;
        fill-rule: evenodd;
      }
    </style>
  </defs>
  <title>event-ticket</title>
  <g id="My-Stuff-Navigation-Check-In-v1.0">
    <g id="Event-Checkin-Expanding-Block-02">
      <g id="Dark-Items-_22v_" data-name="Dark-Items-[22v]">
        <g id="Verses">
          <g id="Overrides_Elements_Icons_People_Child" data-name="Overrides/Elements/Icons/People/Child">
            <rect id="Rectangle-5" class="cls-1" width="24" height="24"/>
            <g id="Rectangle-12">
              <path id="path-1" class="cls-2" d="M2.5,19.4.2,17.1A.8.8,0,0,1,.2,16L11.4,4.9l7.7,7.7L8,23.8a.8.8,0,0,1-1.1,0L4.6,21.5a1.5,1.5,0,0,0,0-2.1A1.5,1.5,0,0,0,2.5,19.4ZM19.4,2.5a1.4,1.4,0,0,0,0,2.1,1.5,1.5,0,0,0,2.1,0l2.3,2.3a.8.8,0,0,1,0,1.1l-3.4,3.4L12.6,3.6,16,.2a.8.8,0,0,1,1.1,0ZM4.3,15.8a.4.4,0,0,0,0,.5l.3.2c.2.2.4.2.5,0l7.3-7.2a.4.4,0,0,0,0-.5l-.3-.3h-.5Zm1.6,1.5a.4.4,0,0,0,0,.5l.3.3h.5l4.7-4.7a.4.4,0,0,0,0-.5l-.3-.3h-.5Zm1.6,1.6c-.2.1-.2.3,0,.5l.2.3a.4.4,0,0,0,.5,0l6-6a.4.4,0,0,0,0-.5l-.3-.3h-.5Z" transform="translate(0 0)"/>
            </g>
          </g>
        </g>
      </g>
    </g>
  </g>
</svg>
