<?xml version="1.0" encoding="UTF-8"?>
<svg width="24px" height="24px" viewBox="0 0 24 24" version="1.1" xmlns="http://www.w3.org/2000/svg" xmlns:xlink="http://www.w3.org/1999/xlink">
    <title>Giving</title>
    <g id="Icons---In-Use-(ME)" stroke="none" stroke-width="1" fill="none" fill-rule="evenodd">
        <g id="Icons" transform="translate(-304.000000, -640.000000)" fill="#1C2530">
            <path d="M315.482899,642.479659 C315.788767,642.950654 316.024029,643.438852 316.188943,643.922839 C316.267874,643.773578 316.355977,643.625791 316.450876,643.479659 C317.804457,641.395327 320.028208,640.437171 321.417763,641.339559 C322.64379,642.13575 322.810776,644.11432 321.903369,646.000644 L326.999305,646 C327.551974,646 328,646.450975 328,646.990778 L328,651.009222 C328,651.556414 327.552531,652 326.999305,652 L326,652 L326,662.997527 C326,663.551177 325.544694,664 325.008197,664 L306.991803,664 C306.444045,664 306,663.544239 306,662.997527 L306,652 L305.000695,652 C304.448026,652 304,651.549025 304,651.009222 L304,646.990778 C304,646.443586 304.447469,646 305.000695,646 L310.623579,646.000854 L310.450876,645.747493 C309.097294,643.663161 309.126457,641.241946 310.516012,640.339559 C311.905567,639.437171 314.129318,640.395327 315.482899,642.479659 Z M312.428878,642.072076 C311.639731,642.584554 311.589907,643.908378 312.317595,645.028918 C313.045283,646.149459 314.27492,646.642391 315.064068,646.129912 C315.853216,645.617434 315.903039,644.29361 315.175351,643.17307 C314.447664,642.052529 313.218026,641.559597 312.428878,642.072076 Z M318.317595,643.17307 C317.589907,644.29361 317.639731,645.617434 318.428878,646.129912 C319.218026,646.642391 320.447664,646.149459 321.175351,645.028918 C321.903039,643.908378 321.853216,642.584554 321.064068,642.072076 C320.27492,641.559597 319.045283,642.052529 318.317595,643.17307 Z M322.7066,655.43048 L322.44275,655.814502 C320.41011,658.749973 319.145122,660.013378 316.1306,662.17768 L315.481004,661.691497 C315.133406,661.430161 314.807,661.18238 314.497,660.94288 C313.835,660.98568 313.3594,660.90048 312.9874,660.66648 C312.553,660.36848 312.3254,660.00608 312.2634,659.64448 C312.463455,660.281721 313.376102,660.64116 314.18335,660.607226 L314.2694,660.60208 C315.4894,660.53848 316.7306,660.21928 317.3506,659.53848 C318.095,658.72968 317.971,657.70768 316.8334,655.87728 C319.7078,653.98328 322.7066,653.77008 323.5958,654.08928 C322.9546,654.08928 322.3754,654.11088 321.8794,654.28088 L322.224454,654.74909 C322.385816,654.968309 322.553,655.199394 322.7066,655.43048 Z M311.2382,657.29928 C313.2282,656.20528 314.6946,655.09088 315.8254,654.15608 C315.8886,654.55368 316.0142,654.93168 316.1398,655.34968 L315.949851,655.463784 C315.545434,655.710987 315.01416,656.05914 314.720778,656.273746 L314.494321,656.442766 C313.90515,656.888971 312.971226,657.668028 312.4738,658.61248 C312.147467,658.320613 311.680303,657.811619 311.330498,657.406847 L311.2382,657.29928 Z M314.911,659.37848 C312.9154,660.08168 314.1678,657.65008 316.397,656.38408 L316.44146,656.540479 C316.763899,657.730854 316.647039,658.719047 315.019309,659.338599 L314.911,659.37848 Z M309.4554,655.40688 L309.72354,655.031271 C311.790005,652.16011 313.094135,650.924439 316.157,648.80848 L316.588069,649.112746 C318.754808,650.654629 320.007424,651.752832 321.409,653.51288 C321.4506,653.55448 321.4722,653.59608 321.4722,653.59608 C320.1066,653.74128 318.1106,654.38688 316.5562,655.26128 L316.511585,655.164592 C316.373655,654.860641 316.156074,654.31568 316.325,653.88728 C316.619,653.15888 317.6274,652.53448 318.0266,652.47168 C318.2998,652.43048 318.8878,651.18128 318.3838,651.18128 C315.989,651.20248 315.3378,654.63648 310.3378,656.59328 C310.0438,656.23928 309.7706,655.84368 309.4554,655.40688 Z" id="Giving"></path>
        </g>
    </g>
</svg>