<?xml version="1.0" encoding="UTF-8"?>
<svg width="21px" height="24px" viewBox="0 0 21 24" version="1.1" xmlns="http://www.w3.org/2000/svg" xmlns:xlink="http://www.w3.org/1999/xlink">
    <title>Music</title>
    <g id="Icons---In-Use-(ME)" stroke="none" stroke-width="1" fill="none" fill-rule="evenodd">
        <g id="Icons" transform="translate(-305.000000, -492.000000)" fill="#1C2530" fill-rule="nonzero">
            <path d="M325.989648,492.091019 C325.989648,492.091019 319.727063,491.251248 311.158515,494.673289 C311.155096,494.709471 311.158515,509.833317 311.158515,509.833317 C311.158515,509.833317 310.273662,509.489231 309.473547,509.500086 C309.479896,509.51094 305.684079,509.257187 305.007406,513.082049 C305.019616,513.092903 304.598496,515.638871 308.630941,515.99743 C308.614458,516.007681 312.716499,516.132748 313.181453,512.249031 C313.191587,512.251805 313.181453,500.837161 313.181453,500.837161 C313.181453,500.837161 318.562604,499.063064 323.967687,498.754677 C323.98881,498.765411 323.967687,507.167829 323.967687,507.167829 C323.428076,506.967114 322.858968,506.854563 322.28272,506.834598 C322.316785,506.834598 318.157479,506.703018 317.816579,510.499779 C317.82769,510.511839 317.739046,513.142954 321.52424,513.41528 C321.52424,513.411903 325.761934,513.324224 325.990503,509.916655 C326.012359,509.931851 325.989648,492.091019 325.989648,492.091019 Z" id="Music"></path>
        </g>
    </g>
</svg>