<?xml version="1.0" encoding="UTF-8"?>
<svg width="24px" height="24px" viewBox="0 0 24 24" version="1.1" xmlns="http://www.w3.org/2000/svg" xmlns:xlink="http://www.w3.org/1999/xlink">
    <title>Occupation</title>
    <defs>
        <path d="M24,15 L24,22.0049107 C24,23.1067681 23.1029738,24 21.9950534,24 L2.00494659,24 C0.897645164,24 0,23.1073772 0,22.0049107 L0,15 L24,15 Z M18.0069036,0 C18.831518,0 19.5,0.665797234 19.5,1.5 L19.5,8.00922203 C19.5,8.55641359 19.0573397,9 18.5010434,9 L17.4989566,9 C16.9472481,9 16.5,8.54902482 16.5,8.00922203 L16.5,3 L7.5,3 L7.5,8.00922203 C7.5,8.55641359 7.05733967,9 6.50104344,9 L5.49895656,9 C4.94724809,9 4.5,8.54902482 4.5,8.00922203 L4.5,3 L4.5,3 L4.5,1.5 C4.5,0.671572875 5.16388585,0 5.99309635,0 L18.0069036,0 Z M0,7.99508929 C0,6.8932319 0.897026226,6 2.00494659,6 L3,6 L3,8.49013764 C3,9.55928761 3.81502647,10.4186333 4.84880652,10.4945466 L4.99791312,10.5 L7.00208688,10.5 C8.10173938,10.5 9,9.60015397 9,8.49013764 L9,8.49013764 L9,6 L15,6 L15,8.49013764 C15,9.55928761 15.8150265,10.4186333 16.8488065,10.4945466 L16.9979131,10.5 L19.0020869,10.5 C20.1017394,10.5 21,9.60015397 21,8.49013764 L21,8.49013764 L21,6 L21.9950534,6 C23.1023548,6 24,6.8926228 24,7.99508929 L24,13.5 L0,13.5 L0,7.99508929 Z" id="path-1"></path>
    </defs>
    <g id="Icons---In-Use-(ME)" stroke="none" stroke-width="1" fill="none" fill-rule="evenodd">
        <g id="Icons" transform="translate(-785.000000, -350.000000)">
            <g id="Occupation" transform="translate(785.000000, 350.000000)">
                <rect id="Rectangle-4" x="0" y="0" width="24" height="24"></rect>
                <mask id="mask-2" fill="white">
                    <use xlink:href="#path-1"></use>
                </mask>
                <use id="Path-Copy-20" fill="#1C2530" xlink:href="#path-1"></use>
            </g>
        </g>
    </g>
</svg>