<?xml version="1.0" encoding="UTF-8"?>
<svg width="24px" height="24px" viewBox="0 0 24 24" version="1.1" xmlns="http://www.w3.org/2000/svg" xmlns:xlink="http://www.w3.org/1999/xlink">
    <title>Password</title>
    <defs>
        <path d="M23.5922996,19.8100524 L23.9945444,23.1569082 C24.0441843,23.5699341 23.7495329,23.9449907 23.336422,23.9946204 C23.2781743,24.001618 23.2193085,24.0017895 23.161021,23.9951314 L19.3878862,23.5641277 C18.9915703,23.5188567 18.6992378,23.1725794 18.7211608,22.7743699 L18.7994751,21.3518705 C18.8197387,20.9838018 18.5705833,20.6551469 18.2106616,20.5751807 L15.9702311,20.0774096 C15.6557231,20.0075333 15.4204656,19.7454408 15.3848868,19.4252971 L15.1333109,17.1615796 C15.094825,16.8152771 14.8237946,16.540565 14.4779805,16.4973471 L12.054146,16.1944301 L10.2246212,14.5699594 C9.38897694,14.8895201 8.48185771,15.0645861 7.53384122,15.0645861 C3.37301561,15.0645861 0,11.6922636 0,7.53229305 C0,3.37232247 3.37301561,0 7.53384122,0 C11.6946668,0 15.0676824,3.37232247 15.0676824,7.53229305 C15.0676824,8.52232234 14.8766382,9.46774002 14.529397,10.333706 L23.5922996,19.8100524 Z M3.76692061,6.02583444 C3.76692061,7.27382561 4.77882529,8.28552235 6.02707298,8.28552235 C7.27532066,8.28552235 8.28722535,7.27382561 8.28722535,6.02583444 C8.28722535,4.77784326 7.27532066,3.76614652 6.02707298,3.76614652 C4.77882529,3.76614652 3.76692061,4.77784326 3.76692061,6.02583444 Z" id="path-1"></path>
    </defs>
    <g id="Icons---In-Use-(ME)" stroke="none" stroke-width="1" fill="none" fill-rule="evenodd">
        <g id="Icons" transform="translate(-785.000000, -276.000000)">
            <g id="Password" transform="translate(785.000000, 276.000000)">
                <rect id="Rectangle-4" x="0" y="0" width="24" height="24"></rect>
                <mask id="mask-2" fill="white">
                    <use xlink:href="#path-1"></use>
                </mask>
                <use fill="#1C2530" xlink:href="#path-1"></use>
            </g>
        </g>
    </g>
</svg>