<?xml version="1.0" encoding="UTF-8"?>
<svg width="24px" height="24px" viewBox="0 0 24 24" version="1.1" xmlns="http://www.w3.org/2000/svg" xmlns:xlink="http://www.w3.org/1999/xlink">
    <title>Phone - Home</title>
    <defs>
        <path d="M15.75,8.25 L17.6025039,8.25 C18.4288969,8.25 19.3111294,8.88692567 19.5739828,9.67548596 L23.8736588,22.574514 C24.1360836,23.3617882 23.6818745,24 22.8475133,24 L1.85012831,24 C1.02097908,24 0.561129378,23.3630743 0.823982811,22.574514 L5.12365883,9.67548596 C5.38608355,8.88821181 6.26828792,8.25 7.09513779,8.25 L8.25,8.25 L8.25,6.74308348 C8.25,6.3326898 8.74934793,6 9.375,6 C9.99632034,6 10.5,6.33823138 10.5,6.74308348 L10.5,8.25 L13.5,8.25 L13.5,6.74308348 C13.5,6.3326898 13.9993479,6 14.625,6 C15.2463203,6 15.75,6.33823138 15.75,6.74308348 L15.75,8.25 Z M12,19.5 C14.0710678,19.5 15.75,17.8210678 15.75,15.75 C15.75,13.6789322 14.0710678,12 12,12 C9.92893219,12 8.25,13.6789322 8.25,15.75 C8.25,17.8210678 9.92893219,19.5 12,19.5 Z M23.3266596,7.85779186 C23.0315789,8.14234691 22.6472339,8.29495321 22.2837108,8.23829576 C21.9003831,8.17867908 17.9981063,7.42253803 17.5558227,7.32645449 C17.0853737,7.22444561 16.6855631,6.78878079 16.4826215,6.16072436 C16.3745611,5.82717564 16.0759329,4.78831413 15.9314541,4.2786427 C15.4235826,4.19236074 14.1837973,4.03308905 12.0050814,4.03100091 C9.81184218,4.02679926 8.58285694,4.18288353 8.0788369,4.2668016 C7.93634164,4.77579634 7.64165425,5.8150139 7.53448345,6.14911622 C7.42378546,6.49255844 7.2488608,6.78255916 7.03393636,6.98981717 C6.86657716,7.1512066 6.67636328,7.26167637 6.47298559,7.30933623 C6.0072431,7.41657579 2.08418338,8.1735927 1.71662309,8.23450886 C1.11443947,8.33588807 0.360323912,7.88218474 0.192336955,6.9701538 C0.186196288,6.9370508 -0.380715457,3.53461754 0.461365575,2.72257388 C2.96328977,0.458357625 8.11504494,-0.00568085052 12.0002001,1.15463195e-14 C15.8853553,0.00578520126 21.0373833,0.483164987 23.5157122,2.72614155 C24.3981277,3.52441702 23.8061274,6.94325018 23.7999434,6.97720947 C23.735456,7.32783952 23.5592008,7.63354549 23.3266596,7.85779186 Z" id="path-1"></path>
    </defs>
    <g id="Icons---In-Use-(ME)" stroke="none" stroke-width="1" fill="none" fill-rule="evenodd">
        <g id="Icons" transform="translate(-893.000000, -645.000000)">
            <g id="Phone---Home" transform="translate(893.000000, 645.000000)">
                <rect id="Rectangle-4" x="0" y="0" width="24" height="24"></rect>
                <mask id="mask-2" fill="white">
                    <use xlink:href="#path-1"></use>
                </mask>
                <use id="Path-Copy-13" fill="#1C2530" xlink:href="#path-1"></use>
            </g>
        </g>
    </g>
</svg>