<?xml version="1.0" encoding="UTF-8"?>
<svg width="24px" height="24px" viewBox="0 0 24 24" version="1.1" xmlns="http://www.w3.org/2000/svg" xmlns:xlink="http://www.w3.org/1999/xlink">
    <title>Playlist</title>
    <defs>
        <path d="M1.5,10.5 L22.5,10.5 C23.3284271,10.5 24,11.1715729 24,12 L24,22.5 C24,23.3284271 23.3284271,24 22.5,24 L1.5,24 C0.671572875,24 0,23.3284271 0,22.5 L0,12 C0,11.1715729 0.671572875,10.5 1.5,10.5 Z M14.1455799,17.8603001 C14.2129265,17.8121954 14.2718466,17.7532753 14.3199513,17.6859286 C14.5607081,17.3488692 14.4826393,16.8804566 14.1455799,16.6396999 L10.9359286,14.3470919 C10.8087281,14.2562343 10.6563172,14.207392 10.5,14.207392 C10.0857864,14.207392 9.75,14.5431784 9.75,14.957392 L9.75,19.542608 C9.75,19.6989252 9.79884235,19.8513361 9.8896999,19.9785367 C10.1304566,20.3155961 10.5988692,20.3936649 10.9359286,20.1529081 L14.1455799,17.8603001 Z M19.5,8.25 L5.25,8.25 C4.42157288,8.25 3.75,7.57842712 3.75,6.75 C3.75,5.92157288 4.42157288,5.25 5.25,5.25 L19.5,5.25 C20.3284271,5.25 21,5.92157288 21,6.75 C21,7.57842712 20.3284271,8.25 19.5,8.25 Z M18,3 L7.5,3 C6.67157288,3 6,2.32842712 6,1.5 C6,0.671572875 6.67157288,0 7.5,0 L18,0 C18.8284271,0 19.5,0.671572875 19.5,1.5 C19.5,2.32842712 18.8284271,3 18,3 Z" id="path-1"></path>
    </defs>
    <g id="Icons---In-Use-(ME)" stroke="none" stroke-width="1" fill="none" fill-rule="evenodd">
        <g id="Icons" transform="translate(-61.000000, -200.000000)">
            <g id="Playlist" transform="translate(61.000000, 200.000000)">
                <rect id="Rectangle-4" x="0" y="0" width="24" height="24"></rect>
                <mask id="mask-2" fill="white">
                    <use xlink:href="#path-1"></use>
                </mask>
                <use fill="#1C2530" xlink:href="#path-1"></use>
            </g>
        </g>
    </g>
</svg>