<?xml version="1.0" encoding="UTF-8"?>
<svg width="24px" height="24px" viewBox="0 0 24 24" version="1.1" xmlns="http://www.w3.org/2000/svg" xmlns:xlink="http://www.w3.org/1999/xlink">
    <title>Pulpit</title>
    <defs>
        <path d="M14.75,13.5 C15.3022847,13.5 15.75,13.9477153 15.75,14.5 L15.75,23 C15.75,23.5522847 15.3022847,24 14.75,24 L9.25,24 C8.69771525,24 8.25,23.5522847 8.25,23 L8.25,14.5 C8.25,13.9477153 8.69771525,13.5 9.25,13.5 L14.75,13.5 Z M15.773708,0.375125231 L16.9991889,2.4977205 C17.1939099,2.83498713 17.0969096,3.26062707 16.7864781,3.48245795 L19.106,7.5 L22.4000278,7.5 C23.2836681,7.5 24,8.17157288 24,9 C24,9.19803903 23.9581706,9.39411782 23.8769252,9.57692308 L21.2103049,15.5769231 C20.961878,16.1358935 20.3793177,16.5 19.7334075,16.5 L17.099,16.5 L17.0997951,14 C17.0997951,12.9456382 16.2839173,12.0818349 15.2490575,12.0054857 L15.0997951,12 L8.75,12 C7.6454305,12 6.75,12.8954305 6.75,14 L6.75,14 L6.75,16.5 L4.26700985,16.5 C3.62109972,16.5 3.03853943,16.1358935 2.79011246,15.5769231 L0.123492169,9.57692308 C-0.216369458,8.81222112 0.169347741,7.93401043 0.985015648,7.61538462 C1.18000453,7.53921576 1.38915161,7.5 1.60038956,7.5 L18.24,7.5 L16.139,3.86 L16.0751508,3.89723955 C15.7164314,4.10434633 15.2577386,3.98143996 15.0506318,3.6227205 L13.8251508,1.50012523 C13.6180441,1.14140576 13.7409504,0.68271296 14.0996699,0.475606179 L14.7491889,0.100606179 C15.1079084,-0.106500603 15.5666012,0.0164057638 15.773708,0.375125231 Z" id="path-1"></path>
    </defs>
    <g id="Icons---In-Use-(ME)" stroke="none" stroke-width="1" fill="none" fill-rule="evenodd">
        <g id="Icons" transform="translate(-303.000000, -418.000000)">
            <g id="Pulpit" transform="translate(303.000000, 418.000000)">
                <rect id="Rectangle-5" x="0" y="0" width="24" height="24"></rect>
                <mask id="mask-2" fill="white">
                    <use xlink:href="#path-1"></use>
                </mask>
                <use id="Rectangle-11" fill="#1C2530" xlink:href="#path-1"></use>
                <g id="Group" mask="url(#mask-2)" fill="#1C2530">
                    <g id="💟-Icon-Style">
                        <rect id="Rectangle-2" x="0" y="0" width="24" height="24"></rect>
                    </g>
                </g>
            </g>
        </g>
    </g>
</svg>