<svg xmlns="http://www.w3.org/2000/svg" width="24" height="24" viewBox="0 0 24 24">
  <path fill="#1C2530" fill-rule="evenodd" d="M319.378378,273 C323.587684,273 327,276.479133 327,280.770861 C327,282.499313 326.446523,284.095963 325.510413,285.38662 L325.511402,285.386635 L325.506813,285.391579 C325.140336,285.896022 324.715372,286.353631 324.242139,286.753987 L314.965861,296.747137 L317.16821,288.209959 C314.036693,287.244076 311.756757,284.278936 311.756757,280.770861 C311.756757,276.479133 315.169073,273 319.378378,273 Z M319.036,293.884 L320.189189,296.087494 L318.162,294.805 L319.036,293.884 Z M310.632027,273 C311.96196,273 313.212442,273.34931 314.301212,273.963458 C313.979607,274.224998 313.677591,274.508719 313.396437,274.812969 C312.559054,274.406053 311.621418,274.178512 310.632027,274.178512 C307.050817,274.178512 304.147673,277.159666 304.147673,280.837105 C304.147673,283.807436 306.041706,286.323506 308.629046,287.196683 L308.866135,287.271504 L315.581,291.884 L315.334,293.016 L306.679098,287.542445 C304.473597,286.168505 303,283.679518 303,280.837105 C303,276.508791 306.416975,273 310.632027,273 Z M314.107475,287.666413 C314.647505,288.132335 315.244083,288.531382 315.885114,288.851133 L316.209278,289.004343 L315.855,290.625 L314.107475,287.666413 Z M311.230047,282.781819 C311.315567,283.185915 311.428,283.579699 311.565323,283.961093 L306.694678,283.960162 C306.492307,283.960162 306.328253,283.696343 306.328253,283.370906 C306.328253,283.045469 306.492307,282.78165 306.694678,282.78165 L311.230047,282.781819 Z M323.665064,281.647274 L315.320914,281.647274 C314.998228,281.647274 314.736639,281.908863 314.736639,282.231549 C314.736639,282.521967 314.948526,282.762895 315.226142,282.808177 L315.320914,282.815824 L323.665064,282.815824 C323.987751,282.815824 324.24934,282.554235 324.24934,282.231549 C324.24934,281.908863 323.987751,281.647274 323.665064,281.647274 Z M311.009893,280.424626 L311.045512,280.42922 C311.037678,280.583806 311.033713,280.739443 311.033713,280.89603 C311.033713,281.131689 311.042694,281.365194 311.060324,281.596203 L311.009893,281.603138 L306.696374,281.603138 C306.493066,281.603138 306.328253,281.339319 306.328253,281.013882 C306.328253,280.688445 306.493066,280.424626 306.696374,280.424626 L311.009893,280.424626 Z M320.226739,279.310173 L315.320914,279.310173 C314.998228,279.310173 314.736639,279.571762 314.736639,279.894448 C314.736639,280.184866 314.948526,280.425794 315.226142,280.471076 L315.320914,280.478723 L320.226739,280.478723 C320.549425,280.478723 320.811014,280.217134 320.811014,279.894448 C320.811014,279.571762 320.549425,279.310173 320.226739,279.310173 Z M311.352861,278.185453 C311.383577,278.185453 311.413418,278.191431 311.441951,278.202699 C311.323253,278.580047 311.230114,278.96714 311.162664,279.363304 L306.697709,279.363965 C306.493664,279.363965 306.328253,279.100146 306.328253,278.774709 C306.328253,278.449272 306.493664,278.185453 306.697709,278.185453 L311.352861,278.185453 Z M322.518956,277.089927 L315.320914,277.089927 C314.998228,277.089927 314.736639,277.351516 314.736639,277.674202 C314.736639,277.96462 314.948526,278.205548 315.226142,278.25083 L315.320914,278.258477 L322.518956,278.258477 C322.841642,278.258477 323.103231,277.996888 323.103231,277.674202 C323.103231,277.351516 322.841642,277.089927 322.518956,277.089927 Z" transform="translate(-303 -273)"/>
</svg>
