<?xml version="1.0" encoding="UTF-8"?>
<svg width="24px" height="24px" viewBox="0 0 24 24" version="1.1" xmlns="http://www.w3.org/2000/svg" xmlns:xlink="http://www.w3.org/1999/xlink">
    <title>Search</title>
    <defs>
        <path d="M24,20.8149885 L20.8149885,24 L14.3793447,17.5643562 C10.2833094,20.0489233 4.976888,19.0826768 2.01954977,15.3137606 C-0.937788463,11.5448443 -0.614152692,6.16088664 2.77336697,2.77336697 C6.16088664,-0.614152692 11.5448443,-0.937788463 15.3137606,2.01954977 C19.0826768,4.976888 20.0489233,10.2833094 17.5643562,14.3793447 L24,20.8149885 Z M9.46418379,3.58551688 C6.2176942,3.58640076 3.58652827,6.21876085 3.58711748,9.46525051 C3.58770669,12.7117402 6.21982796,15.343145 9.46631766,15.3428505 C12.7128074,15.3425559 15.3444511,12.7106735 15.3444512,9.46418379 C15.3444513,7.90478704 14.7248738,6.40928251 13.6220637,5.30677258 C12.5192536,4.20426266 11.0235805,3.58509232 9.46418379,3.58551688 L9.46418379,3.58551688 Z" id="path-1"></path>
    </defs>
    <g id="Icons---In-Use-(ME)" stroke="none" stroke-width="1" fill="none" fill-rule="evenodd">
        <g id="Icons" transform="translate(-541.000000, -496.000000)">
            <g id="Search" transform="translate(541.000000, 496.000000)">
                <rect id="Rectangle-3" x="0" y="0" width="24" height="24"></rect>
                <mask id="mask-2" fill="white">
                    <use xlink:href="#path-1"></use>
                </mask>
                <use fill="#38424D" xlink:href="#path-1"></use>
                <g id="Group" mask="url(#mask-2)" fill="#1C2530">
                    <g id="💟-Icon-Style">
                        <rect id="Rectangle-2" x="0" y="0" width="24" height="24"></rect>
                    </g>
                </g>
            </g>
        </g>
    </g>
</svg>