<?xml version="1.0" encoding="UTF-8"?>
<svg width="24px" height="24px" viewBox="0 0 24 24" version="1.1" xmlns="http://www.w3.org/2000/svg" xmlns:xlink="http://www.w3.org/1999/xlink">
    <title>Shrink</title>
    <defs>
        <path d="M19.9480569,9.01240099 C20.7591446,9.01390855 21.4164574,9.66969538 21.4164574,10.4807605 C21.4164574,11.2918256 20.7591446,11.94912 19.9480569,11.94912 L13.7729353,11.94912 C13.6885098,11.9657031 13.6101147,11.9988693 13.5196588,12.0003769 C13.4442789,12.0003769 13.3930206,11.9295218 13.3191483,11.9159538 C13.0387351,11.8842951 12.7733978,11.7893191 12.5472581,11.5963519 C12.5246441,11.5767537 12.4959998,11.5752461 12.4568022,11.5435874 C12.4507718,11.5375572 12.4492642,11.5300194 12.4130819,11.4757474 C12.176389,11.2119251 12.0497507,10.8908157 12.0316596,10.5576458 C12.030152,10.5274947 12,10.5109116 12,10.4807605 C12,10.3933222 12.0361824,10.3179444 12.0527659,10.2335213 L12.0527659,4.05404946 C12.0542735,3.24298435 12.7100787,2.58568996 13.5211664,2.58568996 C14.3307466,2.58568996 14.9880593,3.24298435 14.9880593,4.0525419 L14.9880593,6.88674709 L21.4025761,0.472367532 C21.4025761,0.472367532 22.4654327,-0.590459415 23.5282893,0.472367532 C24.5896383,1.53368692 23.5282893,2.59651387 23.5282893,2.59651387 L17.1152802,9.01390855 L19.9480569,9.01240099 Z M4.05194312,14.987599 C3.24085537,14.9860915 2.58354263,14.3303046 2.58354263,13.5192395 C2.58354263,12.7081744 3.24085537,12.05088 4.05194312,12.05088 L10.2270647,12.05088 C10.3114902,12.0342969 10.3898853,12.0011307 10.4803412,11.9996231 C10.5557211,11.9996231 10.6069794,12.0704782 10.6808517,12.0840462 C10.9612649,12.1157049 11.2266022,12.2106809 11.4527419,12.4036481 C11.4753559,12.4232463 11.5040002,12.4247539 11.5431978,12.4564126 C11.5492282,12.4624428 11.5507358,12.4699806 11.5869181,12.5242526 C11.823611,12.7880749 11.9502493,13.1091843 11.9683404,13.4423542 C11.969848,13.4725053 12,13.4890884 12,13.5192395 C12,13.6066778 11.9638176,13.6820556 11.9472341,13.7664787 L11.9472341,19.9459505 C11.9457265,20.7570156 11.2899213,21.41431 10.4788336,21.41431 C9.66925343,21.41431 9.01194068,20.7570156 9.01194068,19.9474581 L9.01194068,17.1132529 L2.59742392,23.5276325 C2.59742392,23.5276325 1.5345673,24.5904594 0.471710676,23.5276325 C-0.589638345,22.4663131 0.471710676,21.4034861 0.471710676,21.4034861 L6.88471984,14.9860915 L4.05194312,14.987599 Z" id="path-1"></path>
    </defs>
    <g id="Icons---In-Use-(ME)" stroke="none" stroke-width="1" fill="none" fill-rule="evenodd">
        <g id="Icons" transform="translate(-665.000000, -495.000000)">
            <g id="Shrink" transform="translate(665.000000, 495.000000)">
                <rect id="Rectangle-5" x="0" y="0" width="24" height="24"></rect>
                <mask id="mask-2" fill="white">
                    <use xlink:href="#path-1"></use>
                </mask>
                <use id="Path" fill="#1C2530" xlink:href="#path-1"></use>
                <g id="Group" mask="url(#mask-2)" fill="#1C2530">
                    <g id="💟-Icon-Style">
                        <rect id="Rectangle-2" x="0" y="0" width="24" height="24"></rect>
                    </g>
                </g>
            </g>
        </g>
    </g>
</svg>