<?xml version="1.0" encoding="UTF-8"?>
<svg width="22px" height="24px" viewBox="0 0 22 24" version="1.1" xmlns="http://www.w3.org/2000/svg" xmlns:xlink="http://www.w3.org/1999/xlink">
    <title>Start or Run</title>
    <defs>
        <path d="M12,24 C7.19272937,24.00024 2.94228423,20.8413002 1.50435682,16.1996158 C0.0664294108,11.5579314 1.77422175,6.50909117 5.72141608,3.73249211 C6.33492298,3.18138765 7.26426946,3.20097818 7.85456192,3.77745862 C8.44485439,4.35393906 8.49717014,5.29304121 7.97464321,5.93299685 L7.98691382,5.9481388 C4.90464451,7.77781791 3.41229456,11.4673242 4.34227882,14.9586954 C5.27226308,18.4500665 8.39487088,20.8809168 11.9683491,20.8953471 C15.5418274,20.9097773 18.6835093,18.5042233 19.6410026,15.020474 C20.5984959,11.5367248 19.135295,7.83528354 16.0675557,5.98076972 L16.0675557,5.98076972 C15.5066972,5.35447393 15.5288999,4.39339818 16.1180671,3.79430521 C16.7072343,3.19521225 17.6569046,3.16804187 18.2785839,3.73249211 C22.2257782,6.50909117 23.9335706,11.5579314 22.4956432,16.1996158 C21.0577158,20.8413002 16.8072706,24.00024 12,24 L12,24 Z M12.0374104,10.1451104 C11.1489796,10.1451104 10.4287641,9.41633732 10.4287641,8.51735016 L10.4287641,1.62776025 C10.4287641,0.728773089 11.1489796,0 12.0374104,0 C12.9258412,0 13.6460567,0.728773089 13.6460567,1.62776025 L13.6460567,8.51735016 C13.6460567,9.41633732 12.9258412,10.1451104 12.0374104,10.1451104 Z" id="path-1"></path>
    </defs>
    <g id="Icons---In-Use-(ME)" stroke="none" stroke-width="1" fill="none" fill-rule="evenodd">
        <g id="Icons" transform="translate(-786.000000, -498.000000)">
            <g id="Start-or-Run" transform="translate(785.000000, 498.000000)">
                <rect id="Rectangle-3" x="0" y="0" width="24" height="24"></rect>
                <mask id="mask-2" fill="white">
                    <use xlink:href="#path-1"></use>
                </mask>
                <use id="Ellipse_1_copy_2" fill="#1C2530" fill-rule="nonzero" xlink:href="#path-1"></use>
                <g id="Group" mask="url(#mask-2)" fill="#1C2530">
                    <g id="💟-Icon-Style">
                        <rect id="Rectangle-2" x="0" y="0" width="24" height="24"></rect>
                    </g>
                </g>
            </g>
        </g>
    </g>
</svg>