<svg xmlns="http://www.w3.org/2000/svg" width="24" height="24" viewBox="0 0 24 24">
  <path fill="#1C2530" fill-rule="evenodd" d="M1065,348 L1083,348 C1084.65685,348 1086,349.343146 1086,351 L1086,369 C1086,370.656854 1084.65685,372 1083,372 L1065,372 C1063.34315,372 1062,370.656854 1062,369 L1062,351 C1062,349.343146 1063.34315,348 1065,348 Z M1073,348 L1069.25,348 L1069.25,351 L1066.5,351 C1065.67157,351 1065,351.671573 1065,352.5 L1065,355.25 L1062,355.25 L1062,357 L1062,363 L1062,364.75 L1065,364.75 L1065,367.5 C1065,368.328427 1065.67157,369 1066.5,369 L1069.25,369 L1069.25,372 L1071,372 L1077,372 L1078.75,372 L1078.75,369 L1081.5,369 C1082.32843,369 1083,368.328427 1083,367.5 L1083,364.75 L1086,364.75 L1086,363 L1086,357 L1086,355.25 L1083,355.25 L1083,352.5 C1083,351.671573 1082.32843,351 1081.5,351 L1078.75,351 L1078.75,348 L1077,348 L1073,348 Z" transform="translate(-1062 -348)"/>
</svg>
