<?xml version="1.0" encoding="UTF-8"?>
<svg width="58px" height="32px" viewBox="0 0 58 32" version="1.1" xmlns="http://www.w3.org/2000/svg" xmlns:xlink="http://www.w3.org/1999/xlink">
    <title>Worship</title>
    <g id="Icons---In-Use-(ME)" stroke="none" stroke-width="1" fill="none" fill-rule="evenodd">
        <g id="Icons" transform="translate(-63.000000, -939.000000)" fill="#1C2530" fill-rule="nonzero">
            <path d="M80.7208814,971 L80.575279,971 C80.1733392,971 79.7960287,970.668901 79.7326205,970.260433 L79.3722124,967.995833 L64.9620219,967.995833 L64.6027246,970.26127 C64.5396061,970.669246 64.1640824,971 63.764026,971 L63.6191481,971 C63.2190917,971 62.9459484,970.669246 63.0090669,970.26127 L64.5789646,960.362292 C64.6272572,960.313093 66.2209149,960.313093 66.1726222,960.362292 L65.204113,966.469125 L79.1291554,966.469125 L78.1552374,960.350029 C78.1069448,960.300781 79.7079429,960.300781 79.756477,960.350029 L81.33386,970.260433 C81.3972683,970.668901 81.1228211,971 80.7208814,971 Z M80.3620599,959.341556 L63.9809073,959.341556 C63.7207545,959.341556 63.4712569,959.236573 63.2873011,959.049703 C63.1033453,958.862833 63,958.609382 63,958.345108 L63,956.451856 C63,955.901533 63.4391672,955.455408 63.9809073,955.455408 L80.3620599,955.455408 C80.9038001,955.455408 81.3429672,955.901533 81.3429672,956.451856 L81.3429672,958.345108 C81.3429672,958.609382 81.2396219,958.862833 81.0556661,959.049703 C80.8717103,959.236573 80.6222127,959.341556 80.3620599,959.341556 L80.3620599,959.341556 Z M78.4527057,953.573055 L64.9248423,953.573055 C64.3949676,953.573055 63.9654193,953.130711 63.9654193,952.585051 L65.4045537,939.988004 C65.4045537,939.442344 65.834102,939 66.3639767,939 L77.0135712,939 C77.5434459,939 77.9729942,939.442344 77.9729942,939.988004 L79.4121286,952.585051 C79.4121286,953.130711 78.9825803,953.573055 78.4527057,953.573055 Z M100.549398,971 L100.403795,971 C100.001856,971 99.6245451,970.668901 99.5611368,970.260433 L99.2007287,967.995833 L84.7905383,967.995833 L84.431241,970.26127 C84.3681225,970.669246 83.9925988,971 83.5925424,971 L83.4476644,971 C83.0476081,971 82.7744648,970.669246 82.8375833,970.26127 L84.407481,960.362292 C84.4557736,960.313093 86.0494313,960.313093 86.0011386,960.362292 L85.0326294,966.469125 L98.9576718,966.469125 L97.9837538,960.350029 C97.9354612,960.300781 99.5364593,960.300781 99.5849934,960.350029 L101.162376,970.260433 C101.225785,970.668901 100.951338,971 100.549398,971 Z M100.190576,959.341556 L83.8094237,959.341556 C83.5492709,959.341556 83.2997733,959.236573 83.1158175,959.049703 C82.9318617,958.862833 82.8285164,958.609382 82.8285164,958.345108 L82.8285164,956.451856 C82.8285164,955.901533 83.2676836,955.455408 83.8094237,955.455408 L100.190576,955.455408 C100.732316,955.455408 101.171484,955.901533 101.171484,956.451856 L101.171484,958.345108 C101.171484,958.609382 101.068138,958.862833 100.884183,959.049703 C100.700227,959.236573 100.450729,959.341556 100.190576,959.341556 L100.190576,959.341556 Z M98.281222,953.573055 L84.7533586,953.573055 C84.223484,953.573055 83.7939357,953.130711 83.7939357,952.585051 L85.2330701,939.988004 C85.2330701,939.442344 85.6626184,939 86.192493,939 L96.8420876,939 C97.3719623,939 97.8015106,939.442344 97.8015106,939.988004 L99.240645,952.585051 C99.240645,953.130711 98.8110967,953.573055 98.281222,953.573055 Z M120.377914,971 L120.232312,971 C119.830372,971 119.453061,970.668901 119.389653,970.260433 L119.029245,967.995833 L104.619055,967.995833 L104.259757,970.26127 C104.196639,970.669246 103.821115,971 103.421059,971 L103.276181,971 C102.876124,971 102.602981,970.669246 102.6661,970.26127 L104.235997,960.362292 C104.28429,960.313093 105.877948,960.313093 105.829655,960.362292 L104.861146,966.469125 L118.786188,966.469125 L117.81227,960.350029 C117.763978,960.300781 119.364976,960.300781 119.41351,960.350029 L120.990893,970.260433 C121.054301,970.668901 120.779854,971 120.377914,971 Z M120.019093,959.341556 L103.63794,959.341556 C103.377787,959.341556 103.12829,959.236573 102.944334,959.049703 C102.760378,958.862833 102.657033,958.609382 102.657033,958.345108 L102.657033,956.451856 C102.657033,955.901533 103.0962,955.455408 103.63794,955.455408 L120.019093,955.455408 C120.560833,955.455408 121,955.901533 121,956.451856 L121,958.345108 C121,958.609382 120.896655,958.862833 120.712699,959.049703 C120.528743,959.236573 120.279245,959.341556 120.019093,959.341556 L120.019093,959.341556 Z M118.109738,953.573055 L104.581875,953.573055 C104.052,953.573055 103.622452,953.130711 103.622452,952.585051 L105.061586,939.988004 C105.061586,939.442344 105.491135,939 106.021009,939 L116.670604,939 C117.200479,939 117.630027,939.442344 117.630027,939.988004 L119.069161,952.585051 C119.069161,953.130711 118.639613,953.573055 118.109738,953.573055 Z" id="Worship"></path>
        </g>
    </g>
</svg>